<?xml version="1.0" encoding="UTF-8"?>
<svg version="1.1" xmlns="http://www.w3.org/2000/svg" width="2000" height="2000">
<path d="M0 0 C660 0 1320 0 2000 0 C2000 660 2000 1320 2000 2000 C1340 2000 680 2000 0 2000 C0 1340 0 680 0 0 Z " fill="#FFFEFE" transform="translate(0,0)"/>
<path d="M0 0 C0.66 0 1.32 0 2 0 C2.43828125 0.77859375 2.8765625 1.5571875 3.328125 2.359375 C6.37651105 7.73742193 9.42824656 13.10220513 12.67578125 18.36328125 C32.96699348 51.29715674 48.96230412 86.62896744 62 123 C62.30873047 123.85835449 62.61746094 124.71670898 62.93554688 125.60107422 C69.85730312 145.05120927 75.08414665 165.10075171 79.40722656 185.27392578 C79.99540617 187.97887368 80.61607372 190.67470202 81.2421875 193.37109375 C84.11650008 206.05686899 86.06187963 218.79989967 87.75 231.6875 C87.85691162 232.50033447 87.96382324 233.31316895 88.07397461 234.15063477 C88.38291989 236.52033373 88.68527803 238.89075802 88.984375 241.26171875 C89.07269592 241.94965012 89.16101685 242.63758148 89.25201416 243.34635925 C90.6720164 254.8836649 91.15812648 266.3572468 91.16796875 277.9765625 C91.17119956 279.39545725 91.17456482 280.81435171 91.17805481 282.23324585 C91.18399829 285.19652066 91.1859001 288.15976654 91.18530273 291.12304688 C91.18522216 294.0993466 91.1920624 297.07549015 91.20581055 300.05175781 C91.3209513 325.43242879 90.55420293 350.54904927 86.25 375.625 C86.12094269 376.39929352 85.99188538 377.17358704 85.85891724 377.97134399 C83.54907608 391.81293086 80.6275743 405.44008191 77 419 C76.67733154 420.22855713 76.67733154 420.22855713 76.34814453 421.48193359 C74.97860222 426.67892435 73.52611721 431.846892 72 437 C71.77876465 437.74878418 71.5575293 438.49756836 71.32958984 439.26904297 C64.88153991 460.86705658 56.31694408 481.49606807 47 502 C46.58492187 502.91813477 46.16984375 503.83626953 45.7421875 504.78222656 C32.6812859 533.5056771 15.87995129 560.64651741 -1.3984375 587.01171875 C-5.84904446 593.80644784 -10.14415151 600.70115674 -14.47070312 607.57519531 C-16.01218252 610.01931622 -17.55983562 612.45941974 -19.109375 614.8984375 C-25.21616839 624.51687828 -31.22102518 634.18087859 -37 644 C-37.41040527 644.69464355 -37.82081055 645.38928711 -38.24365234 646.10498047 C-41.54717285 651.70768173 -44.79189838 657.3421514 -48 663 C-48.5161084 663.9089502 -49.0322168 664.81790039 -49.56396484 665.75439453 C-69.79078416 701.60850987 -84.63060373 739.25178738 -91 780 C-91.11859375 780.70350586 -91.2371875 781.40701172 -91.359375 782.13183594 C-96.21721494 811.52465918 -94.6916139 844.81241874 -85 873 C-84.38898438 874.84464844 -84.38898438 874.84464844 -83.765625 876.7265625 C-76.93586765 896.55457191 -66.38417754 913.76969437 -52 929 C-51.26394531 929.81210937 -50.52789063 930.62421875 -49.76953125 931.4609375 C-29.39983887 953.09307313 0.09076388 965.37585291 29 970 C30.14597656 970.185625 31.29195312 970.37125 32.47265625 970.5625 C39.0299081 971.3455375 45.65609782 971.19778229 52.25 971.1875 C52.96175385 971.18689575 53.67350769 971.1862915 54.40682983 971.18566895 C66.03022266 971.15890987 77.49760245 970.78333695 89 969 C89.74330566 968.8870459 90.48661133 968.7740918 91.25244141 968.65771484 C126.46637761 962.99223771 162.65039806 946.32063693 188.81518555 922.02148438 C190.82976414 920.15750954 192.89178839 918.38146961 195 916.625 C223.00922818 892.02607705 241.72934131 856.15119193 255 822 C255.49838379 820.74195557 255.49838379 820.74195557 256.00683594 819.45849609 C263.28191636 801.0399583 268.13404806 782.14089543 271.52783203 762.65087891 C271.99919907 760.00449664 272.5089853 757.36801282 273.02734375 754.73046875 C275.11870987 743.84151679 276.58057945 732.93047095 277.60546875 721.890625 C277.67117317 721.18468704 277.73687759 720.47874908 277.80457306 719.75141907 C279.25933006 703.71801152 279.3910934 687.75355027 279.26428223 671.6663208 C279.24499887 668.74143063 279.24114727 665.81660099 279.23744583 662.89165592 C279.21927433 649.91801231 279.13727977 636.97955967 278.23144531 624.03271484 C277.66617119 615.2276967 277.75601427 606.38180142 277.75 597.5625 C277.74899292 596.52453278 277.74798584 595.48656555 277.74694824 594.41714478 C277.76965646 559.36734259 280.01713643 523.586587 286 489 C286.33 489 286.66 489 287 489 C287.15033691 490.13876587 287.15033691 490.13876587 287.30371094 491.30053711 C294.07874639 542.0633736 312.72547203 586.87578671 339.03564453 630.72607422 C340.80160862 633.6693477 342.55893909 636.61751618 344.3132019 639.56776428 C351.59515269 651.81019068 358.93196335 664.00796139 366.59423828 676.01733398 C377.60906012 693.33636749 388.01278086 711.07021437 398 729 C398.80123291 730.43786865 398.80123291 730.43786865 399.61865234 731.90478516 C420.6966794 769.9362093 438.06148207 809.74117681 455.0357666 849.72906494 C455.99002835 851.97651506 456.94559072 854.22340854 457.90136719 856.47021484 C480.5625595 909.7738816 502.5156267 963.44375477 522 1018 C522.49035892 1019.36530657 522.98092633 1020.73053828 523.47167969 1022.09570312 C537.64313718 1061.5655717 551.10306108 1101.37947657 561.4296875 1142.04370117 C562.61614787 1146.71284438 563.81273055 1151.37490011 565.13427734 1156.0078125 C568.64827444 1168.32964559 571.58722199 1180.74522609 574.375 1193.25 C574.6126709 1194.31193573 574.8503418 1195.37387146 575.09521484 1196.46798706 C581.12662188 1223.4903974 586.69589671 1250.60362217 589.68505859 1278.15185547 C590.14680381 1282.32760713 590.6618162 1286.49654704 591.17089844 1290.66674805 C591.79456972 1295.77626443 592.40354787 1300.887236 593 1306 C593.07899536 1306.66010071 593.15799072 1307.32020142 593.23937988 1308.00030518 C594.57561356 1319.19628502 595.55547239 1330.36392581 596.125 1341.625 C596.16669312 1342.43538727 596.20838623 1343.24577454 596.25134277 1344.08071899 C597.76883281 1374.47844439 598.19018245 1405.20278156 595.31201172 1435.52587891 C594.96282381 1439.41394145 594.6838379 1443.30533262 594.41015625 1447.19921875 C592.92754735 1467.70196995 590.08150551 1487.77785882 586.36779785 1507.99029541 C586.01865207 1509.8980822 585.67660523 1511.80716418 585.33496094 1513.71630859 C580.59638032 1540.16411418 573.59620508 1565.57960227 565 1591 C564.63003906 1592.09989258 564.26007813 1593.19978516 563.87890625 1594.33300781 C548.37011773 1640.0498487 526.53817135 1684.38983107 496 1722 C495.24460937 1722.94617187 494.48921875 1723.89234375 493.7109375 1724.8671875 C489.41139879 1730.20097951 484.95828717 1735.36172035 480.3359375 1740.41796875 C479.04301431 1741.84710291 477.75690314 1743.28284108 476.50073242 1744.74438477 C471.75615855 1750.26195487 466.71912942 1755.43044546 461.5625 1760.5625 C460.35110352 1761.77969727 460.35110352 1761.77969727 459.11523438 1763.02148438 C454.2392977 1767.88956297 449.23889779 1772.52689832 444 1777 C442.87037157 1777.98484935 441.74143742 1778.97049575 440.61328125 1779.95703125 C432.95540255 1786.60096281 425.14298372 1792.95793675 417 1799 C416.3404834 1799.49081055 415.6809668 1799.98162109 415.00146484 1800.48730469 C363.03648537 1839.00210129 305.20393774 1865.38787167 243.95483398 1885.3581543 C241.76567577 1886.07693748 239.58231739 1886.81222045 237.3984375 1887.546875 C232.02444869 1889.33935105 226.59192927 1890.87956118 221.13476562 1892.39794922 C218.85055697 1893.04214622 216.57406933 1893.71035949 214.296875 1894.37890625 C198.38981618 1898.96891215 182.26934006 1902.03939906 166 1905 C164.34626042 1905.31200352 162.69259882 1905.62442105 161.0390625 1905.9375 C137.67716698 1910.2270985 113.51442952 1912.15501182 89.78515625 1912.16796875 C88.35810822 1912.17119914 86.93106048 1912.17456438 85.50401306 1912.17805481 C82.52992997 1912.18399012 79.55587568 1912.18590074 76.58178711 1912.18530273 C73.58498044 1912.18522184 70.58832782 1912.19211503 67.59155273 1912.20581055 C45.91968024 1912.3032736 24.52690344 1911.72720962 3.0625 1908.375 C1.71575195 1908.17390625 1.71575195 1908.17390625 0.34179688 1907.96875 C-1.77308077 1907.65208383 -3.8867162 1907.32713372 -6 1907 C-2.63892519 1903.32488537 1.12932849 1900.78625791 5.25 1898.0625 C25.9498814 1884.01480347 45.0364283 1866.96641722 59.78320312 1846.65673828 C61.0275632 1844.96247114 62.31263968 1843.30678264 63.609375 1841.65234375 C107.95750065 1784.30187935 126.33004818 1705.29777422 117.34667969 1633.85498047 C116.18401385 1625.4660419 114.57664141 1617.22683092 112.50292969 1609.01757812 C112.00815524 1607.03271598 111.55044391 1605.0425641 111.1015625 1603.046875 C101.95559673 1563.211113 81.75345882 1526.5206431 53.7265625 1496.9375 C51.86353337 1494.96482282 50.10545691 1492.94245335 48.390625 1490.83984375 C46.39899997 1488.47397546 44.49031356 1486.5303231 42.125 1484.5625 C39.51951533 1482.34516947 37.06041227 1480.08895927 34.6875 1477.625 C30.1309107 1473.00683517 25.06950732 1469.03623195 20 1465 C18.92572656 1464.13418244 17.85150921 1463.26829527 16.77734375 1462.40234375 C-6.58825247 1443.68265793 -31.9952735 1427.76067516 -58 1413 C-59.01320313 1412.4239502 -60.02640625 1411.84790039 -61.0703125 1411.25439453 C-74.85687675 1403.43400959 -88.76613354 1395.85334571 -102.734375 1388.36328125 C-111.21511659 1383.81558083 -119.66810578 1379.21819863 -128.10400391 1374.58789062 C-130.1102023 1373.48788098 -132.11778526 1372.39039417 -134.12646484 1371.29492188 C-151.73633326 1361.68426432 -168.94409404 1351.5542152 -186 1341 C-187.11197754 1340.31276855 -188.22395508 1339.62553711 -189.36962891 1338.91748047 C-200.36082165 1332.11433636 -211.32770857 1325.29596651 -222 1318 C-223.66773639 1316.86944882 -225.33573206 1315.73928008 -227.00390625 1314.609375 C-244.93103234 1302.44952087 -262.50575296 1290.00592333 -279.671875 1276.7890625 C-281.65067047 1275.2684445 -283.63514196 1273.75608522 -285.625 1272.25 C-298.92226128 1262.14408143 -311.67649795 1251.36656604 -324.31152344 1240.45019531 C-325.99331993 1239.00573737 -327.68605533 1237.57527825 -329.3828125 1236.1484375 C-344.54072573 1223.37245104 -358.59951353 1209.49302397 -372.625 1195.5 C-373.2837915 1194.84388733 -373.94258301 1194.18777466 -374.62133789 1193.51177979 C-387.37609875 1180.79636585 -387.37609875 1180.79636585 -392.61181641 1174.63330078 C-394.78584215 1172.07539853 -397.08700761 1169.64382816 -399.375 1167.1875 C-403.59149904 1162.61836664 -407.60758044 1157.93377247 -411.50390625 1153.0859375 C-413.38678198 1150.75812556 -415.28850631 1148.4554198 -417.21484375 1146.1640625 C-425.06104483 1136.8042805 -432.39779767 1127.19596046 -439.43408203 1117.21435547 C-440.96336073 1115.05181138 -442.5084841 1112.90155254 -444.05859375 1110.75390625 C-470.21424613 1074.37153783 -491.85729476 1034.18374129 -507 992 C-507.61174072 990.2981958 -507.61174072 990.2981958 -508.23583984 988.56201172 C-524.21430278 943.82589677 -533.67376286 896.89068649 -533.33618164 849.24584961 C-533.31238908 845.67083364 -533.31568438 842.09656086 -533.32226562 838.52148438 C-533.29972089 819.00058965 -531.93372867 799.87880612 -528.6875 780.625 C-528.52701172 779.65549911 -528.52701172 779.65549911 -528.36328125 778.66641235 C-525.39318653 760.73091667 -521.94866873 742.91986696 -516.74072266 725.48828125 C-516.21191952 723.71189312 -515.69170163 721.93294001 -515.17724609 720.15234375 C-494.33732542 648.06992347 -456.19623474 580.40638977 -408.43701172 522.74121094 C-406.35496868 520.2184228 -404.30593205 517.6690823 -402.25 515.125 C-398.65716766 510.7359539 -394.91693674 506.50519214 -391.09765625 502.3125 C-389.30492554 500.33615628 -387.55204773 498.3354327 -385.8125 496.3125 C-376.9592644 486.18875451 -367.61709325 476.52267106 -358.125 467 C-357.34092773 466.21133545 -356.55685547 465.4226709 -355.74902344 464.61010742 C-351.57609697 460.44823682 -347.32013067 456.45305173 -342.85351562 452.60839844 C-340.06284949 450.18678246 -337.3819864 447.65238317 -334.6875 445.125 C-329.89485085 440.6662052 -324.97810172 436.43879209 -319.87109375 432.33984375 C-317.17368656 430.14154864 -314.53711781 427.8895998 -311.90893555 425.60986328 C-305.38323405 419.94955179 -298.69756033 414.59542512 -291.81054688 409.38085938 C-289.10560684 407.31786843 -286.42649721 405.22220014 -283.74536133 403.12841797 C-269.74099277 392.19231108 -255.64944092 381.37229612 -241.3125 370.875 C-232.74590553 364.60228081 -224.36165642 358.11464782 -216.00585938 351.56494141 C-213.14569438 349.33348357 -210.25998977 347.13677176 -207.375 344.9375 C-201.84058546 340.69096809 -196.42360694 336.31202076 -191.02441406 331.89526367 C-186.60442277 328.28446915 -182.13357712 324.7492404 -177.625 321.25 C-171.84324269 316.74840225 -166.39587285 311.95888314 -161 307 C-159.71217819 305.87060071 -158.42064578 304.745415 -157.125 303.625 C-153.23719927 300.23784162 -149.43521607 296.75955213 -145.64428711 293.26489258 C-143.12269402 290.94102479 -140.59028837 288.6344941 -138.03125 286.3515625 C-133.32497786 282.1495338 -128.92277733 277.94896677 -124.8671875 273.1171875 C-122.56993297 270.51235077 -120.10809748 268.11557039 -117.625 265.6875 C-113.16200099 261.29661954 -109.1255187 256.68296165 -105.2265625 251.78515625 C-102.9775514 248.97191955 -100.6513335 246.23879689 -98.3125 243.5 C-86.37417642 229.1592274 -75.92915662 213.77769711 -66 198 C-65.60006836 197.37270996 -65.20013672 196.74541992 -64.78808594 196.09912109 C-41.95541005 160.18040497 -24.22071981 119.24038674 -13.75146484 77.95507812 C-13.01051644 75.0413551 -12.23519727 72.13834685 -11.45703125 69.234375 C-8.09653594 56.33907721 -5.76317294 43.33922558 -3.6875 30.1875 C-3.49364212 28.96409409 -3.49364212 28.96409409 -3.29586792 27.7159729 C-1.8475334 18.49535554 -0.58353754 9.32398978 0 0 Z " fill="#FF3131" transform="translate(1102,21)"/>
<path d="M0 0 C0.66 0 1.32 0 2 0 C1.70233194 6.25102923 0.57241264 11.83080896 -1.2734375 17.796875 C-3.91925871 26.57532476 -6.23407918 35.41391183 -8.4375 44.3125 C-8.63009399 45.08890839 -8.82268799 45.86531677 -9.02111816 46.66525269 C-25.95875395 115.1138328 -33.62576412 187.66177479 -19.50732422 257.4453125 C-18.9917349 260.04161981 -18.52334778 262.64277382 -18.06640625 265.25 C-11.77512191 300.75647723 0.62027779 334.07787965 15 367 C15.42555176 367.98484375 15.85110352 368.9696875 16.28955078 369.984375 C21.24626994 381.44026739 26.70885135 392.54373742 32.65673828 403.51660156 C34.05206818 406.09626272 35.43081403 408.68436568 36.80859375 411.2734375 C59.1916545 453.09669138 86.57331299 492.85233529 117.390625 528.92578125 C119.76269035 531.70733088 122.07492712 534.53348661 124.375 537.375 C128.05789001 541.89250177 131.81967389 546.33564771 135.625 550.75 C136.1514209 551.36407715 136.6778418 551.9781543 137.22021484 552.61083984 C140.38937409 556.26923127 143.6939181 559.71601682 147.14479065 563.10847473 C148.88902837 564.88685609 150.50811773 566.71742184 152.12182617 568.61401367 C156.39958737 573.53079498 160.97767609 578.1213765 165.58984375 582.72265625 C166.49319962 583.62696884 167.39655548 584.53128143 168.32728577 585.46299744 C170.22796068 587.36434943 172.12959608 589.26467553 174.03295898 591.16333008 C176.45118392 593.57585861 178.86488958 595.99285081 181.27727413 598.41121769 C183.60818401 600.74664575 185.94293956 603.07822177 188.27734375 605.41015625 C189.13279282 606.26762955 189.98824188 607.12510284 190.86961365 608.00856018 C195.22062275 612.34279599 199.63253253 616.5386839 204.29693604 620.53504944 C206.86769956 622.74638239 209.33120892 625.06375544 211.8125 627.375 C216.43780953 631.64839971 221.20081901 635.68883729 226.109375 639.63671875 C228.74707812 641.79321928 231.32261314 644.00202966 233.89038086 646.24023438 C241.61548623 652.96395734 249.6527945 659.19866254 257.83105469 665.35888672 C259.97211874 666.97890389 262.10123578 668.61331182 264.2265625 670.25390625 C279.01234561 681.66361079 294.01365281 692.62737767 309.80517578 702.60986328 C312.08298785 704.05256205 314.35240015 705.50785411 316.62109375 706.96484375 C327.56545191 713.96950421 338.66658341 720.6440385 350 727 C350.85529297 727.47985352 351.71058594 727.95970703 352.59179688 728.45410156 C367.1972267 736.59964259 382.09421152 744.11011548 397.06640625 751.55029297 C405.44278563 755.71367384 413.79512646 759.90393069 422.04516602 764.31420898 C426.59371944 766.74391909 431.16958478 769.11013441 435.76953125 771.44140625 C451.27822943 779.3152794 466.32397371 787.6324559 481 797 C481.64227539 797.40831055 482.28455078 797.81662109 482.94628906 798.23730469 C497.40137362 807.48231329 510.873122 818.195955 523.53515625 829.7578125 C525.17379917 831.2484322 526.82753315 832.72263458 528.49609375 834.1796875 C551.48605825 854.33625544 569.1425068 880.94416571 581 909 C581.31662598 909.74894531 581.63325195 910.49789062 581.95947266 911.26953125 C597.70163695 949.3466618 600.94148307 993.82238027 592 1034 C591.80164551 1034.93312012 591.60329102 1035.86624023 591.39892578 1036.82763672 C581.76821581 1081.15035525 558.58815892 1121.84002808 528 1155 C526.47803033 1156.70732104 524.9572019 1158.41566009 523.4375 1160.125 C517.03599119 1167.22667384 510.33725321 1173.86789949 503 1180 C502.49645996 1180.42265137 501.99291992 1180.84530273 501.47412109 1181.28076172 C456.41418164 1218.88087966 402.43197585 1238.54600634 344.99127197 1247.67712402 C343.09520201 1247.98456341 341.20249709 1248.31254715 339.31005859 1248.64160156 C320.59330051 1251.86361066 302.15072469 1252.36636421 283.1875 1252.375 C282.0410199 1252.37699402 280.89453979 1252.37898804 279.71331787 1252.38104248 C236.50614694 1252.37253332 192.15375152 1248.19929735 150.75 1235.17578125 C147.30135581 1234.0944876 143.8448949 1233.12153831 140.35620117 1232.18188477 C100.47507572 1221.41249517 61.35962112 1204.32714156 26 1183 C25.01596191 1182.40719238 24.03192383 1181.81438477 23.01806641 1181.20361328 C4.27452589 1169.83908983 -13.8147531 1157.61397523 -31 1144 C-32.24716797 1143.02546875 -32.24716797 1143.02546875 -33.51953125 1142.03125 C-38.39422645 1138.18819466 -43.15233795 1134.21475703 -47.875 1130.1875 C-48.40343506 1129.73842285 -48.93187012 1129.2893457 -49.47631836 1128.82666016 C-59.39228902 1120.31376763 -68.85439807 1111.33232301 -78.09204102 1102.09326172 C-79.69204519 1100.49546107 -81.29993615 1098.90588449 -82.90820312 1097.31640625 C-88.62406594 1091.63131214 -93.95997116 1085.82671044 -98.98828125 1079.51000977 C-100.82670357 1077.21622095 -102.7228137 1075.00488097 -104.67578125 1072.80859375 C-108.02145556 1069.02029356 -111.13201686 1065.08707473 -114.1875 1061.0625 C-115.02269165 1059.96397705 -115.02269165 1059.96397705 -115.87475586 1058.84326172 C-131.40583563 1038.29471874 -145.15483957 1016.88435396 -157 994 C-157.54914063 992.94119629 -158.09828125 991.88239258 -158.6640625 990.79150391 C-189.51928022 930.65729105 -209.58965736 861.34192684 -221 795 C-221.15065918 794.15260254 -221.30131836 793.30520508 -221.45654297 792.43212891 C-222.47821128 786.64026836 -223.29713012 780.83893 -224 775 C-224.20520264 773.30423828 -224.20520264 773.30423828 -224.41455078 771.57421875 C-229.90573256 723.88079778 -227.58400187 674.9288026 -224.71704102 627.11523438 C-223.84359374 612.40442148 -223.81259412 597.69583204 -223.81469727 582.96435547 C-223.81477871 579.98805693 -223.80779013 577.01191173 -223.79418945 574.03564453 C-223.72354545 558.31382732 -223.67587882 542.69732279 -225.7272644 527.07733154 C-225.99553586 525.0340018 -226.23894338 522.98918968 -226.47485352 520.94189453 C-228.18092285 506.46365722 -229.94506952 492.03102003 -234 478 C-234.20850586 477.2687793 -234.41701172 476.53755859 -234.63183594 475.78417969 C-237.6443475 465.38248881 -241.3124402 455.32306558 -245.45996094 445.32104492 C-245.95544434 444.12378784 -245.95544434 444.12378784 -246.4609375 442.90234375 C-246.90638916 441.84261353 -246.90638916 441.84261353 -247.36083984 440.76147461 C-248 439 -248 439 -248 437 C-242.54318429 438.51578214 -238.14125132 441.10086743 -233.375 444.0625 C-232.57884277 444.55492187 -231.78268555 445.04734375 -230.96240234 445.5546875 C-220.27099821 452.24572999 -210.6190127 459.84607732 -201.50439453 468.56298828 C-200.50265976 469.5198547 -199.49580698 470.47139206 -198.48388672 471.41748047 C-172.60555854 495.64877908 -158.21528927 528.02328736 -150 562 C-144.29447569 585.58169726 -137.15427791 614.41711198 -115 628 C-100.56824617 635.00658919 -88.7643625 635.34379824 -73.5625 630.3125 C-54.95907704 623.20174172 -41.93546589 608.38784965 -33.50390625 590.72265625 C-19.48729493 557.81753792 -26.86884797 513.97857159 -39.625 482 C-43.24105582 473.25277098 -47.38711695 464.73502588 -51.42245483 456.17602539 C-56.01730327 446.40846139 -60.01659038 436.6380662 -63.26025391 426.34472656 C-64.00961224 423.9695327 -64.79112469 421.60644557 -65.57421875 419.2421875 C-74.68516829 391.05909733 -79.14156532 360.43490899 -79.16796875 330.84765625 C-79.17120032 329.49938424 -79.17456563 328.15111255 -79.17805481 326.80284119 C-79.18400282 323.98321731 -79.18589979 321.16362383 -79.18530273 318.34399414 C-79.1852224 315.52003443 -79.19202161 312.69624016 -79.20581055 309.87231445 C-79.32838 284.32135838 -78.41166665 258.93501431 -74.625 233.625 C-74.40106419 232.08273805 -74.1775213 230.54041901 -73.9543457 228.99804688 C-73.32177416 224.66241539 -72.66404628 220.33090351 -72 216 C-71.83773926 214.92588867 -71.67547852 213.85177734 -71.50830078 212.74511719 C-67.49217613 186.58927334 -61.16922616 160.78694517 -54.3125 135.25 C-54.08456757 134.39940002 -53.85663513 133.54880005 -53.62179565 132.67242432 C-43.43564272 94.80611854 -30.41462824 57.58698082 -13.625 22.125 C-13.1616626 21.13959229 -12.6983252 20.15418457 -12.22094727 19.13891602 C-8.98151192 12.47118896 -5.29637958 5.29637958 0 0 Z " fill="#FF3131" transform="translate(539,716)"/>
</svg>
