<?xml version="1.0" encoding="UTF-8"?>
<svg xmlns="http://www.w3.org/2000/svg" version="1.1" width="2000" height="2000" style="background: transparent;">

<path d="M0 0 C0.66 0 1.32 0 2 0 C2.43828125 0.77859375 2.8765625 1.5571875 3.328125 2.359375 C6.37651105 7.73742193 9.42824656 13.10220513 12.67578125 18.36328125 C32.96699348 51.29715674 48.96230412 86.62896744 62 123 C62.30873047 123.85835449 62.61746094 124.71670898 62.93554688 125.60107422 C69.85730312 145.05120927 75.08414665 165.10075171 79.40722656 185.27392578 C79.99540617 187.97887368 80.61607372 190.67470202 81.2421875 193.37109375 C84.11650008 206.05686899 86.06187963 218.79989967 87.75 231.6875 C87.85691162 232.50033447 87.96382324 233.31316895 88.07397461 234.15063477 C88.38291989 236.52033373 88.68527803 238.89075802 88.984375 241.26171875 C89.07269592 241.94965012 89.16101685 242.63758148 89.25201416 243.34635925 C90.66136803 254.79714849 91.16380051 266.19849572 91.203125 277.73046875 C91.21018573 279.1216536 91.21731844 280.51283808 91.22451782 281.90402222 C91.24407291 286.33185344 91.24920998 290.75962965 91.25 295.1875 C91.25044186 296.3179178 91.25044186 296.3179178 91.25089264 297.47117233 C91.25360509 340.38128166 86.96513489 381.41092653 76 423 C75.81727539 423.69383789 75.63455078 424.38767578 75.44628906 425.10253906 C74.37911848 429.09454753 73.2100595 433.04924604 72 437 C71.79439453 437.68626465 71.58878906 438.3725293 71.37695312 439.07958984 C64.8746781 460.73970456 56.34942832 481.42457953 47 502 C46.58492187 502.91813477 46.16984375 503.83626953 45.7421875 504.78222656 C32.6812859 533.5056771 15.87995129 560.64651741 -1.3984375 587.01171875 C-5.84904446 593.80644784 -10.14415151 600.70115674 -14.47070312 607.57519531 C-16.01218252 610.01931622 -17.55983562 612.45941974 -19.109375 614.8984375 C-25.21616839 624.51687828 -31.22102518 634.18087859 -37 644 C-37.41040527 644.69464355 -37.82081055 645.38928711 -38.24365234 646.10498047 C-41.54717285 651.70768173 -44.79189838 657.3421514 -48 663 C-48.5161084 663.9089502 -49.0322168 664.81790039 -49.56396484 665.75439453 C-69.71777538 701.4790943 -84.91269004 739.30371254 -91 780 C-91.17950195 781.18352051 -91.35900391 782.36704102 -91.54394531 783.58642578 C-92.8600883 793.02969331 -93.31336293 802.28842096 -93.26074219 811.81884766 C-93.24997299 814.13079835 -93.26074265 816.44197804 -93.2734375 818.75390625 C-93.28223056 828.00254583 -92.59995821 836.86671954 -91 846 C-90.86899902 846.79470703 -90.73799805 847.58941406 -90.60302734 848.40820312 C-85.43735811 879.06988178 -73.47678805 906.25987148 -52 929 C-51.26394531 929.81210937 -50.52789063 930.62421875 -49.76953125 931.4609375 C-29.0550713 953.45920821 0.64371875 965.46608545 30 970 C31.6253064 970.25910156 31.6253064 970.25910156 33.28344727 970.5234375 C39.56538861 971.32895215 45.86306625 971.19730209 52.1875 971.1875 C52.9017514 971.18689575 53.61600281 971.1862915 54.35189819 971.18566895 C65.99378345 971.15894233 77.4792534 970.78618179 89 969 C89.74330566 968.8870459 90.48661133 968.7740918 91.25244141 968.65771484 C126.46637761 962.99223771 162.65039806 946.32063693 188.81518555 922.02148438 C190.82976414 920.15750954 192.89178839 918.38146961 195 916.625 C237.95305397 878.90175899 261.94444052 817.66968744 271.52783203 762.6640625 C272.00366465 759.97932335 272.51226107 757.30246266 273.02734375 754.625 C278.08794916 727.82379376 279.43821119 701.39491749 279.20538712 674.21563554 C279.17463433 670.11757505 279.1647617 666.01946196 279.15307617 661.92131042 C279.11748937 650.67892636 279.05142259 639.4367672 278.98439026 628.1945343 C278.92314812 617.87472137 278.86911642 607.55498851 278.83974552 597.2350294 C278.82752235 593.1960827 278.80924888 589.157391 278.77450562 585.11857033 C278.55911801 559.81214117 280.13755741 534.9682528 283.03051758 509.82746887 C283.11019366 509.12624521 283.18986975 508.42502155 283.27196026 507.70254868 C283.86196556 502.69596007 284.75723516 497.88229044 286 493 C287.95265724 495.92898587 288.31561423 496.95968821 288.7109375 500.2890625 C288.87251343 501.56330078 288.87251343 501.56330078 289.03735352 502.86328125 C289.14877686 503.77464844 289.2602002 504.68601562 289.375 505.625 C295.44258953 550.37110115 316.02572286 592.37620476 339.03564453 630.72607422 C340.80160862 633.6693477 342.55893909 636.61751618 344.3132019 639.56776428 C351.59515269 651.81019068 358.93196335 664.00796139 366.59423828 676.01733398 C377.60906012 693.33636749 388.01278086 711.07021437 398 729 C398.80123291 730.43786865 398.80123291 730.43786865 399.61865234 731.90478516 C420.6966794 769.9362093 438.06148207 809.74117681 455.0357666 849.72906494 C455.99002835 851.97651506 456.94559072 854.22340854 457.90136719 856.47021484 C485.94799829 922.44151314 512.43563902 989.00886642 535.5625 1056.875 C535.88866302 1057.83166565 536.21482605 1058.7883313 536.5508728 1059.77398682 C548.91360958 1096.10694775 548.91360958 1096.10694775 553.25 1112.8125 C554.55117063 1117.7722993 555.86070547 1122.69433672 557.5234375 1127.546875 C559.08247679 1132.11801437 560.25164219 1136.742927 561.375 1141.4375 C562.70660525 1146.98429228 564.13034756 1152.49194882 565.69458008 1157.97737122 C569.00898336 1169.6418835 571.7368648 1181.41645943 574.375 1193.25 C574.6126709 1194.31193573 574.8503418 1195.37387146 575.09521484 1196.46798706 C581.15808664 1223.63136844 586.73129905 1250.87715719 589.73242188 1278.56933594 C590.13411228 1282.21826809 590.59919552 1285.85849089 591.0625 1289.5 C591.2080835 1290.67643066 591.35366699 1291.85286133 591.50366211 1293.06494141 C591.81290993 1295.51671533 592.1336437 1297.96710194 592.47192383 1300.41503906 C594.07654269 1312.32491274 594.90519552 1324.25758417 595.625 1336.25 C595.6907019 1337.33060699 595.75640381 1338.41121399 595.82409668 1339.52456665 C597.12269654 1361.32566093 597.42599751 1383.06126958 597.03710938 1404.89398193 C597.00469682 1406.73344797 596.97839321 1408.57301961 596.953125 1410.41259766 C596.84683444 1416.96164607 596.49108344 1423.46904918 596 1430 C595.94628235 1430.72797791 595.8925647 1431.45595581 595.83721924 1432.20599365 C593.9395762 1457.73785986 591.05874042 1482.88522006 586.36065674 1508.05456543 C585.79819452 1511.08856791 585.2587805 1514.12669246 584.71484375 1517.1640625 C580.11264824 1542.42275233 573.21279225 1566.71341731 565 1591 C564.63003906 1592.09989258 564.26007813 1593.19978516 563.87890625 1594.33300781 C548.37011773 1640.0498487 526.53817135 1684.38983107 496 1722 C495.24460937 1722.94617187 494.48921875 1723.89234375 493.7109375 1724.8671875 C489.41139879 1730.20097951 484.95828717 1735.36172035 480.3359375 1740.41796875 C479.04301431 1741.84710291 477.75690314 1743.28284108 476.50073242 1744.74438477 C471.75615855 1750.26195487 466.71912942 1755.43044546 461.5625 1760.5625 C460.35110352 1761.77969727 460.35110352 1761.77969727 459.11523438 1763.02148438 C454.2392977 1767.88956297 449.23889779 1772.52689832 444 1777 C442.87037157 1777.98484935 441.74143742 1778.97049575 440.61328125 1779.95703125 C432.95540255 1786.60096281 425.14298372 1792.95793675 417 1799 C416.3404834 1799.49081055 415.6809668 1799.98162109 415.00146484 1800.48730469 C363.03648537 1839.00210129 305.20393774 1865.38787167 243.95483398 1885.3581543 C241.76567577 1886.07693748 239.58231739 1886.81222045 237.3984375 1887.546875 C232.02444869 1889.33935105 226.59192927 1890.87956118 221.13476562 1892.39794922 C218.85055697 1893.04214622 216.57406933 1893.71035949 214.296875 1894.37890625 C198.38981618 1898.96891215 182.26934006 1902.03939906 166 1905 C164.34626042 1905.31200352 162.69259882 1905.62442105 161.0390625 1905.9375 C137.67716698 1910.2270985 113.51442952 1912.15501182 89.78515625 1912.16796875 C88.35810822 1912.17119914 86.93106048 1912.17456438 85.50401306 1912.17805481 C82.52992997 1912.18399012 79.55587568 1912.18590074 76.58178711 1912.18530273 C73.58498044 1912.18522184 70.58832782 1912.19211503 67.59155273 1912.20581055 C45.91968024 1912.3032736 24.52690344 1911.72720962 3.0625 1908.375 C1.71575195 1908.17390625 1.71575195 1908.17390625 0.34179688 1907.96875 C-1.77308077 1907.65208383 -3.8867162 1907.32713372 -6 1907 C-2.63892519 1903.32488537 1.12932849 1900.78625791 5.25 1898.0625 C25.9498814 1884.01480347 45.0364283 1866.96641722 59.78320312 1846.65673828 C61.0275632 1844.96247114 62.31263968 1843.30678264 63.609375 1841.65234375 C107.95750065 1784.30187935 126.33004818 1705.29777422 117.34667969 1633.85498047 C116.18401385 1625.4660419 114.57664141 1617.22683092 112.50292969 1609.01757812 C112.00815524 1607.03271598 111.55044391 1605.0425641 111.1015625 1603.046875 C101.95559673 1563.211113 81.75345882 1526.5206431 53.7265625 1496.9375 C51.86353337 1494.96482282 50.10545691 1492.94245335 48.390625 1490.83984375 C46.39899997 1488.47397546 44.49031356 1486.5303231 42.125 1484.5625 C39.51951533 1482.34516947 37.06041227 1480.08895927 34.6875 1477.625 C30.1309107 1473.00683517 25.06950732 1469.03623195 20 1465 C18.92572656 1464.13418244 17.85150921 1463.26829527 16.77734375 1462.40234375 C-6.58825247 1443.68265793 -31.9952735 1427.76067516 -58 1413 C-59.01320313 1412.4239502 -60.02640625 1411.84790039 -61.0703125 1411.25439453 C-75.90502676 1402.83944981 -90.88910736 1394.71501829 -105.91894531 1386.65527344 C-114.30479402 1382.15003935 -122.65874893 1377.58717921 -131 1373 C-131.96695801 1372.46971191 -132.93391602 1371.93942383 -133.93017578 1371.39306641 C-149.81105179 1362.66592375 -165.32950295 1353.43557089 -180.7734375 1343.96728516 C-184.60042031 1341.63391443 -188.44973477 1339.34006706 -192.30419922 1337.05249023 C-200.61842566 1332.11364227 -208.75528334 1326.99404634 -216.74072266 1321.54052734 C-219.45090778 1319.69254073 -222.16887621 1317.85623693 -224.88671875 1316.01953125 C-243.53556103 1303.40125354 -261.82919577 1290.52683086 -279.671875 1276.7890625 C-281.65067047 1275.2684445 -283.63514196 1273.75608522 -285.625 1272.25 C-298.90646872 1262.15608378 -311.6468753 1251.39242839 -324.26757812 1240.48974609 C-326.08283492 1238.9287685 -327.90740372 1237.37927714 -329.734375 1235.83203125 C-340.55683842 1226.6521241 -340.55683842 1226.6521241 -345.31239319 1221.68666077 C-347.04919785 1219.95082973 -348.85854447 1218.35931074 -350.72436523 1216.76342773 C-354.82613419 1213.19617554 -358.69858182 1209.44642791 -362.53515625 1205.59765625 C-363.21750839 1204.91626083 -363.89986053 1204.23486542 -364.60289001 1203.53282166 C-366.03344437 1202.10294259 -367.46275767 1200.67182089 -368.89086914 1199.23950195 C-371.05699074 1197.06802289 -373.22840174 1194.90193675 -375.40039062 1192.73632812 C-376.79979987 1191.33625798 -378.19889884 1189.93587762 -379.59765625 1188.53515625 C-380.23639175 1187.89844498 -380.87512726 1187.2617337 -381.53321838 1186.60572815 C-385.33056264 1182.788899 -388.94456589 1178.85983103 -392.45814514 1174.77996826 C-394.70197972 1172.18961138 -397.0391394 1169.69521821 -399.375 1167.1875 C-403.59149904 1162.61836664 -407.60758044 1157.93377247 -411.50390625 1153.0859375 C-413.38678198 1150.75812556 -415.28850631 1148.4554198 -417.21484375 1146.1640625 C-425.06104483 1136.8042805 -432.39779767 1127.19596046 -439.43408203 1117.21435547 C-440.96336073 1115.05181138 -442.5084841 1112.90155254 -444.05859375 1110.75390625 C-470.21424613 1074.37153783 -491.85729476 1034.18374129 -507 992 C-507.61174072 990.2981958 -507.61174072 990.2981958 -508.23583984 988.56201172 C-519.36644861 957.3988019 -527.18688873 925.61391169 -531.0625 892.6875 C-531.21847656 891.39199219 -531.37445312 890.09648438 -531.53515625 888.76171875 C-532.97574805 874.70746554 -533.21636095 860.71480625 -533.24023438 846.59765625 C-533.24988354 843.1664146 -533.28097683 839.73578807 -533.3125 836.3046875 C-533.38547255 820.98656718 -532.17409373 806.15551413 -530 791 C-529.81837045 789.66423741 -529.63784548 788.32832361 -529.45898438 786.9921875 C-529.04275413 783.96866216 -528.59602985 780.95292062 -528.125 777.9375 C-527.95991943 776.87789062 -527.79483887 775.81828125 -527.62475586 774.7265625 C-524.96311733 758.09841033 -521.56313501 741.6294419 -516.74072266 725.48828125 C-516.21191952 723.71189312 -515.69170163 721.93294001 -515.17724609 720.15234375 C-494.33732542 648.06992347 -456.19623474 580.40638977 -408.43701172 522.74121094 C-406.35496868 520.2184228 -404.30593205 517.6690823 -402.25 515.125 C-398.65716766 510.7359539 -394.91693674 506.50519214 -391.09765625 502.3125 C-389.30492554 500.33615628 -387.55204773 498.3354327 -385.8125 496.3125 C-376.9592644 486.18875451 -367.61709325 476.52267106 -358.125 467 C-357.34092773 466.21133545 -356.55685547 465.4226709 -355.74902344 464.61010742 C-351.57609697 460.44823682 -347.32013067 456.45305173 -342.85351562 452.60839844 C-340.06284949 450.18678246 -337.3819864 447.65238317 -334.6875 445.125 C-329.89485085 440.6662052 -324.97810172 436.43879209 -319.87109375 432.33984375 C-317.17368656 430.14154864 -314.53711781 427.8895998 -311.90893555 425.60986328 C-305.38323405 419.94955179 -298.69756033 414.59542512 -291.81054688 409.38085938 C-289.10560684 407.31786843 -286.42649721 405.22220014 -283.74536133 403.12841797 C-269.74099277 392.19231108 -255.64944092 381.37229612 -241.3125 370.875 C-232.74590553 364.60228081 -224.36165642 358.11464782 -216.00585938 351.56494141 C-213.14569438 349.33348357 -210.25998977 347.13677176 -207.375 344.9375 C-201.84058546 340.69096809 -196.42360694 336.31202076 -191.02441406 331.89526367 C-186.60442277 328.28446915 -182.13357712 324.7492404 -177.625 321.25 C-171.84324269 316.74840225 -166.39587285 311.95888314 -161 307 C-159.71217819 305.87060071 -158.42064578 304.745415 -157.125 303.625 C-153.23719927 300.23784162 -149.43521607 296.75955213 -145.64428711 293.26489258 C-143.12269402 290.94102479 -140.59028837 288.6344941 -138.03125 286.3515625 C-133.32497786 282.1495338 -128.92277733 277.94896677 -124.8671875 273.1171875 C-122.56993297 270.51235077 -120.10809748 268.11557039 -117.625 265.6875 C-113.16200099 261.29661954 -109.1255187 256.68296165 -105.2265625 251.78515625 C-102.9775514 248.97191955 -100.6513335 246.23879689 -98.3125 243.5 C-86.37417642 229.1592274 -75.92915662 213.77769711 -66 198 C-65.60006836 197.37270996 -65.20013672 196.74541992 -64.78808594 196.09912109 C-46.16824631 166.80773462 -32.34438807 134.69798866 -21 102 C-20.65453125 101.01290039 -20.3090625 100.02580078 -19.953125 99.00878906 C-8.85008923 66.96242455 -3.55090926 33.61091072 0 0 Z " fill="#FFBD59" transform="translate(1102,21)"/>
<path d="M0 0 C0.66 0 1.32 0 2 0 C1.70233194 6.25102923 0.57241264 11.83080896 -1.2734375 17.796875 C-3.91925871 26.57532476 -6.23407918 35.41391183 -8.4375 44.3125 C-8.63009399 45.08890839 -8.82268799 45.86531677 -9.02111816 46.66525269 C-26.34678078 116.68193155 -31.99384168 187.97539771 -19.3125 259.375 C-19.18306 260.1046698 -19.05362 260.8343396 -18.92025757 261.58612061 C-12.32685379 298.40057865 0.08172533 332.84487329 15 367 C15.42555176 367.98484375 15.85110352 368.9696875 16.28955078 369.984375 C21.24626994 381.44026739 26.70885135 392.54373742 32.65673828 403.51660156 C34.05206818 406.09626272 35.43081403 408.68436568 36.80859375 411.2734375 C47.46509895 431.18535783 59.22163569 450.38171319 72 469 C72.53560547 469.78407227 73.07121094 470.56814453 73.62304688 471.37597656 C82.66332483 484.57773603 92.20248569 497.35268352 102 510 C102.52223145 510.67820801 103.04446289 511.35641602 103.58251953 512.05517578 C109.0827776 519.19719156 114.75794183 526.1471986 120.66113281 532.96044922 C123.6773263 536.44210466 126.61549015 539.96987943 129.5 543.5625 C134.13107618 549.2616442 139.08283116 554.61501482 144.10888672 559.96533203 C145.53312522 561.49768469 146.94396692 563.04250537 148.34814453 564.59326172 C157.11703283 574.25485372 166.32016006 583.47246421 175.55566406 592.68603516 C178.26223325 595.38720886 180.96336896 598.09373429 183.6640625 600.80078125 C185.4059292 602.54198765 187.1481058 604.28288409 188.890625 606.0234375 C189.68664124 606.82147797 190.48265747 607.61951843 191.30279541 608.44174194 C195.50231083 612.6238737 199.77696641 616.65364196 204.27537537 620.51348877 C206.85158284 622.73400752 209.32379296 625.05684771 211.8125 627.375 C216.43780953 631.64839971 221.20081901 635.68883729 226.109375 639.63671875 C228.74698824 641.79314579 231.32243304 644.00188904 233.89013672 646.23999023 C240.90522568 652.34586207 248.16354729 658.04757431 255.5859375 663.6484375 C258.55594619 665.89141967 261.4956515 668.16685234 264.4140625 670.4765625 C274.26594486 678.26853531 284.35362805 685.55173232 294.79833984 692.52880859 C296.8249968 693.88305952 298.84516983 695.24634291 300.86328125 696.61328125 C316.8411286 707.40072329 333.18484412 717.56979133 350 727 C350.85529297 727.47985352 351.71058594 727.95970703 352.59179688 728.45410156 C367.19866002 736.60044196 382.09715626 744.11154618 397.07080078 751.55249023 C405.39967944 755.69228178 413.70598529 759.85604272 421.90673828 764.24609375 C426.63265433 766.77170179 431.39418467 769.21833216 436.1796875 771.62890625 C452.68898445 779.96668414 468.54169353 788.80030729 484 799 C484.76328613 799.49838379 485.52657227 799.99676758 486.31298828 800.51025391 C499.61967727 809.23195668 512.00163081 819.12900827 523.7109375 829.8984375 C525.28139731 831.34025896 526.87116893 832.76124225 528.4765625 834.1640625 C551.47829676 854.31728478 569.14029369 880.93892932 581 909 C581.31662598 909.74894531 581.63325195 910.49789062 581.95947266 911.26953125 C597.70163695 949.3466618 600.94148307 993.82238027 592 1034 C591.80164551 1034.93312012 591.60329102 1035.86624023 591.39892578 1036.82763672 C581.76821581 1081.15035525 558.58815892 1121.84002808 528 1155 C526.47803033 1156.70732104 524.9572019 1158.41566009 523.4375 1160.125 C517.03599119 1167.22667384 510.33725321 1173.86789949 503 1180 C502.49645996 1180.42265137 501.99291992 1180.84530273 501.47412109 1181.28076172 C456.41418164 1218.88087966 402.43197585 1238.54600634 344.99127197 1247.67712402 C343.09520201 1247.98456341 341.20249709 1248.31254715 339.31005859 1248.64160156 C320.59330051 1251.86361066 302.15072469 1252.36636421 283.1875 1252.375 C282.0410199 1252.37699402 280.89453979 1252.37898804 279.71331787 1252.38104248 C236.50614694 1252.37253332 192.15375152 1248.19929735 150.75 1235.17578125 C147.30135581 1234.0944876 143.8448949 1233.12153831 140.35620117 1232.18188477 C100.47507572 1221.41249517 61.35962112 1204.32714156 26 1183 C25.01596191 1182.40719238 24.03192383 1181.81438477 23.01806641 1181.20361328 C4.27452589 1169.83908983 -13.8147531 1157.61397523 -31 1144 C-32.24716797 1143.02546875 -32.24716797 1143.02546875 -33.51953125 1142.03125 C-38.39422645 1138.18819466 -43.15233795 1134.21475703 -47.875 1130.1875 C-48.40343506 1129.73842285 -48.93187012 1129.2893457 -49.47631836 1128.82666016 C-59.39228902 1120.31376763 -68.85439807 1111.33232301 -78.09204102 1102.09326172 C-79.69204519 1100.49546107 -81.29993615 1098.90588449 -82.90820312 1097.31640625 C-88.62406594 1091.63131214 -93.95997116 1085.82671044 -98.98828125 1079.51000977 C-100.82670357 1077.21622095 -102.7228137 1075.00488097 -104.67578125 1072.80859375 C-108.02145556 1069.02029356 -111.13201686 1065.08707473 -114.1875 1061.0625 C-115.02269165 1059.96397705 -115.02269165 1059.96397705 -115.87475586 1058.84326172 C-131.40583563 1038.29471874 -145.15483957 1016.88435396 -157 994 C-157.54914063 992.94119629 -158.09828125 991.88239258 -158.6640625 990.79150391 C-189.51928022 930.65729105 -209.58965736 861.34192684 -221 795 C-221.15065918 794.15260254 -221.30131836 793.30520508 -221.45654297 792.43212891 C-222.47821128 786.64026836 -223.29713012 780.83893 -224 775 C-224.20520264 773.30423828 -224.20520264 773.30423828 -224.41455078 771.57421875 C-227.61675936 743.76157512 -227.39892071 715.95853137 -227 688 C-226.98690796 687.05912537 -226.97381592 686.11825073 -226.96032715 685.14886475 C-226.72922328 669.19661643 -226.34154467 653.27642778 -225.21264648 637.35986328 C-221.61380728 585.23896395 -219.83949873 528.70508381 -234 478 C-234.33402832 476.7929541 -234.33402832 476.7929541 -234.67480469 475.56152344 C-237.60476819 465.2178018 -241.34505912 455.24684895 -245.46020508 445.31958008 C-245.79044678 444.52189209 -246.12068848 443.7242041 -246.4609375 442.90234375 C-246.90638916 441.84261353 -246.90638916 441.84261353 -247.36083984 440.76147461 C-248 439 -248 439 -248 437 C-242.54318429 438.51578214 -238.14125132 441.10086743 -233.375 444.0625 C-232.57884277 444.55492187 -231.78268555 445.04734375 -230.96240234 445.5546875 C-219.65993715 452.62815268 -209.6223121 460.79241502 -200 470 C-199.06027344 470.886875 -198.12054688 471.77375 -197.15234375 472.6875 C-172.07690856 496.95177484 -158.0884614 528.54782083 -150 562 C-144.29447569 585.58169726 -137.15427791 614.41711198 -115 628 C-100.56824617 635.00658919 -88.7643625 635.34379824 -73.5625 630.3125 C-54.95203768 623.19905107 -41.95941554 608.39089091 -33.50390625 590.734375 C-30.81008613 584.41549589 -29.35679421 577.71102514 -28 571 C-27.80535156 570.08476563 -27.61070312 569.16953125 -27.41015625 568.2265625 C-22.38460592 528.69223328 -34.84425572 490.14710522 -51.8828125 455.11328125 C-56.77713444 445.00529538 -60.50791618 434.66380061 -64 424 C-64.26699707 423.19965332 -64.53399414 422.39930664 -64.80908203 421.57470703 C-74.56323076 392.0948309 -79.15196113 360.32784188 -79.16796875 329.32421875 C-79.17119626 327.8270515 -79.17456134 326.32988455 -79.17805481 324.8327179 C-79.18400438 321.70544711 -79.18589932 318.57820377 -79.18530273 315.45092773 C-79.18522192 312.29494439 -79.19209865 309.13910758 -79.20581055 305.9831543 C-79.28305982 287.89995024 -79.14915611 269.98527791 -77 252 C-76.9060495 251.20028778 -76.812099 250.40057556 -76.71530151 249.57662964 C-76.08756996 244.33244293 -75.37503091 239.10293537 -74.625 233.875 C-74.51639648 233.10595337 -74.40779297 232.33690674 -74.29589844 231.54455566 C-72.68080842 220.12768208 -70.87621411 208.77601732 -68.51806641 197.48583984 C-67.9608532 194.81216179 -67.42322274 192.13493811 -66.88671875 189.45703125 C-62.16232995 166.09331473 -56.97113364 142.80418188 -50 120 C-49.42789795 118.1118457 -49.42789795 118.1118457 -48.84423828 116.18554688 C-38.23486656 81.24568677 -26.40488573 46.4691394 -9.5 14 C-9.11513428 13.25919189 -8.73026855 12.51838379 -8.33374023 11.75512695 C-5.97512404 7.38133222 -3.40566457 3.63270887 0 0 Z " fill="#FFBD59" transform="translate(539,716)"/>
</svg>