<?xml version="1.0" encoding="UTF-8"?>
<svg version="1.1" xmlns="http://www.w3.org/2000/svg" width="2000" height="2000">
<path d="M0 0 C660 0 1320 0 2000 0 C2000 660 2000 1320 2000 2000 C1340 2000 680 2000 0 2000 C0 1340 0 680 0 0 Z " fill="#FEFEFF" transform="translate(0,0)"/>
<path d="M0 0 C0.66 0 1.32 0 2 0 C2.43828125 0.77859375 2.8765625 1.5571875 3.328125 2.359375 C6.37651105 7.73742193 9.42824656 13.10220513 12.67578125 18.36328125 C32.96699348 51.29715674 48.96230412 86.62896744 62 123 C62.30873047 123.85835449 62.61746094 124.71670898 62.93554688 125.60107422 C69.84892931 145.02767887 75.11680015 165.06573038 79.40722656 185.22216797 C79.80354894 187.07939863 80.20658726 188.93520841 80.61621094 190.78955078 C83.64470548 204.52644296 85.86802161 218.31709358 87.75 232.25 C87.85691162 233.03714386 87.96382324 233.82428772 88.07397461 234.63528442 C88.38289199 236.92804934 88.68514925 239.22157663 88.984375 241.515625 C89.07269592 242.17850021 89.16101685 242.84137543 89.25201416 243.52433777 C90.71351928 254.9955777 91.15817953 266.41987437 91.16796875 277.9765625 C91.17119956 279.39545725 91.17456482 280.81435171 91.17805481 282.23324585 C91.18399829 285.19652066 91.1859001 288.15976654 91.18530273 291.12304688 C91.18522216 294.0993466 91.1920624 297.07549015 91.20581055 300.05175781 C91.3209532 325.43284744 90.55225562 350.54842994 86.25 375.625 C86.12127502 376.39862885 85.99255005 377.17225769 85.85992432 377.96932983 C83.72569208 390.7840395 81.08187972 403.4244641 77.77587891 415.99267578 C77.029649 418.88507981 76.33135519 421.7870293 75.63476562 424.69169617 C73.50775825 433.46750634 70.85147654 441.97835877 67.875 450.5 C67.63600983 451.18898376 67.39701965 451.87796753 67.15078735 452.58782959 C62.6191723 465.62064152 57.62347463 478.3955256 52 491 C51.48066895 492.16740723 50.96133789 493.33481445 50.42626953 494.53759766 C35.95655269 526.90866709 18.02372691 557.37706471 -1.3984375 587.01171875 C-5.84904446 593.80644784 -10.14415151 600.70115674 -14.47070312 607.57519531 C-16.01218252 610.01931622 -17.55983562 612.45941974 -19.109375 614.8984375 C-25.21616839 624.51687828 -31.22102518 634.18087859 -37 644 C-37.41040527 644.69464355 -37.82081055 645.38928711 -38.24365234 646.10498047 C-41.54717285 651.70768173 -44.79189838 657.3421514 -48 663 C-48.5161084 663.9089502 -49.0322168 664.81790039 -49.56396484 665.75439453 C-69.78495812 701.59818262 -84.65354534 739.25576108 -91 780 C-91.11859375 780.71414063 -91.2371875 781.42828125 -91.359375 782.1640625 C-93.13864108 793.13620333 -93.20403676 804.16091988 -93.25 815.25 C-93.25535767 815.97352661 -93.26071533 816.69705322 -93.26623535 817.44250488 C-93.32069442 827.14117076 -92.65725383 836.41501012 -91 846 C-90.86899902 846.79615723 -90.73799805 847.59231445 -90.60302734 848.41259766 C-85.42630463 879.0747245 -73.48021971 906.25623795 -52 929 C-51.26394531 929.81210937 -50.52789063 930.62421875 -49.76953125 931.4609375 C-29.39983887 953.09307313 0.09076388 965.37585291 29 970 C30.14597656 970.185625 31.29195312 970.37125 32.47265625 970.5625 C39.0299081 971.3455375 45.65609782 971.19778229 52.25 971.1875 C52.96175385 971.18689575 53.67350769 971.1862915 54.40682983 971.18566895 C66.03022266 971.15890987 77.49760245 970.78333695 89 969 C89.74330566 968.8870459 90.48661133 968.7740918 91.25244141 968.65771484 C126.46637761 962.99223771 162.65039806 946.32063693 188.81518555 922.02148438 C190.82976414 920.15750954 192.89178839 918.38146961 195 916.625 C223.00922818 892.02607705 241.72934131 856.15119193 255 822 C255.49838379 820.74195557 255.49838379 820.74195557 256.00683594 819.45849609 C263.27474593 801.05811189 268.12912432 782.17417033 271.5234375 762.70361328 C272.01736863 759.90146507 272.53805098 757.10518014 273.0625 754.30859375 C275.41376356 741.57981994 277.06208336 728.90906531 278 716 C278.08413713 714.84278096 278.16827427 713.68556192 278.25496101 712.49327564 C278.87069249 703.42565573 279.12622232 694.42903065 279.06591797 685.33666992 C279.06070251 683.95269445 279.05599899 682.56871696 279.05175781 681.18473816 C279.04193046 678.23630605 279.02912444 675.2879083 279.01403427 672.33949852 C278.99055881 667.63652722 278.97754341 662.93355956 278.96633911 658.23054504 C278.93325566 644.86677452 278.89200959 631.50306795 278.82861328 618.1394043 C278.7935673 610.73333938 278.77010156 603.32732281 278.75840485 595.92118341 C278.75177541 592.03073079 278.73991839 588.14048438 278.71337509 584.25011253 C278.50060556 552.17550846 281.38809671 520.72665328 286 489 C286.33 489 286.66 489 287 489 C287.15033691 490.13876587 287.15033691 490.13876587 287.30371094 491.30053711 C294.07874639 542.0633736 312.72547203 586.87578671 339.03564453 630.72607422 C340.80160862 633.6693477 342.55893909 636.61751618 344.3132019 639.56776428 C351.59515269 651.81019068 358.93196335 664.00796139 366.59423828 676.01733398 C377.60906012 693.33636749 388.01278086 711.07021437 398 729 C398.80123291 730.43786865 398.80123291 730.43786865 399.61865234 731.90478516 C420.6966794 769.9362093 438.06148207 809.74117681 455.0357666 849.72906494 C455.99002835 851.97651506 456.94559072 854.22340854 457.90136719 856.47021484 C480.5625595 909.7738816 502.5156267 963.44375477 522 1018 C522.49035892 1019.36530657 522.98092633 1020.73053828 523.47167969 1022.09570312 C537.64313718 1061.5655717 551.10306108 1101.37947657 561.4296875 1142.04370117 C562.61614787 1146.71284438 563.81273055 1151.37490011 565.13427734 1156.0078125 C568.64827444 1168.32964559 571.58722199 1180.74522609 574.375 1193.25 C574.6126709 1194.31193573 574.8503418 1195.37387146 575.09521484 1196.46798706 C581.15808664 1223.63136844 586.73129905 1250.87715719 589.73242188 1278.56933594 C590.13411228 1282.21826809 590.59919552 1285.85849089 591.0625 1289.5 C591.2080835 1290.67715576 591.35366699 1291.85431152 591.50366211 1293.06713867 C591.81217081 1295.51168699 592.13271033 1297.95478661 592.47192383 1300.39526367 C594.10934908 1312.49671805 594.91097264 1324.62573439 595.625 1336.8125 C595.6907019 1337.91839478 595.75640381 1339.02428955 595.82409668 1340.16369629 C597.08333289 1361.77063986 597.43333205 1383.30819596 597.03710938 1404.94537354 C597.00450719 1406.75045164 596.97830282 1408.55564292 596.953125 1410.36083984 C596.84587098 1416.92679697 596.49009357 1423.45198352 596 1430 C595.94628235 1430.72904541 595.8925647 1431.45809082 595.83721924 1432.20922852 C593.94056743 1457.73994498 591.05850671 1482.88647212 586.36065674 1508.05456543 C585.79819452 1511.08856791 585.2587805 1514.12669246 584.71484375 1517.1640625 C580.11264824 1542.42275233 573.21279225 1566.71341731 565 1591 C564.63003906 1592.09989258 564.26007813 1593.19978516 563.87890625 1594.33300781 C548.37011773 1640.0498487 526.53817135 1684.38983107 496 1722 C495.24460937 1722.94617187 494.48921875 1723.89234375 493.7109375 1724.8671875 C489.41139879 1730.20097951 484.95828717 1735.36172035 480.3359375 1740.41796875 C479.04301431 1741.84710291 477.75690314 1743.28284108 476.50073242 1744.74438477 C471.75615855 1750.26195487 466.71912942 1755.43044546 461.5625 1760.5625 C460.35110352 1761.77969727 460.35110352 1761.77969727 459.11523438 1763.02148438 C454.2392977 1767.88956297 449.23889779 1772.52689832 444 1777 C442.87037157 1777.98484935 441.74143742 1778.97049575 440.61328125 1779.95703125 C432.95540255 1786.60096281 425.14298372 1792.95793675 417 1799 C416.3404834 1799.49081055 415.6809668 1799.98162109 415.00146484 1800.48730469 C363.03648537 1839.00210129 305.20393774 1865.38787167 243.95483398 1885.3581543 C241.76567577 1886.07693748 239.58231739 1886.81222045 237.3984375 1887.546875 C232.02444869 1889.33935105 226.59192927 1890.87956118 221.13476562 1892.39794922 C218.85055697 1893.04214622 216.57406933 1893.71035949 214.296875 1894.37890625 C198.38981618 1898.96891215 182.26934006 1902.03939906 166 1905 C164.34626042 1905.31200352 162.69259882 1905.62442105 161.0390625 1905.9375 C138.11181259 1910.14729097 114.34720049 1912.14629756 91.0546875 1912.16796875 C89.76474884 1912.17129715 88.47481018 1912.17462555 87.14578247 1912.17805481 C84.42807175 1912.18398743 81.7103925 1912.18590128 78.99267578 1912.18530273 C76.27255491 1912.18522225 73.55260525 1912.19205027 70.83251953 1912.20581055 C44.99513378 1912.33433695 19.52646429 1911.14390654 -6 1907 C-2.63892519 1903.32488537 1.12932849 1900.78625791 5.25 1898.0625 C25.9498814 1884.01480347 45.0364283 1866.96641722 59.78320312 1846.65673828 C61.0275632 1844.96247114 62.31263968 1843.30678264 63.609375 1841.65234375 C107.95750065 1784.30187935 126.33004818 1705.29777422 117.34667969 1633.85498047 C116.18401385 1625.4660419 114.57664141 1617.22683092 112.50292969 1609.01757812 C112.00815524 1607.03271598 111.55044391 1605.0425641 111.1015625 1603.046875 C101.95559673 1563.211113 81.75345882 1526.5206431 53.7265625 1496.9375 C51.86353337 1494.96482282 50.10545691 1492.94245335 48.390625 1490.83984375 C46.39899997 1488.47397546 44.49031356 1486.5303231 42.125 1484.5625 C39.51951533 1482.34516947 37.06041227 1480.08895927 34.6875 1477.625 C30.1309107 1473.00683517 25.06950732 1469.03623195 20 1465 C18.92572656 1464.13418244 17.85150921 1463.26829527 16.77734375 1462.40234375 C-6.58825247 1443.68265793 -31.9952735 1427.76067516 -58 1413 C-59.01320313 1412.4239502 -60.02640625 1411.84790039 -61.0703125 1411.25439453 C-74.85687675 1403.43400959 -88.76613354 1395.85334571 -102.734375 1388.36328125 C-111.21511659 1383.81558083 -119.66810578 1379.21819863 -128.10400391 1374.58789062 C-130.1102023 1373.48788098 -132.11778526 1372.39039417 -134.12646484 1371.29492188 C-151.73633326 1361.68426432 -168.94409404 1351.5542152 -186 1341 C-187.11197754 1340.31276855 -188.22395508 1339.62553711 -189.36962891 1338.91748047 C-200.36082165 1332.11433636 -211.32770857 1325.29596651 -222 1318 C-223.66773639 1316.86944882 -225.33573206 1315.73928008 -227.00390625 1314.609375 C-244.93103234 1302.44952087 -262.50575296 1290.00592333 -279.671875 1276.7890625 C-281.65067047 1275.2684445 -283.63514196 1273.75608522 -285.625 1272.25 C-298.92226128 1262.14408143 -311.67649795 1251.36656604 -324.31152344 1240.45019531 C-325.99331993 1239.00573737 -327.68605533 1237.57527825 -329.3828125 1236.1484375 C-344.54072573 1223.37245104 -358.59951353 1209.49302397 -372.625 1195.5 C-373.2837915 1194.84388733 -373.94258301 1194.18777466 -374.62133789 1193.51177979 C-387.37609875 1180.79636585 -387.37609875 1180.79636585 -392.61181641 1174.63330078 C-394.78584215 1172.07539853 -397.08700761 1169.64382816 -399.375 1167.1875 C-403.59149904 1162.61836664 -407.60758044 1157.93377247 -411.50390625 1153.0859375 C-413.38678198 1150.75812556 -415.28850631 1148.4554198 -417.21484375 1146.1640625 C-425.06104483 1136.8042805 -432.39779767 1127.19596046 -439.43408203 1117.21435547 C-440.96336073 1115.05181138 -442.5084841 1112.90155254 -444.05859375 1110.75390625 C-470.21424613 1074.37153783 -491.85729476 1034.18374129 -507 992 C-507.61174072 990.2981958 -507.61174072 990.2981958 -508.23583984 988.56201172 C-524.34551872 943.45852155 -533.66213938 896.30487883 -533.33618164 848.28149414 C-533.31235456 844.53965971 -533.31568679 840.79853317 -533.32226562 837.05664062 C-533.30116181 817.99150006 -531.81313803 799.5473781 -528.6875 780.75 C-528.58050781 780.09867096 -528.47351563 779.44734192 -528.36328125 778.77627563 C-518.3432083 717.89972763 -496.87040318 659.43144855 -466 606 C-465.45005371 605.04689941 -464.90010742 604.09379883 -464.33349609 603.11181641 C-447.90997068 574.82761569 -429.29963518 547.93104521 -408.43701172 522.74121094 C-406.35496868 520.2184228 -404.30593205 517.6690823 -402.25 515.125 C-398.65716766 510.7359539 -394.91693674 506.50519214 -391.09765625 502.3125 C-389.30492554 500.33615628 -387.55204773 498.3354327 -385.8125 496.3125 C-376.9592644 486.18875451 -367.61709325 476.52267106 -358.125 467 C-357.34092773 466.21133545 -356.55685547 465.4226709 -355.74902344 464.61010742 C-351.57609697 460.44823682 -347.32013067 456.45305173 -342.85351562 452.60839844 C-340.06284949 450.18678246 -337.3819864 447.65238317 -334.6875 445.125 C-329.89485085 440.6662052 -324.97810172 436.43879209 -319.87109375 432.33984375 C-317.17368656 430.14154864 -314.53711781 427.8895998 -311.90893555 425.60986328 C-305.38323405 419.94955179 -298.69756033 414.59542512 -291.81054688 409.38085938 C-289.10560684 407.31786843 -286.42649721 405.22220014 -283.74536133 403.12841797 C-269.74099277 392.19231108 -255.64944092 381.37229612 -241.3125 370.875 C-232.74590553 364.60228081 -224.36165642 358.11464782 -216.00585938 351.56494141 C-213.14569438 349.33348357 -210.25998977 347.13677176 -207.375 344.9375 C-201.84058546 340.69096809 -196.42360694 336.31202076 -191.02441406 331.89526367 C-186.60442277 328.28446915 -182.13357712 324.7492404 -177.625 321.25 C-171.84324269 316.74840225 -166.39587285 311.95888314 -161 307 C-159.71217819 305.87060071 -158.42064578 304.745415 -157.125 303.625 C-153.23719927 300.23784162 -149.43521607 296.75955213 -145.64428711 293.26489258 C-143.12269402 290.94102479 -140.59028837 288.6344941 -138.03125 286.3515625 C-133.32497786 282.1495338 -128.92277733 277.94896677 -124.8671875 273.1171875 C-122.56993297 270.51235077 -120.10809748 268.11557039 -117.625 265.6875 C-113.16200099 261.29661954 -109.1255187 256.68296165 -105.2265625 251.78515625 C-102.9775514 248.97191955 -100.6513335 246.23879689 -98.3125 243.5 C-86.37417642 229.1592274 -75.92915662 213.77769711 -66 198 C-65.60006836 197.37270996 -65.20013672 196.74541992 -64.78808594 196.09912109 C-43.26588684 162.24195239 -25.17712956 123.05703419 -15.5078125 83.96728516 C-14.99093377 81.96487709 -14.4126742 79.99065853 -13.8125 78.01171875 C-6.30557779 53.02106567 -1.56326495 26.03644723 0 0 Z " fill="#5170FF" transform="translate(1102,21)"/>
<path d="M0 0 C0.66 0 1.32 0 2 0 C1.70233194 6.25102923 0.57241264 11.83080896 -1.2734375 17.796875 C-3.91925871 26.57532476 -6.23407918 35.41391183 -8.4375 44.3125 C-8.63009399 45.08890839 -8.82268799 45.86531677 -9.02111816 46.66525269 C-29.83122301 130.76330195 -33.74923581 218.07819462 15 367 C15.42555176 367.98484375 15.85110352 368.9696875 16.28955078 369.984375 C21.24626994 381.44026739 26.70885135 392.54373742 32.65673828 403.51660156 C34.05206818 406.09626272 35.43081403 408.68436568 36.80859375 411.2734375 C59.1916545 453.09669138 86.57331299 492.85233529 117.390625 528.92578125 C119.76269035 531.70733088 122.07492712 534.53348661 124.375 537.375 C128.05789001 541.89250177 131.81967389 546.33564771 135.625 550.75 C136.1514209 551.36407715 136.6778418 551.9781543 137.22021484 552.61083984 C140.38937409 556.26923127 143.6939181 559.71601682 147.14479065 563.10847473 C148.88902837 564.88685609 150.50811773 566.71742184 152.12182617 568.61401367 C156.39958737 573.53079498 160.97767609 578.1213765 165.58984375 582.72265625 C166.49319962 583.62696884 167.39655548 584.53128143 168.32728577 585.46299744 C170.22796068 587.36434943 172.12959608 589.26467553 174.03295898 591.16333008 C176.45118392 593.57585861 178.86488958 595.99285081 181.27727413 598.41121769 C183.60818401 600.74664575 185.94293956 603.07822177 188.27734375 605.41015625 C189.13279282 606.26762955 189.98824188 607.12510284 190.86961365 608.00856018 C195.22062275 612.34279599 199.63253253 616.5386839 204.29693604 620.53504944 C206.86769956 622.74638239 209.33120892 625.06375544 211.8125 627.375 C216.43780953 631.64839971 221.20081901 635.68883729 226.109375 639.63671875 C228.74707812 641.79321928 231.32261314 644.00202966 233.89038086 646.24023438 C241.61548623 652.96395734 249.6527945 659.19866254 257.83105469 665.35888672 C259.97211874 666.97890389 262.10123578 668.61331182 264.2265625 670.25390625 C279.01234561 681.66361079 294.01365281 692.62737767 309.80517578 702.60986328 C312.08298785 704.05256205 314.35240015 705.50785411 316.62109375 706.96484375 C327.56545191 713.96950421 338.66658341 720.6440385 350 727 C350.85529297 727.47985352 351.71058594 727.95970703 352.59179688 728.45410156 C367.1972267 736.59964259 382.09421152 744.11011548 397.06640625 751.55029297 C405.44278563 755.71367384 413.79512646 759.90393069 422.04516602 764.31420898 C426.59371944 766.74391909 431.16958478 769.11013441 435.76953125 771.44140625 C451.27822943 779.3152794 466.32397371 787.6324559 481 797 C481.64227539 797.40831055 482.28455078 797.81662109 482.94628906 798.23730469 C497.40137362 807.48231329 510.873122 818.195955 523.53515625 829.7578125 C525.17379917 831.2484322 526.82753315 832.72263458 528.49609375 834.1796875 C551.48605825 854.33625544 569.1425068 880.94416571 581 909 C581.31662598 909.74894531 581.63325195 910.49789062 581.95947266 911.26953125 C596.69472537 946.91114513 601.36171587 990.11974356 593 1028 C592.81775879 1028.8554541 592.63551758 1029.7109082 592.44775391 1030.59228516 C591.11486816 1036.76899126 589.62240852 1042.89320944 588 1049 C587.81743652 1049.68980957 587.63487305 1050.37961914 587.44677734 1051.09033203 C576.86939913 1089.99125303 555.17332819 1125.54197338 528 1155 C526.47803033 1156.70732104 524.9572019 1158.41566009 523.4375 1160.125 C517.03599119 1167.22667384 510.33725321 1173.86789949 503 1180 C502.49645996 1180.42265137 501.99291992 1180.84530273 501.47412109 1181.28076172 C456.41418164 1218.88087966 402.43197585 1238.54600634 344.99127197 1247.67712402 C343.09520201 1247.98456341 341.20249709 1248.31254715 339.31005859 1248.64160156 C320.59330051 1251.86361066 302.15072469 1252.36636421 283.1875 1252.375 C282.0410199 1252.37699402 280.89453979 1252.37898804 279.71331787 1252.38104248 C236.74607023 1252.37258058 192.3089956 1248.39499107 151.15234375 1235.28125 C148.00090227 1234.28074307 144.83079693 1233.41860609 141.62890625 1232.59375 C114.75970222 1225.59842691 88.94990997 1215.11545324 64 1203 C63.24638184 1202.63567871 62.49276367 1202.27135742 61.71630859 1201.89599609 C57.11153328 1199.659211 52.54875482 1197.34823216 48 1195 C47.32984863 1194.65791504 46.65969727 1194.31583008 45.96923828 1193.96337891 C15.09844768 1178.17824445 -14.58720463 1158.46249459 -41 1136 C-41.53399414 1135.54947266 -42.06798828 1135.09894531 -42.61816406 1134.63476562 C-44.39468487 1133.13548215 -46.16691777 1131.63129092 -47.9375 1130.125 C-48.46255127 1129.67946777 -48.98760254 1129.23393555 -49.52856445 1128.77490234 C-59.43160689 1120.28487859 -68.87198205 1111.31473633 -78.09204102 1102.09326172 C-79.69204519 1100.49546107 -81.29993615 1098.90588449 -82.90820312 1097.31640625 C-88.62406594 1091.63131214 -93.95997116 1085.82671044 -98.98828125 1079.51000977 C-100.82670357 1077.21622095 -102.7228137 1075.00488097 -104.67578125 1072.80859375 C-108.02145556 1069.02029356 -111.13201686 1065.08707473 -114.1875 1061.0625 C-115.02269165 1059.96397705 -115.02269165 1059.96397705 -115.87475586 1058.84326172 C-131.40583563 1038.29471874 -145.15483957 1016.88435396 -157 994 C-157.54914063 992.94119629 -158.09828125 991.88239258 -158.6640625 990.79150391 C-189.00452472 931.66050605 -209.21959277 863.27496505 -220.47705078 798.01855469 C-220.92579239 795.42833935 -221.39577604 792.84322734 -221.87109375 790.2578125 C-230.27534147 742.32403783 -227.44898506 692.59291975 -225.53515625 644.2578125 C-225.4965448 643.26987701 -225.45793335 642.28194153 -225.41815186 641.2640686 C-225.20728044 636.14291319 -224.94258148 631.02992155 -224.61415482 625.91483402 C-224.03969948 616.84741512 -223.83678096 607.8157321 -223.83203125 598.73046875 C-223.82879994 597.23326082 -223.82543465 595.73605318 -223.82194519 594.23884583 C-223.81602541 591.12886831 -223.81409789 588.01891828 -223.81469727 584.90893555 C-223.81477854 581.76662442 -223.80782138 578.62445904 -223.79418945 575.48217773 C-223.65278171 551.21239218 -223.65278171 551.21239218 -225.7272644 527.05014038 C-225.99757484 525.01822985 -226.24030412 522.98480857 -226.47485352 520.94848633 C-228.17827274 506.46805144 -229.94456577 492.03276311 -234 478 C-234.20850586 477.2687793 -234.41701172 476.53755859 -234.63183594 475.78417969 C-237.6443475 465.38248881 -241.3124402 455.32306558 -245.45996094 445.32104492 C-245.95544434 444.12378784 -245.95544434 444.12378784 -246.4609375 442.90234375 C-246.90638916 441.84261353 -246.90638916 441.84261353 -247.36083984 440.76147461 C-248 439 -248 439 -248 437 C-242.54318429 438.51578214 -238.14125132 441.10086743 -233.375 444.0625 C-232.57884277 444.55492187 -231.78268555 445.04734375 -230.96240234 445.5546875 C-220.27099821 452.24572999 -210.6190127 459.84607732 -201.50439453 468.56298828 C-200.50265976 469.5198547 -199.49580698 470.47139206 -198.48388672 471.41748047 C-172.60555854 495.64877908 -158.21528927 528.02328736 -150 562 C-144.29447569 585.58169726 -137.15427791 614.41711198 -115 628 C-100.56824617 635.00658919 -88.7643625 635.34379824 -73.5625 630.3125 C-54.95439305 623.19995136 -41.95141723 608.38988265 -33.50390625 590.73046875 C-19.48905991 557.84711151 -26.83876832 514.05397865 -39.625 482 C-43.24105582 473.25277098 -47.38711695 464.73502588 -51.42245483 456.17602539 C-56.01730327 446.40846139 -60.01659038 436.6380662 -63.26025391 426.34472656 C-64.00961224 423.9695327 -64.79112469 421.60644557 -65.57421875 419.2421875 C-74.86481188 390.50340206 -79.1524024 359.47317693 -79.16796875 329.32421875 C-79.17119626 327.8270515 -79.17456134 326.32988455 -79.17805481 324.8327179 C-79.18400438 321.70544711 -79.18589932 318.57820377 -79.18530273 315.45092773 C-79.18522192 312.29494439 -79.19209865 309.13910758 -79.20581055 305.9831543 C-79.28305982 287.89995024 -79.14915611 269.98527791 -77 252 C-76.9060495 251.20028778 -76.812099 250.40057556 -76.71530151 249.57662964 C-76.08756996 244.33244293 -75.37503091 239.10293537 -74.625 233.875 C-74.51639648 233.10595337 -74.40779297 232.33690674 -74.29589844 231.54455566 C-72.68080842 220.12768208 -70.87621411 208.77601732 -68.51806641 197.48583984 C-67.9608532 194.81216179 -67.42322274 192.13493811 -66.88671875 189.45703125 C-62.16232995 166.09331473 -56.97113364 142.80418188 -50 120 C-49.42789795 118.1118457 -49.42789795 118.1118457 -48.84423828 116.18554688 C-38.23486656 81.24568677 -26.40488573 46.4691394 -9.5 14 C-9.11513428 13.25919189 -8.73026855 12.51838379 -8.33374023 11.75512695 C-5.97512404 7.38133222 -3.40566457 3.63270887 0 0 Z " fill="#5170FF" transform="translate(539,716)"/>
</svg>
