<?xml version="1.0" encoding="UTF-8"?>
<svg xmlns="http://www.w3.org/2000/svg" version="1.1" width="2000" height="2000" style="background: transparent;">

<path d="M0 0 C4.59456038 4.18305516 7.4295988 9.86098489 10.625 15.125 C10.99693481 15.73691193 11.36886963 16.34882385 11.7520752 16.97927856 C31.83730325 50.16990957 47.87429628 85.53210611 61 122 C61.465271 123.29188232 61.465271 123.29188232 61.93994141 124.60986328 C68.85113125 144.03360166 74.11752532 164.06913725 78.40722656 184.22216797 C78.80354894 186.07939863 79.20658726 187.93520841 79.61621094 189.78955078 C82.64470548 203.52644296 84.86802161 217.31709358 86.75 231.25 C86.85691162 232.03714386 86.96382324 232.82428772 87.07397461 233.63528442 C87.38289199 235.92804934 87.68514925 238.22157663 87.984375 240.515625 C88.07269592 241.17850021 88.16101685 241.84137543 88.25201416 242.52433777 C89.71351928 253.9955777 90.15817953 265.41987437 90.16796875 276.9765625 C90.17119956 278.39545725 90.17456482 279.81435171 90.17805481 281.23324585 C90.18399829 284.19652066 90.1859001 287.15976654 90.18530273 290.12304688 C90.18522216 293.0993466 90.1920624 296.07549015 90.20581055 299.05175781 C90.3209513 324.43242879 89.55420293 349.54904927 85.25 374.625 C85.12094269 375.39929352 84.99188538 376.17358704 84.85891724 376.97134399 C82.54857652 390.81592449 79.60086615 404.43088244 76 418 C75.63181465 419.4541748 75.26455581 420.90858465 74.8984375 422.36328125 C68.07358263 448.80608956 58.38363494 474.22280707 47 499 C46.2884375 500.56548584 46.2884375 500.56548584 45.5625 502.16259766 C32.20259897 531.43956828 15.22507075 559.11989748 -2.3984375 586.01171875 C-6.84904446 592.80644784 -11.14415151 599.70115674 -15.47070312 606.57519531 C-17.01218252 609.01931622 -18.55983562 611.45941974 -20.109375 613.8984375 C-26.21616839 623.51687828 -32.22102518 633.18087859 -38 643 C-38.41040527 643.69464355 -38.82081055 644.38928711 -39.24365234 645.10498047 C-42.54717285 650.70768173 -45.79189838 656.3421514 -49 662 C-49.5161084 662.9089502 -50.0322168 663.81790039 -50.56396484 664.75439453 C-70.78495812 700.59818262 -85.65354534 738.25576108 -92 779 C-92.11859375 779.71414063 -92.2371875 780.42828125 -92.359375 781.1640625 C-94.13864108 792.13620333 -94.20403676 803.16091988 -94.25 814.25 C-94.25535767 814.97352661 -94.26071533 815.69705322 -94.26623535 816.44250488 C-94.32069442 826.14117076 -93.65725383 835.41501012 -92 845 C-91.86899902 845.79615723 -91.73799805 846.59231445 -91.60302734 847.41259766 C-86.42614091 878.07569423 -74.47958281 905.25478521 -53 928 C-52.27554687 928.80050781 -51.55109375 929.60101562 -50.8046875 930.42578125 C-32.95784332 949.39183431 -8.08338155 961.09373865 17 967 C17.72445312 967.17499023 18.44890625 967.34998047 19.1953125 967.53027344 C40.89587937 972.51153992 66.0969853 971.39585336 88 968 C88.74330566 967.8870459 89.48661133 967.7740918 90.25244141 967.65771484 C118.66979263 963.0857223 146.2523815 951.07689715 170 935 C170.95777344 934.35675781 171.91554688 933.71351563 172.90234375 933.05078125 C192.11019699 919.59682237 207.29165911 902.87464396 221 884 C221.44053711 883.39494629 221.88107422 882.78989258 222.33496094 882.16650391 C235.82777972 863.3913677 245.65529072 842.47457598 254 821 C254.49838379 819.74195557 254.49838379 819.74195557 255.00683594 818.45849609 C262.28006234 800.04465218 267.13306718 781.14893504 270.52783203 761.6640625 C271.00366465 758.97932335 271.51226107 756.30246266 272.02734375 753.625 C277.13124572 726.59528754 278.46815123 699.89760884 278.26428223 672.48162842 C278.24506774 669.39523925 278.24111638 666.30890942 278.2375679 663.22246838 C278.23236028 659.4542761 278.21793779 655.68613332 278.203125 651.91796875 C278.20124428 651.23361441 278.19936356 650.54926006 278.19742584 649.84416771 C278.1678307 641.53762872 277.88825241 633.28383067 277.361763 624.9970417 C277.01083841 619.43271199 276.82640648 613.89074315 276.796875 608.31640625 C276.78642151 606.92574448 276.78642151 606.92574448 276.77575684 605.50698853 C276.75851405 602.52544482 276.75203328 599.54409154 276.75 596.5625 C276.74899292 595.52453278 276.74798584 594.48656555 276.74694824 593.41714478 C276.76965646 558.36734259 279.01713643 522.586587 285 488 C285.33 488 285.66 488 286 488 C286.15033691 489.13876587 286.15033691 489.13876587 286.30371094 490.30053711 C293.07874639 541.0633736 311.72547203 585.87578671 338.03564453 629.72607422 C339.80160862 632.6693477 341.55893909 635.61751618 343.3132019 638.56776428 C350.59515269 650.81019068 357.93196335 663.00796139 365.59423828 675.01733398 C376.60906012 692.33636749 387.01278086 710.07021437 397 728 C397.80123291 729.43786865 397.80123291 729.43786865 398.61865234 730.90478516 C419.6966794 768.9362093 437.06148207 808.74117681 454.0357666 848.72906494 C454.99002835 850.97651506 455.94559072 853.22340854 456.90136719 855.47021484 C484.94799829 921.44151314 511.43563902 988.00886642 534.5625 1055.875 C534.88866302 1056.83166565 535.21482605 1057.7883313 535.5508728 1058.77398682 C547.91360958 1095.10694775 547.91360958 1095.10694775 552.25 1111.8125 C553.55117063 1116.7722993 554.86070547 1121.69433672 556.5234375 1126.546875 C558.08247679 1131.11801437 559.25164219 1135.742927 560.375 1140.4375 C561.70660525 1145.98429228 563.13034756 1151.49194882 564.69458008 1156.97737122 C568.00898336 1168.6418835 570.7368648 1180.41645943 573.375 1192.25 C573.6126709 1193.31193573 573.8503418 1194.37387146 574.09521484 1195.46798706 C580.15808664 1222.63136844 585.73129905 1249.87715719 588.73242188 1277.56933594 C589.13411228 1281.21826809 589.59919552 1284.85849089 590.0625 1288.5 C590.2080835 1289.67135498 590.35366699 1290.84270996 590.50366211 1292.04956055 C590.81806231 1294.55192637 591.13989567 1297.0533789 591.47192383 1299.5534668 C592.85395364 1310.11796143 593.85563785 1320.68626839 594.625 1331.3125 C594.6907019 1332.21609253 594.75640381 1333.11968506 594.82409668 1334.05065918 C595.94438658 1349.95188168 596.27453234 1365.8121072 596.25 1381.75 C596.24913391 1382.79684967 596.24826782 1383.84369934 596.24737549 1384.92227173 C596.20058975 1406.73966305 595.28934145 1428.45915693 593.3125 1450.1875 C593.22829803 1451.122453 593.14409607 1452.05740601 593.05734253 1453.02069092 C591.39269412 1471.20684516 588.71031022 1489.10925175 585.36065674 1507.05456543 C584.79819452 1510.08856791 584.2587805 1513.12669246 583.71484375 1516.1640625 C579.11264824 1541.42275233 572.21279225 1565.71341731 564 1590 C563.63003906 1591.09989258 563.26007813 1592.19978516 562.87890625 1593.33300781 C547.37011773 1639.0498487 525.53817135 1683.38983107 495 1721 C494.24460937 1721.94617187 493.48921875 1722.89234375 492.7109375 1723.8671875 C488.41139879 1729.20097951 483.95828717 1734.36172035 479.3359375 1739.41796875 C478.04301431 1740.84710291 476.75690314 1742.28284108 475.50073242 1743.74438477 C470.75615855 1749.26195487 465.71912942 1754.43044546 460.5625 1759.5625 C459.35110352 1760.77969727 459.35110352 1760.77969727 458.11523438 1762.02148438 C453.2392977 1766.88956297 448.23889779 1771.52689832 443 1776 C441.87037157 1776.98484935 440.74143742 1777.97049575 439.61328125 1778.95703125 C431.95540255 1785.60096281 424.14298372 1791.95793675 416 1798 C415.3404834 1798.49081055 414.6809668 1798.98162109 414.00146484 1799.48730469 C362.03648537 1838.00210129 304.20393774 1864.38787167 242.95483398 1884.3581543 C240.76567577 1885.07693748 238.58231739 1885.81222045 236.3984375 1886.546875 C231.02444869 1888.33935105 225.59192927 1889.87956118 220.13476562 1891.39794922 C217.85055697 1892.04214622 215.57406933 1892.71035949 213.296875 1893.37890625 C197.38981618 1897.96891215 181.26934006 1901.03939906 165 1904 C163.34626042 1904.31200352 161.69259882 1904.62442105 160.0390625 1904.9375 C146.1545136 1907.4866226 132.05200827 1908.75500934 118 1910 C117.07904541 1910.08480118 116.15809082 1910.16960236 115.20922852 1910.25697327 C106.68718157 1910.98712317 98.21363383 1911.16339424 89.6640625 1911.16796875 C88.21316498 1911.17119782 86.76226776 1911.17456299 85.31137085 1911.17805481 C82.28423309 1911.18399696 79.25712364 1911.18590006 76.22998047 1911.18530273 C73.17783631 1911.18522189 70.12584357 1911.19210591 67.07373047 1911.20581055 C45.2395899 1911.30230177 23.68809418 1910.75238363 2.0625 1907.375 C0.71575195 1907.17390625 0.71575195 1907.17390625 -0.65820312 1906.96875 C-2.77308077 1906.65208383 -4.8867162 1906.32713372 -7 1906 C-3.63892519 1902.32488537 0.12932849 1899.78625791 4.25 1897.0625 C24.9498814 1883.01480347 44.0364283 1865.96641722 58.78320312 1845.65673828 C60.0275632 1843.96247114 61.31263968 1842.30678264 62.609375 1840.65234375 C106.95750065 1783.30187935 125.33004818 1704.29777422 116.34667969 1632.85498047 C115.18401385 1624.4660419 113.57664141 1616.22683092 111.50292969 1608.01757812 C111.00815524 1606.03271598 110.55044391 1604.0425641 110.1015625 1602.046875 C100.95559673 1562.211113 80.75345882 1525.5206431 52.7265625 1495.9375 C50.86353337 1493.96482282 49.10545691 1491.94245335 47.390625 1489.83984375 C45.39899997 1487.47397546 43.49031356 1485.5303231 41.125 1483.5625 C38.51951533 1481.34516947 36.06041227 1479.08895927 33.6875 1476.625 C29.1309107 1472.00683517 24.06950732 1468.03623195 19 1464 C17.92572656 1463.13418244 16.85150921 1462.26829527 15.77734375 1461.40234375 C-7.58825247 1442.68265793 -32.9952735 1426.76067516 -59 1412 C-60.01320313 1411.4239502 -61.02640625 1410.84790039 -62.0703125 1410.25439453 C-75.85687675 1402.43400959 -89.76613354 1394.85334571 -103.734375 1387.36328125 C-112.21511659 1382.81558083 -120.66810578 1378.21819863 -129.10400391 1373.58789062 C-131.1102023 1372.48788098 -133.11778526 1371.39039417 -135.12646484 1370.29492188 C-152.73633326 1360.68426432 -169.94409404 1350.5542152 -187 1340 C-188.11197754 1339.31276855 -189.22395508 1338.62553711 -190.36962891 1337.91748047 C-201.36082165 1331.11433636 -212.32770857 1324.29596651 -223 1317 C-224.66773639 1315.86944882 -226.33573206 1314.73928008 -228.00390625 1313.609375 C-245.93103234 1301.44952087 -263.50575296 1289.00592333 -280.671875 1275.7890625 C-282.65067047 1274.2684445 -284.63514196 1272.75608522 -286.625 1271.25 C-299.92226128 1261.14408143 -312.67649795 1250.36656604 -325.31152344 1239.45019531 C-326.99331993 1238.00573737 -328.68605533 1236.57527825 -330.3828125 1235.1484375 C-345.54072573 1222.37245104 -359.59951353 1208.49302397 -373.625 1194.5 C-374.2837915 1193.84388733 -374.94258301 1193.18777466 -375.62133789 1192.51177979 C-388.37609875 1179.79636585 -388.37609875 1179.79636585 -393.61181641 1173.63330078 C-395.78584215 1171.07539853 -398.08700761 1168.64382816 -400.375 1166.1875 C-404.59149904 1161.61836664 -408.60758044 1156.93377247 -412.50390625 1152.0859375 C-414.38678198 1149.75812556 -416.28850631 1147.4554198 -418.21484375 1145.1640625 C-426.06104483 1135.8042805 -433.39779767 1126.19596046 -440.43408203 1116.21435547 C-441.96336073 1114.05181138 -443.5084841 1111.90155254 -445.05859375 1109.75390625 C-471.21424613 1073.37153783 -492.85729476 1033.18374129 -508 991 C-508.61174072 989.2981958 -508.61174072 989.2981958 -509.23583984 987.56201172 C-525.21430278 942.82589677 -534.67376286 895.89068649 -534.33618164 848.24584961 C-534.31238908 844.67083364 -534.31568438 841.09656086 -534.32226562 837.52148438 C-534.29972089 818.00058965 -532.93372867 798.87880612 -529.6875 779.625 C-529.52701172 778.65549911 -529.52701172 778.65549911 -529.36328125 777.66641235 C-526.39318653 759.73091667 -522.94866873 741.91986696 -517.74072266 724.48828125 C-517.21191952 722.71189312 -516.69170163 720.93294001 -516.17724609 719.15234375 C-495.33732542 647.06992347 -457.19623474 579.40638977 -409.43701172 521.74121094 C-407.35496868 519.2184228 -405.30593205 516.6690823 -403.25 514.125 C-399.65716766 509.7359539 -395.91693674 505.50519214 -392.09765625 501.3125 C-390.30492554 499.33615628 -388.55204773 497.3354327 -386.8125 495.3125 C-377.9592644 485.18875451 -368.61709325 475.52267106 -359.125 466 C-358.34092773 465.21133545 -357.55685547 464.4226709 -356.74902344 463.61010742 C-352.57609697 459.44823682 -348.32013067 455.45305173 -343.85351562 451.60839844 C-341.06284949 449.18678246 -338.3819864 446.65238317 -335.6875 444.125 C-330.89485085 439.6662052 -325.97810172 435.43879209 -320.87109375 431.33984375 C-318.17368656 429.14154864 -315.53711781 426.8895998 -312.90893555 424.60986328 C-306.38323405 418.94955179 -299.69756033 413.59542512 -292.81054688 408.38085938 C-290.10560684 406.31786843 -287.42649721 404.22220014 -284.74536133 402.12841797 C-270.74099277 391.19231108 -256.64944092 380.37229612 -242.3125 369.875 C-233.74590553 363.60228081 -225.36165642 357.11464782 -217.00585938 350.56494141 C-214.14569438 348.33348357 -211.25998977 346.13677176 -208.375 343.9375 C-202.84058546 339.69096809 -197.42360694 335.31202076 -192.02441406 330.89526367 C-187.60442277 327.28446915 -183.13357712 323.7492404 -178.625 320.25 C-172.84324269 315.74840225 -167.39587285 310.95888314 -162 306 C-160.71217819 304.87060071 -159.42064578 303.745415 -158.125 302.625 C-154.23719927 299.23784162 -150.43521607 295.75955213 -146.64428711 292.26489258 C-144.12269402 289.94102479 -141.59028837 287.6344941 -139.03125 285.3515625 C-134.32497786 281.1495338 -129.92277733 276.94896677 -125.8671875 272.1171875 C-123.56993297 269.51235077 -121.10809748 267.11557039 -118.625 264.6875 C-114.16200099 260.29661954 -110.1255187 255.68296165 -106.2265625 250.78515625 C-103.9775514 247.97191955 -101.6513335 245.23879689 -99.3125 242.5 C-87.37417642 228.1592274 -76.92915662 212.77769711 -67 197 C-66.60006836 196.37270996 -66.20013672 195.74541992 -65.78808594 195.09912109 C-44.26588684 161.24195239 -26.17712956 122.05703419 -16.5078125 82.96728516 C-15.99093377 80.96487709 -15.4126742 78.99065853 -14.8125 77.01171875 C-7.72311172 53.42683314 -4.27304265 28.88792234 -1.38549805 4.48901367 C-1 2 -1 2 0 0 Z " fill="#00BF63" transform="translate(1103,22)"/>
<path d="M0 0 C0.66 0 1.32 0 2 0 C1.70233194 6.25102923 0.57241264 11.83080896 -1.2734375 17.796875 C-3.91925871 26.57532476 -6.23407918 35.41391183 -8.4375 44.3125 C-8.63009399 45.08890839 -8.82268799 45.86531677 -9.02111816 46.66525269 C-29.93691814 131.19043838 -35.63807273 222.79835455 -7.77929688 306.62548828 C-6.87619136 309.37724399 -6.00952753 312.13960085 -5.140625 314.90234375 C0.54939016 332.74307907 7.52437495 349.85117184 15 367 C15.42845215 367.99209473 15.8569043 368.98418945 16.29833984 370.00634766 C21.25212469 381.45468563 26.71272224 392.55087857 32.65673828 403.51660156 C34.05206818 406.09626272 35.43081403 408.68436568 36.80859375 411.2734375 C59.1916545 453.09669138 86.57331299 492.85233529 117.390625 528.92578125 C119.76269035 531.70733088 122.07492712 534.53348661 124.375 537.375 C128.05789001 541.89250177 131.81967389 546.33564771 135.625 550.75 C136.1514209 551.36407715 136.6778418 551.9781543 137.22021484 552.61083984 C140.38937409 556.26923127 143.6939181 559.71601682 147.14479065 563.10847473 C148.88902837 564.88685609 150.50811773 566.71742184 152.12182617 568.61401367 C156.39958737 573.53079498 160.97767609 578.1213765 165.58984375 582.72265625 C166.49319962 583.62696884 167.39655548 584.53128143 168.32728577 585.46299744 C170.22796068 587.36434943 172.12959608 589.26467553 174.03295898 591.16333008 C176.45118392 593.57585861 178.86488958 595.99285081 181.27727413 598.41121769 C183.60818401 600.74664575 185.94293956 603.07822177 188.27734375 605.41015625 C189.13279282 606.26762955 189.98824188 607.12510284 190.86961365 608.00856018 C195.22062275 612.34279599 199.63253253 616.5386839 204.29693604 620.53504944 C206.86769956 622.74638239 209.33120892 625.06375544 211.8125 627.375 C216.43780953 631.64839971 221.20081901 635.68883729 226.109375 639.63671875 C228.74707812 641.79321928 231.32261314 644.00202966 233.89038086 646.24023438 C241.61548623 652.96395734 249.6527945 659.19866254 257.83105469 665.35888672 C259.97211874 666.97890389 262.10123578 668.61331182 264.2265625 670.25390625 C279.01234561 681.66361079 294.01365281 692.62737767 309.80517578 702.60986328 C312.08298785 704.05256205 314.35240015 705.50785411 316.62109375 706.96484375 C327.56545191 713.96950421 338.66658341 720.6440385 350 727 C350.85529297 727.47985352 351.71058594 727.95970703 352.59179688 728.45410156 C367.1972267 736.59964259 382.09421152 744.11011548 397.06640625 751.55029297 C405.44278563 755.71367384 413.79512646 759.90393069 422.04516602 764.31420898 C426.59371944 766.74391909 431.16958478 769.11013441 435.76953125 771.44140625 C451.27822943 779.3152794 466.32397371 787.6324559 481 797 C481.64227539 797.40831055 482.28455078 797.81662109 482.94628906 798.23730469 C497.40137362 807.48231329 510.873122 818.195955 523.53515625 829.7578125 C525.17379917 831.2484322 526.82753315 832.72263458 528.49609375 834.1796875 C551.48605825 854.33625544 569.1425068 880.94416571 581 909 C581.31662598 909.74894531 581.63325195 910.49789062 581.95947266 911.26953125 C597.70163695 949.3466618 600.94148307 993.82238027 592 1034 C591.80164551 1034.93312012 591.60329102 1035.86624023 591.39892578 1036.82763672 C581.76821581 1081.15035525 558.58815892 1121.84002808 528 1155 C526.47803033 1156.70732104 524.9572019 1158.41566009 523.4375 1160.125 C517.03599119 1167.22667384 510.33725321 1173.86789949 503 1180 C502.49645996 1180.42265137 501.99291992 1180.84530273 501.47412109 1181.28076172 C456.41418164 1218.88087966 402.43197585 1238.54600634 344.99127197 1247.67712402 C343.09520201 1247.98456341 341.20249709 1248.31254715 339.31005859 1248.64160156 C320.59330051 1251.86361066 302.15072469 1252.36636421 283.1875 1252.375 C282.0410199 1252.37699402 280.89453979 1252.37898804 279.71331787 1252.38104248 C236.74607023 1252.37258058 192.3089956 1248.39499107 151.15234375 1235.28125 C148.00090227 1234.28074307 144.83079693 1233.41860609 141.62890625 1232.59375 C114.75970222 1225.59842691 88.94990997 1215.11545324 64 1203 C63.24638184 1202.63567871 62.49276367 1202.27135742 61.71630859 1201.89599609 C57.11153328 1199.659211 52.54875482 1197.34823216 48 1195 C47.32984863 1194.65791504 46.65969727 1194.31583008 45.96923828 1193.96337891 C15.09844768 1178.17824445 -14.58720463 1158.46249459 -41 1136 C-41.53399414 1135.54947266 -42.06798828 1135.09894531 -42.61816406 1134.63476562 C-44.39468487 1133.13548215 -46.16691777 1131.63129092 -47.9375 1130.125 C-48.46255127 1129.67946777 -48.98760254 1129.23393555 -49.52856445 1128.77490234 C-59.43160689 1120.28487859 -68.87198205 1111.31473633 -78.09204102 1102.09326172 C-79.69204519 1100.49546107 -81.29993615 1098.90588449 -82.90820312 1097.31640625 C-88.62406594 1091.63131214 -93.95997116 1085.82671044 -98.98828125 1079.51000977 C-100.82670357 1077.21622095 -102.7228137 1075.00488097 -104.67578125 1072.80859375 C-108.02145556 1069.02029356 -111.13201686 1065.08707473 -114.1875 1061.0625 C-115.02269165 1059.96397705 -115.02269165 1059.96397705 -115.87475586 1058.84326172 C-131.40583563 1038.29471874 -145.15483957 1016.88435396 -157 994 C-157.54914063 992.94119629 -158.09828125 991.88239258 -158.6640625 990.79150391 C-189.00452472 931.66050605 -209.21959277 863.27496505 -220.47705078 798.01855469 C-220.92579239 795.42833935 -221.39577604 792.84322734 -221.87109375 790.2578125 C-231.21046554 736.99054121 -227.85046556 680.71709289 -224.72143555 627.0559082 C-223.80184374 611.23431372 -223.71332314 595.40618357 -223.6875 579.5625 C-223.68511133 578.45450357 -223.68511133 578.45450357 -223.68267441 577.32412338 C-223.5982429 531.11426366 -227.6514051 484.26457947 -246.8984375 441.625 C-248 439 -248 439 -248 437 C-242.54318429 438.51578214 -238.14125132 441.10086743 -233.375 444.0625 C-232.57884277 444.55492187 -231.78268555 445.04734375 -230.96240234 445.5546875 C-220.27099821 452.24572999 -210.6190127 459.84607732 -201.50439453 468.56298828 C-200.50265976 469.5198547 -199.49580698 470.47139206 -198.48388672 471.41748047 C-172.60555854 495.64877908 -158.21528927 528.02328736 -150 562 C-144.29447569 585.58169726 -137.15427791 614.41711198 -115 628 C-100.56824617 635.00658919 -88.7643625 635.34379824 -73.5625 630.3125 C-54.95439305 623.19995136 -41.95141723 608.38988265 -33.50390625 590.73046875 C-19.48905991 557.84711151 -26.83876832 514.05397865 -39.625 482 C-43.24105582 473.25277098 -47.38711695 464.73502588 -51.42245483 456.17602539 C-56.01730327 446.40846139 -60.01659038 436.6380662 -63.26025391 426.34472656 C-64.00961224 423.9695327 -64.79112469 421.60644557 -65.57421875 419.2421875 C-74.86481188 390.50340206 -79.1524024 359.47317693 -79.16796875 329.32421875 C-79.17119626 327.8270515 -79.17456134 326.32988455 -79.17805481 324.8327179 C-79.18400438 321.70544711 -79.18589932 318.57820377 -79.18530273 315.45092773 C-79.18522192 312.29494439 -79.19209865 309.13910758 -79.20581055 305.9831543 C-79.28305642 287.90075952 -79.15467205 269.98405817 -77 252 C-76.9060495 251.20500092 -76.812099 250.41000183 -76.71530151 249.59091187 C-76.08723866 244.3836544 -75.37420803 239.19104945 -74.625 234 C-74.51539948 233.23018799 -74.40579895 232.46037598 -74.2928772 231.66723633 C-73.54843011 226.44181236 -72.78293615 221.21978988 -72 216 C-71.83773926 214.9171875 -71.67547852 213.834375 -71.50830078 212.71875 C-67.4895798 186.57264045 -61.16681492 160.77796483 -54.3125 135.25 C-54.08456757 134.39940002 -53.85663513 133.54880005 -53.62179565 132.67242432 C-43.43564272 94.80611854 -30.41462824 57.58698082 -13.625 22.125 C-13.1616626 21.13959229 -12.6983252 20.15418457 -12.22094727 19.13891602 C-8.98151192 12.47118896 -5.29637958 5.29637958 0 0 Z " fill="#00BF63" transform="translate(539,716)"/>
</svg>