<?xml version="1.0" encoding="UTF-8"?>
<svg xmlns="http://www.w3.org/2000/svg" version="1.1" width="2000" height="409" style="background: transparent;">

<path d="M0 0 C10.47600276 8.71915757 16.08042435 30.31456682 17.71875 43.02734375 C18.73484819 57.37973071 19.38184084 72.14935365 15 86 C14.44892578 87.82724609 14.44892578 87.82724609 13.88671875 89.69140625 C10.05625242 101.45293062 3.54215295 111.58530421 -3 122 C-10.52963911 133.98508423 -10.52963911 133.98508423 -16 147 C-16.4125 148.2375 -16.825 149.475 -17.25 150.75 C-19.63034665 161.60350719 -18.56236633 172.32406973 -13 182 C-7.48048 188.67379224 -1.38849997 192.47895778 7.19140625 193.30859375 C19.2968043 193.74709884 28.94644143 190.78215854 38.52734375 183.32421875 C48.83948929 173.63112777 54.78768786 157.85775593 55.30297852 143.83496094 C55.33733827 141.9682436 55.36226649 140.10133438 55.37890625 138.234375 C55.39590073 137.23794983 55.4128952 136.24152466 55.43040466 135.21490479 C55.4831163 132.05999938 55.52365236 128.90510406 55.5625 125.75 C55.60655849 122.58067749 55.65331437 119.41145107 55.70530701 116.24224854 C55.73704523 114.27792673 55.76400151 112.31352021 55.78553772 110.34906006 C55.80577248 109.01176849 55.80577248 109.01176849 55.82641602 107.64746094 C55.83592789 106.86852478 55.84543976 106.08958862 55.85523987 105.28704834 C56.0133435 102.78918768 56.45953671 100.44131536 57 98 C58.49235021 100.73866639 59.31142628 103.10604042 59.8359375 106.171875 C60.92864015 111.36168216 63.08298197 115.6274982 65.625 120.25 C66.07085449 121.07991455 66.51670898 121.9098291 66.97607422 122.76489258 C69.54834602 127.50490718 72.2533478 132.12362418 75.125 136.6875 C79.63975785 143.87130306 83.36835214 151.3423327 87 159 C87.34643555 159.72477539 87.69287109 160.44955078 88.04980469 161.19628906 C110.10267566 207.66267686 130.83632272 263.74306888 114.9921875 315.27734375 C105.96196547 340.05712626 90.6046307 359.4747282 66.375 370.8125 C64.59108211 371.56042409 62.7990024 372.28912459 61 373 C59.44345703 373.64388672 59.44345703 373.64388672 57.85546875 374.30078125 C46.13533208 379.01386112 34.45298189 382.15215872 21.75390625 382.09765625 C21.09792953 382.0962413 20.44195282 382.09482635 19.76609802 382.09336853 C17.69818298 382.08783031 15.63038158 382.07529002 13.5625 382.0625 C12.14909012 382.05747699 10.73567852 382.0529155 9.32226562 382.04882812 C5.88147432 382.03788126 2.44074828 382.02066038 -1 382 C1.53935658 379.40934329 3.95293058 377.03479044 6.875 374.875 C15.63183828 367.62640893 20.31182982 355.27211771 22.8125 344.5 C23.72555962 327.45622052 22.31028104 313.20528856 10.8125 299.75 C-0.20676484 288.31320124 -14.58956745 281.37130752 -28.30859375 273.7109375 C-44.98331112 264.36344675 -60.29947833 253.35693492 -74 240 C-74.69867188 239.36320313 -75.39734375 238.72640625 -76.1171875 238.0703125 C-92.53745109 222.70516625 -105.85549818 198.83674248 -107.10668945 176.05761719 C-107.94822404 146.88888849 -98.32039902 120.72549963 -78.19458008 99.35620117 C-76.80073339 97.89996121 -75.40044492 96.44989566 -74 95 C-73.23171875 94.16855469 -72.4634375 93.33710937 -71.671875 92.48046875 C-64.82846221 85.27626379 -57.03106985 79.47403902 -49.08789062 73.55761719 C-44.00911321 69.76872571 -38.98990995 65.90514692 -34 62 C-33.27683594 61.44570312 -32.55367188 60.89140625 -31.80859375 60.3203125 C-13.81315754 45.70583704 -3.18653249 22.5987419 0 0 Z " fill="#FF3131" transform="translate(448,9)"/>
<path d="M0 0 C1.1260876 3.37826281 0.59755636 4.90615782 -0.33569336 8.24169922 C-2.81240316 17.27842455 -3.41830362 26.02264669 -3.4375 35.375 C-3.4470874 36.53829834 -3.4566748 37.70159668 -3.46655273 38.90014648 C-3.24167585 62.34231242 8.33466345 85.1752501 23 103 C23.44182617 103.54720703 23.88365234 104.09441406 24.33886719 104.65820312 C41.13279191 125.39057783 60.58589285 139.84313949 84.49633789 151.48583984 C101.29012533 159.74995221 113.30832505 169.63529656 120.3125 187.3125 C122.60674923 199.61801859 120.55199964 211.20673276 114.25 221.99609375 C112.58110844 224.41670586 110.85380728 226.71902908 109 229 C108.37351562 229.83273437 107.74703125 230.66546875 107.1015625 231.5234375 C100.79438548 238.95605874 91.92625033 243.46399745 83 247 C81.453125 247.61875 81.453125 247.61875 79.875 248.25 C63.28625181 252.57749953 41.98863923 252.07568291 26 246 C25.01 245.649375 24.02 245.29875 23 244.9375 C8.68557806 239.45538096 -3.22698655 231.80521977 -14 221 C-14.74894531 220.31035156 -15.49789062 219.62070312 -16.26953125 218.91015625 C-21.61583198 213.91141618 -25.3775463 208.33715305 -29 202 C-29.77150391 200.66195312 -29.77150391 200.66195312 -30.55859375 199.296875 C-37.56632925 186.26430716 -41.36049028 171.48881954 -44 157 C-44.17635986 156.15727539 -44.35271973 155.31455078 -44.53442383 154.44628906 C-45.14880022 149.89855066 -45.06412123 145.46061764 -44.9921875 140.87890625 C-44.97465126 138.87044793 -44.95774494 136.86198404 -44.94140625 134.85351562 C-44.91067009 131.72062317 -44.87538096 128.58801853 -44.82861328 125.45532227 C-44.67045551 114.25188787 -44.70046416 103.67580032 -47.34814453 92.74584961 C-48 90 -48 90 -48 87 C-36.37982404 94.96812066 -30.85228069 103.3091502 -27.16015625 116.87890625 C-25.90145989 120.26509612 -24.49843577 122.40312679 -22 125 C-17.778232 126.32907511 -15.83494057 126.39291321 -11.8125 124.5 C-7.77377865 120.91002546 -5.4398606 117.84562881 -4.6171875 112.5234375 C-4.25323557 104.10401611 -6.69631543 96.42307437 -10.5625 89 C-14.68834448 80.38954194 -15.50305418 71.2337348 -15.375 61.8125 C-15.36557373 60.72388672 -15.35614746 59.63527344 -15.34643555 58.51367188 C-14.99226744 39.40270442 -10.76747131 16.15120697 0 0 Z " fill="#FF3232" transform="translate(334,148)"/>
<path d="M0 0 C10.23 0 20.46 0 31 0 C39.51039505 9.34748309 39.51039505 9.34748309 41.38671875 13.65234375 C43.86510251 18.90440404 46.9371074 23.32329904 50.4375 27.9375 C51.5104816 29.40335139 52.5794513 30.87214729 53.64453125 32.34375 C54.45591553 33.46330078 54.45591553 33.46330078 55.28369141 34.60546875 C59.0588346 39.87241106 62.74169106 45.20566443 66.41967773 50.54077148 C67.25221069 51.74068726 67.25221069 51.74068726 68.1015625 52.96484375 C68.83366943 54.02626587 68.83366943 54.02626587 69.58056641 55.10913086 C70.93434937 56.91254487 72.36419246 58.45231167 74 60 C74.64324219 59.05382812 75.28648438 58.10765625 75.94921875 57.1328125 C81.49247882 49.00894365 87.14655392 40.9795905 92.93017578 33.02514648 C97.81769127 26.28906402 102.59018351 19.47551269 107.33129883 12.63574219 C107.88325928 11.84200195 108.43521973 11.04826172 109.00390625 10.23046875 C109.48674072 9.53332764 109.9695752 8.83618652 110.46704102 8.11791992 C112.22905858 5.68353508 114.12269675 3.34662906 116 1 C125.9 1 135.8 1 146 1 C146 42.91 146 84.82 146 128 C134.12 128 122.24 128 110 128 C109.67 107.21 109.34 86.42 109 65 C99.81705241 78.25973632 99.81705241 78.25973632 91.75 92.1875 C88.3514871 96.90174688 85.97353146 98.33714805 80.27734375 99.5234375 C72.98713409 100.39601935 64.88019548 100.92653115 58.74511719 96.29931641 C55.47986574 92.72090145 53.17554154 88.80013828 50.94140625 84.5234375 C47.27148553 77.63197947 42.53814583 71.35340416 38 65 C37.67 85.79 37.34 106.58 37 128 C24.79 128 12.58 128 0 128 C0 85.76 0 43.52 0 0 Z " fill="#020202" transform="translate(1024,51)"/>
<path d="M0 0 C15.8709375 -0.12375 15.8709375 -0.12375 32.0625 -0.25 C35.371604 -0.28641602 38.68070801 -0.32283203 42.09008789 -0.36035156 C44.75927078 -0.37205122 47.42846089 -0.38224001 50.09765625 -0.390625 C51.10366127 -0.40630524 51.10366127 -0.40630524 52.12998962 -0.42230225 C67.68427383 -0.65207343 84.45883636 2.21849845 96.33984375 13.14453125 C104.58362628 22.35817055 108.58910638 32.4901767 108.4375 44.75 C108.42920166 45.62253418 108.42090332 46.49506836 108.41235352 47.39404297 C108.10813075 59.12340052 104.96084321 69.17518931 97 78 C94.12983231 80.54110388 91.16184202 82.83474764 88 85 C89.04080887 86.95878937 90.0827548 88.91697451 91.125 90.875 C91.46466797 91.51397217 91.80433594 92.15294434 92.15429688 92.8112793 C94.62981179 97.45819575 97.13264716 102.08960014 99.6484375 106.71484375 C100.61080359 108.48821522 101.57277966 110.26179766 102.53460693 112.03546143 C103.17882153 113.22129363 103.8245367 114.40631185 104.47174072 115.59051514 C105.39115813 117.27314481 106.30506532 118.95878178 107.21875 120.64453125 C107.75435547 121.62784424 108.28996094 122.61115723 108.84179688 123.62426758 C110 126 110 126 110 128 C96.47 128 82.94 128 69 128 C67.515 125.195 66.03 122.39 64.5 119.5 C64.00145508 118.57396973 63.50291016 117.64793945 62.98925781 116.69384766 C60.79799328 112.59666549 58.75092047 108.53617392 57.046875 104.2109375 C56.74072266 103.47810547 56.43457031 102.74527344 56.11914062 101.99023438 C55.5548184 100.61683893 55.03469092 99.22413731 54.56835938 97.81445312 C53.73688527 95.56018835 53.73688527 95.56018835 51 93 C44.07 92.505 44.07 92.505 37 92 C37 103.88 37 115.76 37 128 C24.79 128 12.58 128 0 128 C0 85.76 0 43.52 0 0 Z " fill="#010101" transform="translate(793,51)"/>
<path d="M0 0 C1.51815699 0.00015911 3.0363194 0.00585313 4.55444336 0.01586914 C5.35208603 0.01728409 6.1497287 0.01869904 6.97154236 0.02015686 C9.52916146 0.02577223 12.08669429 0.03832727 14.64428711 0.05102539 C16.37410356 0.05603841 18.10392137 0.06060166 19.83374023 0.06469727 C24.08312264 0.07574664 28.33244023 0.09302153 32.58178711 0.11352539 C35.35006262 5.4732499 37.73687236 10.81503449 39.83959961 16.46508789 C40.14004181 17.26072647 40.44048401 18.05636505 40.75003052 18.87611389 C41.3991497 20.59558786 42.04650531 22.31572844 42.69226074 24.03646851 C44.45504551 28.73141273 46.23312278 33.42055347 48.01147461 38.10961914 C48.38288574 39.08939224 48.75429687 40.06916534 49.13696289 41.07862854 C53.29126887 52.01634592 57.55672955 62.91006167 61.83178711 73.80102539 C62.59094384 75.73631159 63.35005874 77.6716142 64.10913086 79.60693359 C65.2165354 82.43017675 66.32397967 85.25340421 67.43170166 88.07652283 C70.60873536 96.17575388 73.77192498 104.28029197 76.91760254 112.39175415 C77.43918081 113.73621997 77.96138651 115.08044258 78.48425293 116.42440796 C79.1877014 118.23289362 79.8887305 120.0423198 80.58959961 121.85180664 C80.97776855 122.85252197 81.3659375 123.8532373 81.76586914 124.88427734 C82.58178711 127.11352539 82.58178711 127.11352539 82.58178711 128.11352539 C69.38178711 128.11352539 56.18178711 128.11352539 42.58178711 128.11352539 C36.58178711 112.11352539 36.58178711 112.11352539 36.58178711 110.11352539 C22.06178711 110.44352539 7.54178711 110.77352539 -7.41821289 111.11352539 C-9.39821289 116.39352539 -11.37821289 121.67352539 -13.41821289 127.11352539 C-14.41821289 128.11352539 -14.41821289 128.11352539 -18.11181641 128.22705078 C-19.75692581 128.22689163 -21.4020402 128.22119528 -23.04711914 128.21118164 C-24.34346535 128.20905922 -24.34346535 128.20905922 -25.66600037 128.20689392 C-28.43760581 128.20127778 -31.20913169 128.18872258 -33.98071289 128.17602539 C-35.85506069 128.17101247 -37.72940974 128.1664492 -39.60375977 128.16235352 C-44.20860833 128.15130311 -48.8133971 128.13402769 -53.41821289 128.11352539 C-49.35035917 116.28117891 -44.94989377 104.60652311 -40.3572998 92.96853638 C-38.38324793 87.96586883 -36.41889266 82.95939216 -34.45336914 77.95336914 C-34.04452484 76.9127684 -33.63568054 75.87216766 -33.21444702 74.80003357 C-28.0860893 61.73778128 -23.02457207 48.64958035 -17.96377563 35.56103516 C-10.48484525 16.21902068 -10.48484525 16.21902068 -6.93383789 7.26586914 C-6.46751953 6.08887451 -6.00120117 4.91187988 -5.52075195 3.69921875 C-4.00005287 0.13284941 -4.00005287 0.13284941 0 0 Z " fill="#020202" transform="translate(1232.418212890625,50.886474609375)"/>
<path d="M0 0 C0.7734375 0.24492187 1.546875 0.48984375 2.34375 0.7421875 C14.3773911 4.93910554 22.30820536 13.2635548 28.24609375 24.3203125 C34.2088319 36.8573517 34.96205315 51.69745439 31 65 C26.18536489 77.51805129 18.19449033 87.21221721 6 93 C5.28755127 93.3412793 4.57510254 93.68255859 3.84106445 94.03417969 C-2.53453882 96.86554402 -7.99812366 97.63947886 -14.9375 97.5 C-15.90389404 97.48791504 -16.87028809 97.47583008 -17.8659668 97.46337891 C-31.16501922 97.09286921 -39.6061825 91.79536313 -50 84 C-50.33 99.84 -50.66 115.68 -51 132 C-56.28 132 -61.56 132 -67 132 C-67 88.44 -67 44.88 -67 0 C-62.71 0 -58.42 0 -54 0 C-53.27562166 3.62189172 -52.88414407 6.23765264 -52.9375 9.8125 C-52.94652344 10.60269531 -52.95554687 11.39289063 -52.96484375 12.20703125 C-52.97644531 12.79871094 -52.98804688 13.39039063 -53 14 C-52.32195313 13.40832031 -51.64390625 12.81664062 -50.9453125 12.20703125 C-36.37624106 -0.16255434 -18.86621169 -6.50559024 0 0 Z " fill="#060606" transform="translate(845,266)"/>
<path d="M0 0 C28.71 0 57.42 0 87 0 C87 9.9 87 19.8 87 30 C70.17 30 53.34 30 36 30 C36 36.27 36 42.54 36 49 C51.18 49 66.36 49 82 49 C82 58.57 82 68.14 82 78 C66.82 78 51.64 78 36 78 C36 84.6 36 91.2 36 98 C53.49 98 70.98 98 89 98 C89 107.9 89 117.8 89 128 C59.63 128 30.26 128 0 128 C0 85.76 0 43.52 0 0 Z " fill="#000000" transform="translate(919,51)"/>
<path d="M0 0 C0.92039062 0.31839844 1.84078125 0.63679687 2.7890625 0.96484375 C16.47375235 6.10959424 24.64675322 14.46937196 30.8125 27.625 C36.29766262 43.21440955 35.08863931 59.16766559 28 74 C22.1564587 84.75783445 13.60844924 92.05923697 2 96 C-12.19847541 99.96023648 -27.76529471 99.85151847 -41 93 C-52.19943063 86.15118279 -60.29041426 75.88248001 -64.109375 63.36328125 C-67.6855406 48.25389315 -65.58173905 32.52997837 -57.8125 19.25 C-50.79309868 8.91422899 -40.84688179 1.94933393 -28.75 -1.375 C-19.55585655 -3.022214 -8.83894688 -3.09363141 0 0 Z " fill="#FDFDFD" transform="translate(714,249)"/>
<path d="M0 0 C10.03159717 8.35377722 17.98144405 19.41831264 19.3125 32.75 C20.30698614 47.77578147 17.22805476 61.80925836 8.0625 74.0625 C-4.40576119 86.24739162 -17.78444101 90.04071983 -34.71801758 90.06689453 C-41.73312714 89.96827024 -47.43644112 89.10473493 -53.6875 85.75 C-54.97140625 85.09644531 -54.97140625 85.09644531 -56.28125 84.4296875 C-68.20663993 77.8563551 -74.93691681 68.33188661 -79.6875 55.75 C-82.5281126 43.93671536 -82.56232223 28.51747603 -76.6875 17.75 C-76.24019531 16.88375 -75.79289062 16.0175 -75.33203125 15.125 C-68.89093078 3.52065814 -59.14901552 -4.10986023 -46.4375 -8.1875 C-31.03050751 -11.79955902 -12.84253555 -9.55571713 0 0 Z " fill="#040404" transform="translate(1307.6875,273.25)"/>
<path d="M0 0 C28.05 0 56.1 0 85 0 C85 10.89 85 21.78 85 33 C69.16 33 53.32 33 37 33 C37 41.25 37 49.5 37 58 C51.19 58 65.38 58 80 58 C80 68.56 80 79.12 80 90 C65.81 90 51.62 90 37 90 C37 102.54 37 115.08 37 128 C24.79 128 12.58 128 0 128 C0 85.76 0 43.52 0 0 Z " fill="#030303" transform="translate(635,51)"/>
<path d="M0 0 C12.21 0 24.42 0 37 0 C37 31.02 37 62.04 37 94 C54.16 94 71.32 94 89 94 C89 105.22 89 116.44 89 128 C59.63 128 30.26 128 0 128 C0 85.76 0 43.52 0 0 Z " fill="#010101" transform="translate(1382,51)"/>
<path d="M0 0 C10.76972015 8.25678545 16.06219214 20.63392866 18.75 33.625 C19.07940213 38.07192869 19 42.54088792 19 47 C-8.06 47 -35.12 47 -63 47 C-57.72529784 62.75692061 -57.72529784 62.75692061 -45.75 71.9375 C-36.72879089 76.06988616 -26.55497757 76.55284327 -17.0625 73.4375 C-11.38156991 71.05845178 -5.78312801 67.34114352 -2.82421875 61.796875 C-0.63772065 59.64315096 0.03021056 59.71069162 3.01171875 59.609375 C4.57079139 59.63591241 6.12961831 59.68354401 7.6875 59.75 C8.48478516 59.76804687 9.28207031 59.78609375 10.10351562 59.8046875 C12.06952449 59.85177753 14.03491494 59.92352101 16 60 C12.84224537 70.64788759 4.38905573 79.47182997 -5.25390625 84.796875 C-18.00418284 90.88915733 -33.87855188 92.62587091 -47.625 88.4375 C-59.03696735 83.84056667 -68.51589435 75.73896847 -73.8125 64.5625 C-74.5673808 62.71865265 -75.29780244 60.8645473 -76 59 C-76.47953125 57.81470703 -76.47953125 57.81470703 -76.96875 56.60546875 C-81.36566705 44.330742 -79.83712239 29.84863679 -74.7109375 18.02734375 C-68.98056332 6.88835437 -61.11853432 -1.51350158 -49.2109375 -6.06640625 C-46.81759121 -6.79711817 -44.43713433 -7.43524516 -42 -8 C-41.38253906 -8.18433594 -40.76507812 -8.36867188 -40.12890625 -8.55859375 C-25.72679164 -11.54472027 -12.20243304 -7.3826176 0 0 Z " fill="#060606" transform="translate(1683,273)"/>
<path d="M0 0 C0.80695313 0.25652344 1.61390625 0.51304687 2.4453125 0.77734375 C14.75073821 5.16138685 23.22062215 13.82715878 28.8125 25.5 C33.003717 35.46792728 33 42.57769124 33 54 C6.27 54 -20.46 54 -48 54 C-44.53848404 65.53838653 -41.21908328 73.17933549 -30.85546875 79.2578125 C-22.82336978 83.06739841 -13.59907502 83.44207451 -5.02734375 81.234375 C2.52120328 78.365244 9.27392415 74.45215171 13 67 C18.94 67 24.88 67 31 67 C26.82327928 77.44180179 20.06663878 86.30014199 9.93359375 91.60546875 C6.97836421 92.8667119 4.05188849 93.99614236 1 95 C-0.06605469 95.36351562 -1.13210938 95.72703125 -2.23046875 96.1015625 C-15.93553028 99.36805385 -30.28728386 97.96193706 -42.31640625 90.578125 C-44.33328744 89.15444416 -46.16023738 87.6443896 -48 86 C-48.90492188 85.24976563 -48.90492188 85.24976563 -49.828125 84.484375 C-59.48518807 75.83500547 -63.33391582 62.84411767 -64.28125 50.265625 C-64.64605134 35.36957046 -61.0467812 22.39766621 -50.8125 11.1875 C-37.06966491 -1.41523442 -17.7866445 -5.87294866 0 0 Z " fill="#060606" transform="translate(947,266)"/>
<path d="M0 0 C13.48273036 10.86209242 22.93343401 25.6475497 24.96044922 43.1171875 C25.13158247 46.60929795 25.16868079 50.06658883 25.125 53.5625 C25.11621826 54.78759277 25.10743652 56.01268555 25.09838867 57.27490234 C24.88660555 66.68706924 23.58032472 74.17060694 19.5625 82.6875 C19.21316406 83.57566406 18.86382813 84.46382813 18.50390625 85.37890625 C12.84222935 98.63096317 0.78401492 108.35384427 -11.875 114.4375 C-12.48375977 114.73180908 -13.09251953 115.02611816 -13.71972656 115.3293457 C-22.07049599 119.1554882 -30.13208676 120.03024873 -39.25 119.9375 C-40.22050293 119.93000732 -41.19100586 119.92251465 -42.19091797 119.91479492 C-58.54534637 119.66957439 -71.39218641 115.79366149 -84.4375 105.6875 C-85.67693359 104.76130859 -85.67693359 104.76130859 -86.94140625 103.81640625 C-95.05973289 96.89232484 -99.9877211 87.62135238 -103.4375 77.6875 C-103.69499023 77.07648438 -103.95248047 76.46546875 -104.21777344 75.8359375 C-107.01295452 68.69675917 -106.97431341 61.65361298 -106.9375 54.0625 C-106.93606995 53.39553101 -106.93463989 52.72856201 -106.9331665 52.04138184 C-106.87865713 41.79546745 -106.14977185 32.9749141 -101.4375 23.6875 C-100.76847656 22.32431641 -100.76847656 22.32431641 -100.0859375 20.93359375 C-91.77541465 5.72858685 -77.72486948 -5.29877572 -61.23046875 -10.28125 C-40.41108518 -15.42066354 -17.59834935 -12.69389134 0 0 Z M-78.84765625 18.6171875 C-87.15866206 29.4398732 -90.98343177 40.12691307 -90.8125 53.6875 C-90.82410156 54.60789062 -90.83570313 55.52828125 -90.84765625 56.4765625 C-90.79299686 69.41261826 -86.06112377 81.20703425 -77.0625 90.5625 C-65.37208639 101.47484948 -52.94954106 104.51992168 -37.23046875 104.0078125 C-22.67603574 103.21585079 -11.23764085 97.47098832 -1.4375 86.6875 C7.62958489 73.29640614 10.36480401 58.41054439 8.1015625 42.43359375 C5.47012193 30.56115306 -0.56936397 19.67473195 -10.5625 12.5625 C-31.54280778 -0.67887868 -61.22140617 -0.60361332 -78.84765625 18.6171875 Z " fill="#030303" transform="translate(739.4375,243.3125)"/>
<path d="M0 0 C6.20464052 4.8106464 10.46655721 12.2275595 12.8984375 19.625 C13.14743892 23.31520108 12.98770787 26.9202795 12.8984375 30.625 C7.9484375 30.625 2.9984375 30.625 -2.1015625 30.625 C-2.4728125 29.14 -2.8440625 27.655 -3.2265625 26.125 C-5.08133786 20.03443532 -7.71004098 14.91926456 -13.09375 11.27734375 C-19.88842173 7.70052599 -26.36316364 7.41944974 -33.9140625 7.375 C-34.77837891 7.354375 -35.64269531 7.33375 -36.53320312 7.3125 C-44.7955953 7.26261386 -51.56490367 9.30446374 -58.1015625 14.625 C-61.45228194 19.42769786 -61.81650852 23.95649943 -61.1015625 29.625 C-59.23568917 35.57247125 -55.31820002 38.57782126 -50.1015625 41.625 C-42.68817465 45.21419066 -35.00748587 47.21587536 -27.0390625 49.125 C-11.43711121 52.87185095 4.14866332 58.50231249 13.14453125 72.57421875 C17.15727002 80.08595464 16.9643842 88.46182069 15.2734375 96.65234375 C12.42433311 105.72114476 7.19654967 112.09944035 -1.17431641 116.63964844 C-15.6586251 124.05643073 -34.66258392 125.45089377 -50.3515625 121.0625 C-62.25337918 116.58754254 -71.98928272 109.28562124 -77.32421875 97.5625 C-79.61835331 91.84445608 -80.1015625 87.92687784 -80.1015625 81.625 C-74.8215625 81.625 -69.5415625 81.625 -64.1015625 81.625 C-63.6890625 83.15125 -63.2765625 84.6775 -62.8515625 86.25 C-60.41566486 94.30895108 -56.55618857 99.10716787 -49.2265625 103.25 C-38.17053621 108.11465157 -25.18775596 108.54218206 -13.7890625 104.5 C-8.82653018 102.29721138 -5.92283752 100.25995182 -3.1015625 95.625 C-1.1864369 89.87962321 -1.13790463 83.7932302 -3.6015625 78.25 C-11.66724806 69.78103016 -22.75597206 66.87968061 -33.7890625 64.25 C-49.17854641 60.54612903 -65.85652768 55.50780807 -75.1015625 41.625 C-79.25671381 34.14572764 -79.2252882 24.98732373 -78.1015625 16.625 C-75.22735277 7.43209109 -69.3853473 1.17954939 -61.265625 -3.7265625 C-42.1543447 -13.6833036 -17.78044237 -11.63330058 0 0 Z " fill="#040404" transform="translate(1204.1015625,240.375)"/>
<path d="M0 0 C12.21 0 24.42 0 37 0 C37 42.24 37 84.48 37 128 C24.79 128 12.58 128 0 128 C0 85.76 0 43.52 0 0 Z " fill="#020202" transform="translate(1324,51)"/>
<path d="M0 0 C11.88 0 23.76 0 36 0 C36 41.91 36 83.82 36 127 C24.12 127 12.24 127 0 127 C0 85.09 0 43.18 0 0 Z " fill="#000000" transform="translate(735,52)"/>
<path d="M0 0 C0.83893799 0.00757324 1.67787598 0.01514648 2.54223633 0.02294922 C8.64658179 0.18598564 13.42959552 0.94668996 18.5625 4.4375 C19.2534375 4.86160156 19.944375 5.28570312 20.65625 5.72265625 C27.74766682 10.47231789 32.41057517 17.18193385 34.5625 25.4375 C35.89101761 38.14866181 35.14904394 49.06037159 26.9375 59.25 C20.94243312 65.5930951 13.45043973 69.17573598 4.76953125 69.640625 C-6.74540869 69.84886834 -15.17023973 69.12605177 -24.359375 61.52734375 C-31.78339424 54.06145974 -34.71055545 45.0131493 -34.8125 34.625 C-34.76679806 24.17609328 -31.57041676 16.10068155 -24.4375 8.4375 C-17.33499609 2.02017882 -9.37211524 -0.11840835 0 0 Z " fill="#FDFDFD" transform="translate(1276.4375,278.5625)"/>
<path d="M0 0 C7.82555687 5.07874349 14.2319325 11.36515376 16.734375 20.58984375 C18.67787588 34.10000518 17.92332276 45.2872671 9.56640625 56.4921875 C3.9923672 62.80673898 -3.10225591 66.25475535 -11.48046875 66.796875 C-13.14930477 66.84533455 -14.81878158 66.87519264 -16.48828125 66.88671875 C-17.27557617 66.8930835 -18.06287109 66.89944824 -18.87402344 66.90600586 C-28.1680475 66.70535265 -36.13332035 63.88950797 -42.86328125 57.38671875 C-50.36109435 48.53183541 -52.76357053 38.81220814 -51.86328125 27.38671875 C-50.95701238 17.80616207 -47.03416569 11.12549757 -40.05078125 4.57421875 C-29.26951393 -4.07493227 -12.74399019 -6.33863387 0 0 Z " fill="#FDFDFD" transform="translate(844.86328125,281.61328125)"/>
<path d="M0 0 C8.68072677 7.13266383 13.86623225 16.5730626 15.20114136 27.69946289 C15.64305576 33.16944398 15.526173 38.66061171 15.50390625 44.14453125 C15.50203772 45.47831163 15.50061587 46.81209271 15.49961853 48.14587402 C15.4958276 51.63104192 15.48602715 55.11616715 15.47491455 58.60131836 C15.46462623 62.16780012 15.46010511 65.73428888 15.45507812 69.30078125 C15.4444013 76.27996705 15.42683283 83.2591177 15.40625 90.23828125 C10.45625 90.23828125 5.50625 90.23828125 0.40625 90.23828125 C0.3969043 88.50860107 0.38755859 86.7789209 0.37792969 84.99682617 C0.34221149 79.24111149 0.28829393 73.48571663 0.22234726 67.73028088 C0.18306731 64.24538147 0.15078481 60.76072735 0.13525391 57.27563477 C0.11702006 53.25627362 0.06698539 49.23782545 0.015625 45.21875 C0.01439636 43.98497116 0.01316772 42.75119232 0.01190186 41.48002625 C-0.15316461 31.5988423 -1.77308256 22.00865725 -8.9296875 14.67578125 C-15.46748945 9.02810257 -22.24668257 8.40374696 -30.67578125 8.796875 C-39.21604391 9.75903819 -44.87867742 13.5497141 -50.19140625 20.1875 C-54.36580858 26.29212736 -55.68349698 32.63226871 -55.79907227 39.9465332 C-55.81901749 41.06731766 -55.83896271 42.18810211 -55.85951233 43.34284973 C-55.87622482 44.54197495 -55.89293732 45.74110016 -55.91015625 46.9765625 C-55.93093735 48.21246628 -55.95171844 49.44837006 -55.97312927 50.72172546 C-56.02734931 53.99480251 -56.07762578 57.26790865 -56.12597656 60.54107666 C-56.1763657 63.88616385 -56.23203816 67.23115849 -56.28710938 70.57617188 C-56.39410946 77.13014104 -56.49542736 83.68417639 -56.59375 90.23828125 C-61.87375 90.23828125 -67.15375 90.23828125 -72.59375 90.23828125 C-72.59375 58.88828125 -72.59375 27.53828125 -72.59375 -4.76171875 C-68.30375 -4.76171875 -64.01375 -4.76171875 -59.59375 -4.76171875 C-58.93375 -1.13171875 -58.27375 2.49828125 -57.59375 6.23828125 C-54.75180402 6.23828125 -54.00738232 4.92132704 -51.96875 2.98828125 C-37.70058193 -9.76035268 -15.75099563 -10.69834191 0 0 Z " fill="#060606" transform="translate(1064.59375,270.76171875)"/>
<path d="M0 0 C9.70986501 6.34023149 18.15788025 15.66022465 20.7578125 27.22265625 C20.88027344 27.9496875 21.00273438 28.67671875 21.12890625 29.42578125 C10.075117 30.7394969 10.075117 30.7394969 5.12890625 29.42578125 C2.52925009 26.90103043 1.28984305 24.50073903 -0.3046875 21.26171875 C-3.74112169 15.04014463 -11.26201292 11.53569913 -17.87109375 9.42578125 C-27.50491215 7.8571657 -36.97331397 8.65733931 -45.44921875 13.65625 C-52.25327064 18.62759759 -57.33307706 26.03260445 -58.87109375 34.42578125 C-59.59165297 46.98013994 -59.19584183 57.42040853 -50.76171875 67.44921875 C-45.04623509 73.42449712 -39.44129377 76.02142199 -31.07421875 76.76171875 C-20.31506158 76.86803453 -10.60856578 75.95336915 -2.37109375 68.2109375 C0.37590513 64.94172269 2.27631898 61.2534409 4.12890625 57.42578125 C4.62390625 56.43578125 4.62390625 56.43578125 5.12890625 55.42578125 C10.40890625 55.42578125 15.68890625 55.42578125 21.12890625 55.42578125 C19.47584241 66.62988061 13.16297015 76.55235222 4.12890625 83.42578125 C-10.09180941 91.84178374 -24.86775169 94.95084884 -41.23046875 91.7734375 C-43.9472274 90.85869073 -46.34805904 89.78402837 -48.87109375 88.42578125 C-49.80179688 87.93980469 -50.7325 87.45382812 -51.69140625 86.953125 C-63.77143595 79.99147301 -70.38868524 69.26862713 -74.22729492 56.18164062 C-75.27982646 51.67615104 -75.40333807 47.28753501 -75.37109375 42.67578125 C-75.36537354 41.71712158 -75.35965332 40.75846191 -75.35375977 39.77075195 C-74.98252914 24.90527788 -69.23664093 14.37428908 -58.62109375 4.17578125 C-42.11999085 -9.95997584 -18.45117591 -10.1167672 0 0 Z " fill="#050505" transform="translate(1577.87109375,270.57421875)"/>
<path d="M0 0 C4.95 0 9.9 0 15 0 C15.01458252 1.70986084 15.02916504 3.41972168 15.04418945 5.18139648 C15.09605215 10.86125848 15.16139358 16.54086106 15.23571491 22.22047329 C15.28024578 25.66054838 15.31953845 29.10050975 15.34643555 32.54077148 C15.37766967 36.50529653 15.43245104 40.46933596 15.48828125 44.43359375 C15.49467117 45.65582138 15.5010611 46.87804901 15.50764465 48.13731384 C15.62387437 54.95181711 16.26728006 60.7250352 19 67 C19.27487747 67.63187729 19.54975494 68.26375458 19.83296204 68.91477966 C22.21216405 73.67615279 25.45277324 76.44680075 30 79 C36.76450934 81.25483645 46.00165458 81.16256239 52.875 79.1640625 C60.69797027 75.11676191 66.19788816 68.25066264 69 60 C69.84751642 56.41825433 70.14615656 53.06027063 70.20532227 49.38354492 C70.22526749 48.28278122 70.24521271 47.18201752 70.26576233 46.04789734 C70.28247482 44.8706459 70.29918732 43.69339447 70.31640625 42.48046875 C70.3475779 40.65990715 70.3475779 40.65990715 70.37937927 38.80256653 C70.44468916 34.93093449 70.50367363 31.05923545 70.5625 27.1875 C70.60570285 24.56053998 70.64931771 21.93358671 70.69335938 19.30664062 C70.80035162 12.87116218 70.9016715 6.43561642 71 0 C75.95 0 80.9 0 86 0 C86 31.02 86 62.04 86 94 C82.04 94 78.08 94 74 94 C72.67770811 91.35541621 72.90322806 89.32238699 72.9375 86.375 C72.94652344 85.37210937 72.95554687 84.36921875 72.96484375 83.3359375 C72.97644531 82.56507813 72.98804688 81.79421875 73 81 C72.5153125 81.44730469 72.030625 81.89460938 71.53125 82.35546875 C61.84008362 91.09615535 52.56075964 96.60091651 39.25 96.5 C37.93273926 96.49141968 37.93273926 96.49141968 36.58886719 96.48266602 C26.33258627 96.20217657 18.14239233 93.03586152 10.6796875 85.8828125 C2.96773234 77.2382488 -0.13692042 67.09100549 -0.11352539 55.62744141 C-0.11344986 54.38660797 -0.11337433 53.14577454 -0.11329651 51.86734009 C-0.10819113 50.52874714 -0.10297515 49.19015461 -0.09765625 47.8515625 C-0.09578906 46.47008312 -0.09436658 45.08860308 -0.09336853 43.7071228 C-0.08956702 40.08711897 -0.07975716 36.46715583 -0.06866455 32.84716797 C-0.05839935 29.14681549 -0.05386 25.44645639 -0.04882812 21.74609375 C-0.03813257 14.49737521 -0.02055516 7.24869851 0 0 Z " fill="#020202" transform="translate(1338,267)"/>
<path d="M0 0 C4.29 0 8.58 0 13 0 C13.48828125 3.05989583 13.9765625 6.11979167 14.46484375 9.1796875 C14.85551159 11.93821546 14.85551159 11.93821546 16 14 C16.474375 13.29875 16.94875 12.5975 17.4375 11.875 C23.51756003 5.05346923 30.9818851 1.28987707 40 0 C45.34771334 -0.3016202 50.64154083 -0.13739639 56 0 C56 4.95 56 9.9 56 15 C54.74445313 15.01417969 53.48890625 15.02835937 52.1953125 15.04296875 C41.08775693 15.3025481 31.93074893 15.7962873 23.625 24 C17.22284685 32.64657299 16.40208237 43.69287214 16.390625 54.08203125 C16.37408875 55.26222336 16.35755249 56.44241547 16.34051514 57.65837097 C16.29247024 61.3764692 16.27076071 65.09415981 16.25 68.8125 C16.22180402 71.35483774 16.1918716 73.89715685 16.16015625 76.43945312 C16.08672285 82.62626845 16.03688308 88.81286322 16 95 C10.72 95 5.44 95 0 95 C0 63.65 0 32.3 0 0 Z " fill="#0A0A0A" transform="translate(1444,266)"/>
<path d="M0 0 C0.6084375 0.43441406 1.216875 0.86882812 1.84375 1.31640625 C2.5346875 1.80238281 3.225625 2.28835938 3.9375 2.7890625 C11.171908 8.49830612 15.33461963 15.26162404 16.84375 24.31640625 C-4.93625 24.31640625 -26.71625 24.31640625 -49.15625 24.31640625 C-47.86499277 15.27760561 -44.43774068 8.17599705 -37.02734375 2.56640625 C-36.40988281 2.15390625 -35.79242187 1.74140625 -35.15625 1.31640625 C-34.56972656 0.90390625 -33.98320313 0.49140625 -33.37890625 0.06640625 C-24.60816413 -4.93552193 -8.78963209 -5.00520716 0 0 Z " fill="#FCFCFC" transform="translate(948.15625,281.68359375)"/>
<path d="M0 0 C7.15868853 5.77033681 8.67945901 11.21381554 10.6875 20.25 C-11.0925 20.25 -32.8725 20.25 -55.3125 20.25 C-54.02348926 12.51593557 -51.30852147 5.6232463 -45.3125 0.25 C-31.25399477 -9.65591045 -14.21405172 -9.65184217 0 0 Z " fill="#FCFCFC" transform="translate(1675.3125,285.75)"/>
<path d="M0 0 C3.444375 -0.0825 6.88875 -0.165 10.4375 -0.25 C12.03742798 -0.30462402 12.03742798 -0.30462402 13.66967773 -0.36035156 C20.21927312 -0.43548801 25.37044493 0.5323336 31 4 C34.62375954 7.62375954 35.26239158 10.53634987 35.4375 15.5 C35.25353875 20.01931479 34.66613944 23.23063045 32 27 C27.59286835 30.97716758 25.20614916 32.12730378 19.3359375 32.09765625 C18.3257959 32.09515869 17.3156543 32.09266113 16.27490234 32.09008789 C14.98793457 32.08098389 13.7009668 32.07187988 12.375 32.0625 C6.249375 32.0315625 6.249375 32.0315625 0 32 C0 21.44 0 10.88 0 0 Z " fill="#FAFAFA" transform="translate(829,81)"/>
<path d="M0 0 C0.66 0 1.32 0 2 0 C3.857523 5.06980655 5.70876512 10.14184496 7.55419922 15.21606445 C8.18300607 16.94228046 8.81353105 18.66787161 9.44580078 20.39282227 C10.35380185 22.8709382 11.25562011 25.35122842 12.15625 27.83203125 C12.44060913 28.60400345 12.72496826 29.37597565 13.01794434 30.17134094 C14.12596397 33.23873836 15 35.71206119 15 39 C5.76 39 -3.48 39 -13 39 C-12.09931621 34.49658106 -10.8191204 30.37558343 -9.27734375 26.07421875 C-9.01240616 25.32662796 -8.74746857 24.57903717 -8.47450256 23.80879211 C-7.63203514 21.433877 -6.78484098 19.0606801 -5.9375 16.6875 C-5.36361894 15.07237693 -4.79004781 13.4571437 -4.21679688 11.84179688 C-2.81478382 7.89324655 -1.4085307 3.9462298 0 0 Z " fill="#F6F6F6" transform="translate(1246,95)"/>
<path d="M0 0 C1.09898702 3.29696105 0.87124444 4.40494903 0.0625 7.6875 C-0.22947266 8.89986328 -0.22947266 8.89986328 -0.52734375 10.13671875 C-0.68332031 10.75160156 -0.83929688 11.36648437 -1 12 C-1.99 11.34 -2.98 10.68 -4 10 C-2.99806563 6.20696275 -2.18975773 3.28463659 0 0 Z " fill="#FF5555" transform="translate(334,148)"/>
</svg>