<?xml version="1.0" encoding="UTF-8"?>
<svg version="1.1" xmlns="http://www.w3.org/2000/svg" width="500" height="500">
<path d="M0 0 C5.12628989 1.7087633 6.61695862 6.36231386 9 11 C18.91799024 31.8268908 24.39162417 51.84793861 24.25 75.0625 C24.25773438 76.33416016 24.26546875 77.60582031 24.2734375 78.91601562 C24.24921313 90.71933886 22.58553123 101.34926948 18.75 112.5 C18.44425049 113.40419678 18.13850098 114.30839355 17.82348633 115.23999023 C15.42291955 122.16496459 12.55494725 128.5834853 9 135 C8.3270388 136.33016745 7.65800284 137.66236982 7 139 C6.34 139 5.68 139 5 139 C4.88301758 139.5772583 4.76603516 140.1545166 4.64550781 140.74926758 C3.95428333 143.15940318 3.00160189 144.89098132 1.671875 147.01171875 C1.20136719 147.77033203 0.73085938 148.52894531 0.24609375 149.31054688 C-0.24761719 150.09494141 -0.74132812 150.87933594 -1.25 151.6875 C-13.00499576 170.49232475 -25.70603222 191.20774192 -20.7578125 214.3203125 C-18.80620901 221.22134339 -16.14026458 226.38779228 -11.171875 231.58984375 C-10 233 -10 233 -10 235 C-8.02 235.66 -6.04 236.32 -4 237 C-4 237.66 -4 238.32 -4 239 C-3.01 239.185625 -3.01 239.185625 -2 239.375 C1 240 1 240 4.625 241.0625 C17.6309312 244.28348108 28.99283972 240.37484004 40.46875 234.3046875 C43 233 43 233 46 232 C46 231.34 46 230.68 46 230 C47.45578183 228.80148996 48.91343232 227.60513887 50.3828125 226.42333984 C63.06086704 215.26496756 68.16918669 193.9977258 69.19920349 177.88354492 C69.29015269 174.65187242 69.32829068 171.42430626 69.34375 168.19140625 C69.3656842 166.43678322 69.3656842 166.43678322 69.38806152 164.64671326 C69.44979668 159.69434993 69.49007968 154.74187326 69.53173828 149.78930664 C69.56544655 146.15237385 69.6105253 142.51570458 69.65625 138.87890625 C69.6615271 137.76117325 69.6668042 136.64344025 69.67224121 135.49183655 C69.68565552 134.4498259 69.69906982 133.40781525 69.71289062 132.33422852 C69.72018188 131.42222183 69.72747314 130.51021515 69.73498535 129.5705719 C70.02585811 126.74918315 70.83368076 124.57313293 72 122 C73.94814577 124.92221865 74.31069219 126.05534836 74.8125 129.375 C76.63328226 139.05760956 80.45550845 147.77636293 85.86328125 155.9765625 C87 158 87 158 87 161 C87.66 161 88.32 161 89 161 C89.81837442 162.41328129 90.62946219 163.83078346 91.4375 165.25 C91.88996094 166.03890625 92.34242188 166.8278125 92.80859375 167.640625 C93.89311602 169.78833468 94.53148716 171.65205061 95 174 C95.66 174 96.32 174 97 174 C105.35829875 189.25438922 112.83534555 204.82815748 118.89453125 221.14453125 C119.96605924 223.91232969 121.16695287 226.56862451 122.4375 229.25 C124.96526324 234.67233124 126.93022304 240.24255874 128.85717773 245.89941406 C129.93589156 249.05320251 131.04592753 252.103241 132.40234375 255.15234375 C134.90102157 260.85690289 136.59819233 266.8718837 138.4375 272.8125 C138.63731476 273.45628601 138.83712952 274.10007202 139.04299927 274.7633667 C142.23573175 285.08639073 144.95798119 295.39062852 147 306 C147.19980469 306.91007812 147.39960938 307.82015625 147.60546875 308.7578125 C155.95980463 348.83349889 150.66879562 390.60468751 130 426 C129.34 426 128.68 426 128 426 C127.77699219 426.70253906 127.55398438 427.40507812 127.32421875 428.12890625 C125.70722835 431.6347704 123.43812214 434.16867813 120.8125 436.9375 C120.32144775 437.46311523 119.83039551 437.98873047 119.32446289 438.53027344 C115.75690086 442.30555804 112.1309257 445.8358867 108 449 C107.34 449 106.68 449 106 449 C106 449.66 106 450.32 106 451 C103.69921875 452.65625 103.69921875 452.65625 100.6875 454.5 C99.70136719 455.1084375 98.71523438 455.716875 97.69921875 456.34375 C96.36310547 457.16359375 96.36310547 457.16359375 95 458 C94.01 458.66 93.02 459.32 92 460 C91.01 460 90.02 460 89 460 C89 460.66 89 461.32 89 462 C87.37644845 462.75313038 85.75105306 463.50228585 84.125 464.25 C83.22007812 464.66765625 82.31515625 465.0853125 81.3828125 465.515625 C73.61614615 468.92363102 65.84882054 471.81068705 57.6875 474.125 C56.83994141 474.37636719 55.99238281 474.62773437 55.11914062 474.88671875 C42.93560306 478.37294448 31.13964697 479.30662366 18.5 479.1875 C17.15625064 479.18603799 15.81250015 479.1853838 14.46875 479.18554688 C3.851322 479.13738314 3.851322 479.13738314 -1 478 C-1 477.01 -1 476.02 -1 475 C0.32 474.67 1.64 474.34 3 474 C3 473.34 3 472.68 3 472 C4.64453125 470.4140625 4.64453125 470.4140625 6.8125 468.625 C9.06250857 466.76433718 10.90350285 465.13127297 12.63671875 462.7734375 C13.08660156 462.18820312 13.53648437 461.60296875 14 461 C14.66 461 15.32 461 16 461 C16.268125 460.29875 16.53625 459.5975 16.8125 458.875 C18.0681449 455.8350176 19.50235123 452.9272226 21 450 C21.66 450 22.32 450 23 450 C23.12246094 449.29101562 23.24492187 448.58203125 23.37109375 447.8515625 C24 445 24 445 24.97265625 442.3984375 C30.16397764 427.99670719 30.94018752 408.04010472 25.3203125 393.63671875 C19.4887425 381.99083191 11.78538036 372.34323769 1 365 C1 364.34 1 363.68 1 363 C-0.98 362.34 -2.96 361.68 -5 361 C-5 360.34 -5 359.68 -5 359 C-5.804375 358.773125 -6.60875 358.54625 -7.4375 358.3125 C-11.91285739 356.66368412 -15.88721318 354.39455588 -20 352 C-20 351.34 -20 350.68 -20 350 C-20.515625 349.896875 -21.03125 349.79375 -21.5625 349.6875 C-24.86026435 348.75736134 -27.86633332 347.38604488 -31 346 C-31 345.34 -31 344.68 -31 344 C-31.55042969 343.89300781 -32.10085937 343.78601563 -32.66796875 343.67578125 C-35.4753151 342.86226212 -37.76125156 341.61287926 -40.3125 340.1875 C-41.27414063 339.65253906 -42.23578125 339.11757813 -43.2265625 338.56640625 C-46.49134487 336.72249395 -49.75341775 334.87580308 -53 333 C-53 332.34 -53 331.68 -53 331 C-54.2684375 330.6596875 -54.2684375 330.6596875 -55.5625 330.3125 C-59.50386856 328.80761382 -62.88761859 326.87296745 -66 324 C-66 323.34 -66 322.68 -66 322 C-66.763125 321.71125 -67.52625 321.4225 -68.3125 321.125 C-71 320 -71 320 -74 318 C-74 317.34 -74 316.68 -74 316 C-75.65 315.34 -77.3 314.68 -79 314 C-79 313.34 -79 312.68 -79 312 C-79.61875 311.690625 -80.2375 311.38125 -80.875 311.0625 C-82.25 310.375 -83.625 309.6875 -85 309 C-85 308.34 -85 307.68 -85 307 C-85.66 307 -86.32 307 -87 307 C-87 306.34 -87 305.68 -87 305 C-87.66 305 -88.32 305 -89 305 C-89 304.34 -89 303.68 -89 303 C-89.66 303 -90.32 303 -91 303 C-91 302.34 -91 301.68 -91 301 C-91.639375 300.731875 -92.27875 300.46375 -92.9375 300.1875 C-95 299 -95 299 -96 296 C-96.66 296 -97.32 296 -98 296 C-98 295.34 -98 294.68 -98 294 C-98.66 294 -99.32 294 -100 294 C-101.7265625 292.1015625 -101.7265625 292.1015625 -103.625 289.625 C-104.25664062 288.81289063 -104.88828125 288.00078125 -105.5390625 287.1640625 C-107 285 -107 285 -107 283 C-107.66 283 -108.32 283 -109 283 C-109.66 281.02 -110.32 279.04 -111 277 C-111.66 277 -112.32 277 -113 277 C-114.54940252 274.79917874 -115.94627908 272.62447992 -117.3125 270.3125 C-117.71549316 269.63638672 -118.11848633 268.96027344 -118.53369141 268.26367188 C-121.57269515 263.03017208 -123.92006895 257.71624833 -125.9296875 252 C-126.9845202 248.90581775 -126.9845202 248.90581775 -128.53125 245.66015625 C-130.16848438 241.58013333 -130.94901133 237.7584503 -131.625 233.4375 C-131.74617187 232.70853516 -131.86734375 231.97957031 -131.9921875 231.22851562 C-132.22830404 229.80283369 -132.45949679 228.37632589 -132.68530273 226.94897461 C-132.95737652 225.26397458 -133.26274152 223.58441304 -133.57421875 221.90625 C-137.0696269 198.04768425 -129.51716917 173.63540182 -118 153 C-117.39929688 151.90945312 -116.79859375 150.81890625 -116.1796875 149.6953125 C-112.53704606 143.27576951 -108.75392352 136.66958689 -104 131 C-103.34 131 -102.68 131 -102 131 C-102 130.34 -102 129.68 -102 129 C-101.34 129 -100.68 129 -100 129 C-99.75121094 128.43539062 -99.50242188 127.87078125 -99.24609375 127.2890625 C-93.28883578 116.34563564 -80.54893494 105.50385462 -70 99 C-69.34 99 -68.68 99 -68 99 C-68 98.34 -68 97.68 -68 97 C-65.76246465 95.22356837 -63.52777227 93.56762068 -61.1875 91.9375 C-60.54490234 91.47794922 -59.90230469 91.01839844 -59.24023438 90.54492188 C-56.4570241 88.58081183 -54.26197136 87.08732379 -51 86 C-51 85.34 -51 84.68 -51 84 C-50.01 84 -49.02 84 -48 84 C-48 83.34 -48 82.68 -48 82 C-44.53846154 79 -44.53846154 79 -42 79 C-42 78.34 -42 77.68 -42 77 C-41.34 77 -40.68 77 -40 77 C-40 76.34 -40 75.68 -40 75 C-35.52941176 71 -35.52941176 71 -33 71 C-33 70.34 -33 69.68 -33 69 C-32.34 69 -31.68 69 -31 69 C-30.71125 68.401875 -30.4225 67.80375 -30.125 67.1875 C-29 65 -29 65 -27 62 C-26.34 62 -25.68 62 -25 62 C-24.5359375 61.071875 -24.5359375 61.071875 -24.0625 60.125 C-23.375 58.75 -22.6875 57.375 -22 56 C-21.34 56 -20.68 56 -20 56 C-19.62875 54.7315625 -19.62875 54.7315625 -19.25 53.4375 C-17.86026373 49.61572526 -16.08879162 46.48131937 -14 43 C-13.34 43 -12.68 43 -12 43 C-11.88269531 42.28714844 -11.76539063 41.57429688 -11.64453125 40.83984375 C-10.96708785 37.85498707 -9.93785642 35.35354329 -8.6875 32.5625 C-4.77131551 23.33392612 -1.75836629 13.9443783 -1.17578125 3.890625 C-1 2 -1 2 0 0 Z " fill="#FE3131" transform="translate(275,5)"/>
<path d="M0 0 C0.99 0 1.98 0 3 0 C2.7525 1.258125 2.505 2.51625 2.25 3.8125 C2.07210937 4.74320313 1.89421875 5.67390625 1.7109375 6.6328125 C1.20284045 9.03929412 0.61545185 11.42957975 -0.0234375 13.8046875 C-5.16920511 33.64971046 -5.86623743 57.503754 1 77 C1.37801758 78.10988281 1.37801758 78.10988281 1.76367188 79.2421875 C4.899623 88.29658834 8.53976952 96.6280794 13.71484375 104.71484375 C15 107 15 107 15 110 C15.66 110 16.32 110 17 110 C18.7265625 112.3359375 18.7265625 112.3359375 20.625 115.375 C21.25664062 116.37273437 21.88828125 117.37046875 22.5390625 118.3984375 C24 121 24 121 24 123 C24.66 123 25.32 123 26 123 C27.2890625 124.4609375 27.2890625 124.4609375 28.625 126.375 C29.07101563 127.00148438 29.51703125 127.62796875 29.9765625 128.2734375 C31 130 31 130 31 132 C31.66 132 32.32 132 33 132 C34.39053024 133.57633385 35.71172788 135.21404915 37 136.875 C42.13793938 143.29949932 47.59077097 149.81513951 54.29296875 154.65625 C54.85628906 155.0996875 55.41960937 155.543125 56 156 C56 156.66 56 157.32 56 158 C57.65 158.66 59.3 159.32 61 160 C61 160.66 61 161.32 61 162 C61.66 162 62.32 162 63 162 C63 162.66 63 163.32 63 164 C63.71542969 164.2578125 64.43085938 164.515625 65.16796875 164.78125 C68.17160111 166.07384765 70.63505372 167.6277709 73.3125 169.5 C74.63701172 170.41265625 74.63701172 170.41265625 75.98828125 171.34375 C76.65214844 171.8903125 77.31601563 172.436875 78 173 C78 173.66 78 174.32 78 175 C78.85851562 175.16822266 78.85851562 175.16822266 79.734375 175.33984375 C82.26191352 176.07631618 84.03522722 177.1414832 86.25 178.5625 C90.60245405 181.24289692 95.03976829 183.56869862 99.625 185.8125 C105.38106864 188.64106703 111.03493715 191.60534504 116.625 194.75 C117.27549316 195.11456299 117.92598633 195.47912598 118.59619141 195.85473633 C122.5143024 198.07832282 126.36297971 200.33658206 130 203 C130 203.66 130 204.32 130 205 C130.56976563 205.23976563 131.13953125 205.47953125 131.7265625 205.7265625 C140.31369411 210.53653656 145.34934323 220.23842375 149 229 C149.37382812 229.87140625 149.74765625 230.7428125 150.1328125 231.640625 C154.77022375 249.60537127 150.05323141 266.49888515 141.13671875 282.0859375 C140.57404297 283.03339844 140.57404297 283.03339844 140 284 C139.34 284 138.68 284 138 284 C137.62875 284.8353125 137.62875 284.8353125 137.25 285.6875 C135.77075182 288.42410913 134.06532561 290.67650869 132 293 C131.34 293 130.68 293 130 293 C130 293.66 130 294.32 130 295 C128.35 295.66 126.7 296.32 125 297 C125 297.66 125 298.32 125 299 C122 301 122 301 119 301 C119 301.66 119 302.32 119 303 C111.31345843 307.32146577 103.55066391 309.91283007 95 312 C94.09121094 312.22816406 93.18242187 312.45632813 92.24609375 312.69140625 C67.9297965 317.75287715 39.87464132 313.59944545 18 302 C16.72189453 301.38705078 16.72189453 301.38705078 15.41796875 300.76171875 C-0.31421636 293.18492207 -17.18046235 281.76077936 -27 267 C-27 266.34 -27 265.68 -27 265 C-27.66 265 -28.32 265 -29 265 C-30.515625 262.98046875 -30.515625 262.98046875 -32.25 260.1875 C-33.09304687 258.84751953 -33.09304687 258.84751953 -33.953125 257.48046875 C-34.64109489 256.32367064 -35.32252421 255.16297506 -36 254 C-36.46519043 253.2073877 -36.93038086 252.41477539 -37.40966797 251.59814453 C-41.27846239 244.78685209 -44.10786176 237.90757824 -46.625 230.5 C-46.99367188 229.46875 -47.36234375 228.4375 -47.7421875 227.375 C-48.92620897 223.93967011 -49.98415869 220.48878289 -51 217 C-51.18856567 216.37620453 -51.37713135 215.75240906 -51.57141113 215.10971069 C-56.48131356 198.27557309 -55.53774708 180.67160952 -55.5 163.3125 C-55.48833464 157.93434705 -55.49011016 152.55683733 -55.52406311 147.17876244 C-55.53099078 145.06728879 -55.51471249 142.95692088 -55.49694824 140.84553528 C-55.54134873 132.24376104 -56.73161185 124.65245106 -59.04382324 116.42619324 C-59.82661766 113.62126736 -60.47752459 110.86217757 -61 108 C-54.92413452 109.89870796 -49.18984501 114.22461765 -45 119 C-45 119.66 -45 120.32 -45 121 C-44.34 121 -43.68 121 -43 121 C-39.50513708 126.84318979 -36.94958863 132.48634549 -35 139 C-32.28083081 148.74822593 -32.28083081 148.74822593 -26.125 156.4375 C-23.1945486 157.21320772 -21.02873519 157.36344822 -18 157 C-14.78170896 155.07706482 -14.78170896 155.07706482 -12 153 C-11.34 153 -10.68 153 -10 153 C-9.690625 152.05125 -9.38125 151.1025 -9.0625 150.125 C-8 147 -8 147 -7 145 C-6.521661 137.04301472 -6.1267661 129.24359699 -9.34375 121.796875 C-10 120 -10 120 -10 116 C-10.66 116 -11.32 116 -12 116 C-17.73286353 100.86078757 -19.41557527 87.24521498 -19 71 C-18.97164062 69.85015625 -18.94328125 68.7003125 -18.9140625 67.515625 C-17.95038859 46.13124215 -12.51886867 17.71657616 0 0 Z " fill="#FE3231" transform="translate(133,179)"/>
<path d="M0 0 C0.99 0 1.98 0 3 0 C2.7525 1.258125 2.505 2.51625 2.25 3.8125 C2.07210937 4.74320313 1.89421875 5.67390625 1.7109375 6.6328125 C1.20284045 9.03929412 0.61545185 11.42957975 -0.0234375 13.8046875 C-4.95741694 32.83293415 -5.60224308 55.20321082 0.22265625 74.078125 C1 77 1 77 0 80 C-3.80167749 74.29748376 -4.28602017 67.72147407 -4 61 C-4.66 61 -5.32 61 -6 61 C-6 51.43 -6 41.86 -6 32 C-7.32 32 -8.64 32 -10 32 C-9.79375 32.61875 -9.5875 33.2375 -9.375 33.875 C-9.25125 34.57625 -9.1275 35.2775 -9 36 C-9.66 36.66 -10.32 37.32 -11 38 C-11.36526253 40.32854865 -11.69350684 42.66298962 -12 45 C-12.37125 46.216875 -12.7425 47.43375 -13.125 48.6875 C-13.98306998 51.93590778 -13.90593495 52.94246954 -13 56 C-13.66 56.66 -14.32 57.32 -15 58 C-16.9527144 66.52619696 -16.11376568 75.91370315 -16.0625 84.625 C-16.05747303 86.12109225 -16.05291225 87.61718613 -16.04882812 89.11328125 C-16.03792185 92.74222219 -16.02072382 96.37110027 -16 100 C-21.00416582 92.49375127 -19.22491835 79.79226275 -19 71 C-18.97164063 69.85015625 -18.94328125 68.7003125 -18.9140625 67.515625 C-17.95038859 46.13124215 -12.51886867 17.71657616 0 0 Z " fill="#EB4F4E" transform="translate(133,179)"/>
<path d="M0 0 C0.33 0.66 0.66 1.32 1 2 C0.36474424 3.67889021 -0.30686092 5.34416775 -1 7 C-1.12375 7.804375 -1.2475 8.60875 -1.375 9.4375 C-2.20359535 12.83474094 -4.01600155 15.14800223 -6 18 C-6.33 18.99 -6.66 19.98 -7 21 C-7.804375 21.78375 -8.60875 22.5675 -9.4375 23.375 C-12.39988871 26.07457954 -12.39988871 26.07457954 -14 31 C-6.08 31.66 1.84 32.32 10 33 C10 33.33 10 33.66 10 34 C5.81909587 34.02480683 1.63823128 34.04291049 -2.54272461 34.05493164 C-3.96363064 34.05994565 -5.38453156 34.06675852 -6.80541992 34.07543945 C-8.85336576 34.08763388 -10.9012431 34.09325772 -12.94921875 34.09765625 C-14.17987061 34.10289307 -15.41052246 34.10812988 -16.6784668 34.11352539 C-19.59219619 34.01393817 -22.17307326 33.67799322 -25 33 C-25 32.01 -25 31.02 -25 30 C-23.68 29.67 -22.36 29.34 -21 29 C-21 28.34 -21 27.68 -21 27 C-19.35546875 25.4140625 -19.35546875 25.4140625 -17.1875 23.625 C-14.93749143 21.76433718 -13.09649715 20.13127297 -11.36328125 17.7734375 C-10.91339844 17.18820312 -10.46351563 16.60296875 -10 16 C-9.34 16 -8.68 16 -8 16 C-7.731875 15.29875 -7.46375 14.5975 -7.1875 13.875 C-5.9318551 10.8350176 -4.49764877 7.9272226 -3 5 C-2.34 5 -1.68 5 -1 5 C-0.67 3.35 -0.34 1.7 0 0 Z " fill="#F45450" transform="translate(299,450)"/>
<path d="M0 0 C0.33 0 0.66 0 1 0 C1.01030746 0.78704819 1.02061493 1.57409637 1.03123474 2.38499451 C1.12904188 9.78698107 1.23153186 17.18888068 1.33933926 24.59072781 C1.39460294 28.39647405 1.44802829 32.20222792 1.49731445 36.00805664 C1.54490741 39.67799335 1.59724809 43.34783391 1.65294075 47.01765633 C1.67338737 48.42072227 1.69209657 49.8238146 1.70907402 51.2269268 C1.73306687 53.18576926 1.76370199 55.14452701 1.79467773 57.10327148 C1.81022202 58.22023911 1.8257663 59.33720673 1.84178162 60.48802185 C1.71819038 62.93861001 1.71819038 62.93861001 3 64 C3.13473032 65.62275181 3.23187418 67.24866204 3.3125 68.875 C3.73921866 73.98905901 4.94711155 78.15546233 6.82421875 82.90625 C8.23637929 86.62196811 9.40317207 90.38684829 10.5625 94.1875 C11.84650164 98.37953121 13.14373942 102.54274749 14.75 106.625 C15.91968153 109.78314013 16.58331578 112.66652622 17 116 C13.90543552 114.45271776 13.37347861 111.45655628 12.1875 108.375 C11.92469238 107.69985352 11.66188477 107.02470703 11.39111328 106.32910156 C1.96013094 81.821069 -0.58529234 60.09909874 -0.2746582 34.10028076 C-0.23310168 30.24467892 -0.21533683 26.38896626 -0.1953125 22.53320312 C-0.15292594 15.02184064 -0.08502544 7.5110141 0 0 Z " fill="#E55554" transform="translate(78,311)"/>
<path d="M0 0 C0.33 0 0.66 0 1 0 C0.65226572 6.63093294 0.03910346 12.053928 -3 18 C-3.66 18 -4.32 18 -5 18 C-5.04898438 19.00160156 -5.09796875 20.00320312 -5.1484375 21.03515625 C-5.22354079 22.37762759 -5.29908526 23.7200743 -5.375 25.0625 C-5.44460937 26.37347656 -5.51421875 27.68445313 -5.5859375 29.03515625 C-5.98957577 32.90018305 -6.90290912 36.28464181 -8 40 C-7.70955086 41.34332728 -7.39044206 42.68225804 -7 44 C-7.66 44.66 -8.32 45.32 -9 46 C-10.9527144 54.52619696 -10.11376568 63.91370315 -10.0625 72.625 C-10.05747303 74.12109225 -10.05291225 75.61718613 -10.04882812 77.11328125 C-10.03792185 80.74222219 -10.02072382 84.37110027 -10 88 C-15.00416582 80.49375127 -13.22491835 67.79226275 -13 59 C-12.97164063 57.85015625 -12.94328125 56.7003125 -12.9140625 55.515625 C-12.0719479 36.82870109 -7.31788904 17.21446278 0 0 Z " fill="#E56566" transform="translate(127,191)"/>
<path d="M0 0 C2.18479273 3.53645695 2.25762536 6.41943563 2.265625 10.53125 C2.26820313 11.81773438 2.27078125 13.10421875 2.2734375 14.4296875 C2.26924805 15.09967773 2.26505859 15.76966797 2.26074219 16.45996094 C2.25018182 18.46547145 2.26161724 20.47105901 2.2734375 22.4765625 C2.25108332 33.72071387 0.94397096 44.08458679 -2.625 54.75 C-2.85445313 55.45898438 -3.08390625 56.16796875 -3.3203125 56.8984375 C-3.87263538 58.60143306 -4.43514406 60.30112031 -5 62 C-5.33 62 -5.66 62 -6 62 C-6.31403105 55.87639451 -5.23443189 50.0497729 -2.9375 44.375 C-0.72993705 38.78250719 -0.81973872 32.60250066 -0.68359375 26.66015625 C-0.66281265 25.89319931 -0.64203156 25.12624237 -0.62062073 24.33604431 C-0.55579168 21.91161128 -0.49655379 19.48707987 -0.4375 17.0625 C-0.39425121 15.40819338 -0.35063501 13.75389633 -0.30664062 12.09960938 C-0.20017976 8.06650434 -0.09872938 4.03330141 0 0 Z " fill="#E25859" transform="translate(297,61)"/>
<path d="M0 0 C0.33 0 0.66 0 1 0 C0.99476318 0.95890137 0.98952637 1.91780273 0.98413086 2.90576172 C0.96605321 6.45783559 0.95455785 10.00990537 0.94506836 13.56201172 C0.94003448 15.10043013 0.93320692 16.63884375 0.92456055 18.17724609 C0.91245361 20.38640526 0.90676231 22.59550126 0.90234375 24.8046875 C0.89718246 25.49432587 0.89202118 26.18396423 0.88670349 26.89450073 C0.83681836 30.57059655 0.83681836 30.57059655 2 34 C2.18095094 35.89280431 2.3208191 37.78964939 2.4375 39.6875 C2.80111627 44.39213507 3.50173324 48.50519971 5 53 C5.57240779 54.74678435 6.13432897 56.49702879 6.6875 58.25 C6.95949219 59.08015625 7.23148438 59.9103125 7.51171875 60.765625 C8 63 8 63 7 66 C-2.44097734 44.93935825 -3.58226738 22.54909375 0 0 Z " fill="#E66B6A" transform="translate(143,194)"/>
<path d="M0 0 C0.33 0.66 0.66 1.32 1 2 C0.36474424 3.67889021 -0.30686092 5.34416775 -1 7 C-1.12375 7.804375 -1.2475 8.60875 -1.375 9.4375 C-2.20359535 12.83474094 -4.01600155 15.14800223 -6 18 C-6.33 18.99 -6.66 19.98 -7 21 C-8.5234375 22.3515625 -8.5234375 22.3515625 -10.375 23.625 C-10.98085938 24.05039062 -11.58671875 24.47578125 -12.2109375 24.9140625 C-14 26 -14 26 -17 27 C-17.33 27.66 -17.66 28.32 -18 29 C-18.99 29 -19.98 29 -21 29 C-21 28.34 -21 27.68 -21 27 C-19.35546875 25.4140625 -19.35546875 25.4140625 -17.1875 23.625 C-14.93749143 21.76433718 -13.09649715 20.13127297 -11.36328125 17.7734375 C-10.91339844 17.18820312 -10.46351563 16.60296875 -10 16 C-9.34 16 -8.68 16 -8 16 C-7.731875 15.29875 -7.46375 14.5975 -7.1875 13.875 C-5.9318551 10.8350176 -4.49764877 7.9272226 -3 5 C-2.34 5 -1.68 5 -1 5 C-0.67 3.35 -0.34 1.7 0 0 Z " fill="#F05657" transform="translate(299,450)"/>
<path d="M0 0 C0.33 0 0.66 0 1 0 C1.36585366 4.51219512 1.36585366 4.51219512 -0.3125 6.75 C-2 8 -2 8 -5 9 C-5.33 9.66 -5.66 10.32 -6 11 C-6.66 11 -7.32 11 -8 11 C-8.2475 11.61875 -8.495 12.2375 -8.75 12.875 C-10.22221442 15.37776452 -11.31748828 15.9940581 -14 17 C-14.66 17 -15.32 17 -16 17 C-16.4125 17.474375 -16.825 17.94875 -17.25 18.4375 C-19.73755648 20.65853257 -21.70866391 20.74185599 -25 21 C-28.375 20.5625 -28.375 20.5625 -31 20 C-31 19.67 -31 19.34 -31 19 C-29.9275 18.79375 -28.855 18.5875 -27.75 18.375 C-22.66871535 17.12967621 -18.25026316 14.75589966 -13.63671875 12.33984375 C-11 11 -11 11 -8 10 C-8 9.34 -8 8.68 -8 8 C-6.52295788 6.74772516 -5.04172601 5.49833478 -3.5078125 4.31640625 C-1.73237056 2.88235909 -1.73237056 2.88235909 0 0 Z " fill="#EC5355" transform="translate(329,227)"/>
<path d="M0 0 C4.98862887 1.66287629 6.63732832 6.5116008 9 11 C10.375 14.625 10.375 14.625 11 17 C10.01 16.67 9.02 16.34 8 16 C7.29788106 14.34795544 6.63028587 12.68076231 6 11 C5.34 10.67 4.68 10.34 4 10 C4 9.34 4 8.68 4 8 C3.01 8.33 2.02 8.66 1 9 C0.67 11.31 0.34 13.62 0 16 C-0.66 16 -1.32 16 -2 16 C-2 18.64 -2 21.28 -2 24 C-2.66 24 -3.32 24 -4 24 C-4.33 24.66 -4.66 25.32 -5 26 C-4.50141744 22.67611627 -3.86703439 19.50137896 -3 16.25 C-1.95113911 12.22548193 -1.56014669 8.24193397 -1.24609375 4.1015625 C-1 2 -1 2 0 0 Z " fill="#DE5857" transform="translate(275,5)"/>
<path d="M0 0 C0.73046875 1.67578125 0.73046875 1.67578125 1 4 C-0.51171875 6.54296875 -0.51171875 6.54296875 -2.6875 9.1875 C-3.39261719 10.06792969 -4.09773438 10.94835937 -4.82421875 11.85546875 C-7.08142845 14.08025893 -8.02928614 14.37492572 -11 15 C-12.18335395 17.88318775 -12.18335395 17.88318775 -13 21 C-13.66 21.99 -14.32 22.98 -15 24 C-15.66 24 -16.32 24 -17 24 C-17.33 25.32 -17.66 26.64 -18 28 C-18.66 28 -19.32 28 -20 28 C-20 29.65 -20 31.3 -20 33 C-20.99 33 -21.98 33 -23 33 C-21.52274225 27.42511062 -18.76087319 23.28459399 -15.5 18.625 C-15.00113281 17.88894531 -14.50226563 17.15289062 -13.98828125 16.39453125 C-11.2078442 12.3766879 -11.2078442 12.3766879 -10 11 C-9.34 11 -8.68 11 -8 11 C-8 10.34 -8 9.68 -8 9 C-7.34 9 -6.68 9 -6 9 C-5.7525 8.443125 -5.505 7.88625 -5.25 7.3125 C-3.78393985 4.60028873 -1.97010529 2.36412635 0 0 Z " fill="#EA6467" transform="translate(181,125)"/>
<path d="M0 0 C1 3 1 3 -0.3125 6.1875 C-4.8003238 17.51094432 -4.38056743 29.2802834 -2 41 C-4 40 -4 40 -5.11279297 37.76879883 C-6.03420576 34.89325054 -6.23049547 32.70736308 -6.1953125 29.69921875 C-6.18886719 28.72275391 -6.18242187 27.74628906 -6.17578125 26.74023438 C-6.15902344 25.73283203 -6.14226562 24.72542969 -6.125 23.6875 C-6.11597656 22.66076172 -6.10695312 21.63402344 -6.09765625 20.57617188 C-6.07416201 18.05054101 -6.04131131 15.5253919 -6 13 C-5.34 13 -4.68 13 -4 13 C-4.268125 11.96875 -4.53625 10.9375 -4.8125 9.875 C-5.0089273 5.81550241 -4.99427116 5.42461268 -2.5625 2.5625 C-1.716875 1.716875 -0.87125 0.87125 0 0 Z " fill="#E54844" transform="translate(257,183)"/>
<path d="M0 0 C1.97851406 2.96777109 2.41835372 4.45782813 3 7.875 C3.52631534 10.77183964 4.05851105 13.14165832 5.1875 15.875 C6.1388498 18.36314562 5.91147007 19.53903081 5 22 C4.67 21.01 4.34 20.02 4 19 C3.34 18.67 2.68 18.34 2 18 C2 16.35 2 14.7 2 13 C1.34 13 0.68 13 0 13 C-0.33 15.31 -0.66 17.62 -1 20 C-1.33 20 -1.66 20 -2 20 C-2.05425226 17.60385874 -2.09379027 15.20896147 -2.125 12.8125 C-2.14175781 12.13896484 -2.15851563 11.46542969 -2.17578125 10.77148438 C-2.21538674 6.71192193 -1.80020002 3.65001185 0 0 Z " fill="#E25050" transform="translate(347,127)"/>
<path d="M0 0 C1.5 1.375 1.5 1.375 3 3 C3 3.66 3 4.32 3 5 C3.66 5 4.32 5 5 5 C6.2890625 6.4609375 6.2890625 6.4609375 7.625 8.375 C8.07101563 9.00148438 8.51703125 9.62796875 8.9765625 10.2734375 C10 12 10 12 10 14 C10.66 14 11.32 14 12 14 C12 14.66 12 15.32 12 16 C10.0625 15.625 10.0625 15.625 8 15 C7.67 14.34 7.34 13.68 7 13 C4.69 13 2.38 13 0 13 C0.020625 12.05125 0.04125 11.1025 0.0625 10.125 C0.22551826 7.09333717 0.22551826 7.09333717 -1 5 C-0.72057545 3.32345271 -0.39171753 1.65391846 0 0 Z " fill="#F44847" transform="translate(154,297)"/>
<path d="M0 0 C3.00117879 1.5005894 3.59903432 3.83882403 5.0625 6.8125 C5.58972656 7.87082031 6.11695313 8.92914063 6.66015625 10.01953125 C7.72736146 12.39351834 8.50231085 14.46239975 9 17 C9.66 17 10.32 17 11 17 C11.33 18.32 11.66 19.64 12 21 C10.68 20.67 9.36 20.34 8 20 C8 19.01 8 18.02 8 17 C7.01 17 6.02 17 5 17 C4.34 16.34 3.68 15.68 3 15 C3 15.66 3 16.32 3 17 C2.34 17 1.68 17 1 17 C1 15.35 1 13.7 1 12 C1.33 12 1.66 12 2 12 C2.33 10.02 2.66 8.04 3 6 C2.34 6 1.68 6 1 6 C0.67 4.02 0.34 2.04 0 0 Z " fill="#F34A4A" transform="translate(353,149)"/>
<path d="M0 0 C5.86230718 8.79346077 10.56902869 21.35103458 10 32 C8 31 8 31 6.9375 28.82421875 C5.61019541 24.82571368 5.1373057 20.80674037 4.5625 16.64453125 C4.22055803 13.85754373 4.22055803 13.85754373 2 12 C0.30455521 7.85557941 -0.2125756 4.4640875 0 0 Z " fill="#E66A6B" transform="translate(287,25)"/>
<path d="M0 0 C1.41000664 2.82001327 1.24548451 4.87007255 1 8 C-0.41511093 10.83022185 -1.76583825 12.76583825 -4 15 C-4 15.66 -4 16.32 -4 17 C-4.99 17 -5.98 17 -7 17 C-7.33 19.97 -7.66 22.94 -8 26 C-8.66 26 -9.32 26 -10 26 C-8.72946972 16.71535567 -4.96595299 7.90873995 0 0 Z " fill="#EC5C5B" transform="translate(157,158)"/>
<path d="M0 0 C0.99 0 1.98 0 3 0 C1.83445193 6.0509304 0.54656904 12.03466226 -1 18 C-1.33 18 -1.66 18 -2 18 C-2 15.69 -2 13.38 -2 11 C-2.99 11 -3.98 11 -5 11 C-3.78310457 6.97488434 -2.50546238 3.40742883 0 0 Z " fill="#E86A6B" transform="translate(133,179)"/>
<path d="M0 0 C0.66 0 1.32 0 2 0 C1.34 1.65 0.68 3.3 0 5 C-0.66 5 -1.32 5 -2 5 C-2.3403125 5.86625 -2.3403125 5.86625 -2.6875 6.75 C-6.13480849 12.65967171 -11.79341754 14.21510047 -18 16 C-16.37660195 14.29115995 -14.70680947 12.62553283 -13 11 C-12.34 11 -11.68 11 -11 11 C-11 10.34 -11 9.68 -11 9 C-10.01 9 -9.02 9 -8 9 C-8 8.34 -8 7.68 -8 7 C-4.53846154 4 -4.53846154 4 -2 4 C-2 3.34 -2 2.68 -2 2 C-1.34 2 -0.68 2 0 2 C0 1.34 0 0.68 0 0 Z " fill="#ED5859" transform="translate(235,80)"/>
<path d="M0 0 C1.97338867 1.21264648 1.97338867 1.21264648 4 3 C4.4699707 5.14477539 4.4699707 5.14477539 4.42578125 7.59765625 C4.41740234 8.48130859 4.40902344 9.36496094 4.40039062 10.27539062 C4.37138672 11.19513672 4.34238281 12.11488281 4.3125 13.0625 C4.30283203 13.98611328 4.29316406 14.90972656 4.28320312 15.86132812 C4.16894605 22.6621079 4.16894605 22.6621079 3 25 C2.34 25 1.68 25 1 25 C1 25.66 1 26.32 1 27 C0.34 26.67 -0.32 26.34 -1 26 C-0.67386719 25.34 -0.34773438 24.68 -0.01171875 24 C1.23963058 20.28943519 1.25524013 16.86475283 1.1875 13 C1.18685547 12.30132812 1.18621094 11.60265625 1.18554688 10.8828125 C1.15374756 7.13756 0.8889305 3.64105933 0 0 Z " fill="#EA6262" transform="translate(125,303)"/>
<path d="M0 0 C0.33 0 0.66 0 1 0 C3.25084491 23.69470522 3.25084491 23.69470522 -2 33 C-2.66 33 -3.32 33 -4 33 C-3.79503906 32.37738281 -3.59007812 31.75476563 -3.37890625 31.11328125 C-0.3972221 20.88424997 -0.26937188 10.59033327 0 0 Z " fill="#EE7173" transform="translate(304,415)"/>
<path d="M0 0 C1.98 0 3.96 0 6 0 C6.061875 0.928125 6.12375 1.85625 6.1875 2.8125 C6.455625 3.864375 6.72375 4.91625 7 6 C8.2375 6.7115625 8.2375 6.7115625 9.5 7.4375 C10.325 7.953125 11.15 8.46875 12 9 C12.8125 12.6875 12.8125 12.6875 13 16 C13.66 16 14.32 16 15 16 C14.67 16.99 14.34 17.98 14 19 C11.31155591 17.65577795 10.68043239 15.67314903 9.28125 13.11328125 C7.29233546 9.83278501 4.88863434 6.90427527 2.48828125 3.91796875 C1 2 1 2 0 0 Z " fill="#EB6568" transform="translate(286,377)"/>
<path d="M0 0 C0.66 0.33 1.32 0.66 2 1 C0.27659995 2.99449669 -1.4542893 4.98130953 -3.19921875 6.95703125 C-4.50319709 8.43638195 -5.78869305 9.93209179 -7.0625 11.4375 C-9.60975912 13.49174123 -11.78853286 13.70804844 -15 14 C-11.28587284 9.1252081 -7.22819529 5.25463813 -2 2 C-1.34 2 -0.68 2 0 2 C0 1.34 0 0.68 0 0 Z " fill="#ED6063" transform="translate(207,102)"/>
<path d="M0 0 C0.33 0.66 0.66 1.32 1 2 C-1.65705471 9.24651284 -5.3659743 12.25772909 -12 16 C-12.66 15.67 -13.32 15.34 -14 15 C-12.625 13.5 -12.625 13.5 -11 12 C-10.34 12 -9.68 12 -9 12 C-9 11.34 -9 10.68 -9 10 C-8.34 10 -7.68 10 -7 10 C-6.71125 9.401875 -6.4225 8.80375 -6.125 8.1875 C-5 6 -5 6 -3 3 C-2.34 3 -1.68 3 -1 3 C-0.67 2.01 -0.34 1.02 0 0 Z " fill="#EA6164" transform="translate(251,64)"/>
<path d="M0 0 C1.79731132 2.69596697 2.46926734 4.34350099 3.3125 7.375 C4.6815785 11.67083305 6.51631205 14.05226404 10 17 C10.66 17.66 11.32 18.32 12 19 C10.02 19.99 10.02 19.99 8 21 C7.67 19.68 7.34 18.36 7 17 C6.34 17 5.68 17 5 17 C2.1738164 14.60202604 1.10397085 12.65002915 0.51953125 8.99609375 C0.275109 5.99572204 0.09596696 3.00856419 0 0 Z " fill="#EA595A" transform="translate(97,318)"/>
<path d="M0 0 C3.99500618 1.3697164 6.80009492 3.25722422 10 6 C8.68 6 7.36 6 6 6 C6 5.34 6 4.68 6 4 C5.01 4 4.02 4 3 4 C3.31710938 4.52078125 3.63421875 5.0415625 3.9609375 5.578125 C5.28920511 8.67408709 5.42364247 11.39404121 5.625 14.75 C5.69976562 15.92046875 5.77453125 17.0909375 5.8515625 18.296875 C5.90054688 19.18890625 5.94953125 20.0809375 6 21 C4.21459726 17.77700026 3.29865512 14.63787178 2.4375 11.0625 C2.18871094 10.04285156 1.93992187 9.02320313 1.68359375 7.97265625 C1.07411704 5.32230323 0.51627422 2.66987524 0 0 Z " fill="#E77777" transform="translate(72,287)"/>
<path d="M0 0 C2.58949269 1.29474635 2.96035764 2.32663393 4 5 C4.125 7.75 4.125 7.75 4 10 C5.32 10.33 6.64 10.66 8 11 C8 13.97 8 16.94 8 20 C7.34 19.67 6.68 19.34 6 19 C6 17.68 6 16.36 6 15 C5.34 15 4.68 15 4 15 C3.32532438 13.25307205 2.66055844 11.50231475 2 9.75 C1.62875 8.77546875 1.2575 7.8009375 0.875 6.796875 C0 4 0 4 0 0 Z " fill="#E3524F" transform="translate(117,280)"/>
<path d="M0 0 C-5.32121876 2.32803321 -10.56494961 3.62540819 -16.25 4.6875 C-16.94738281 4.81874268 -17.64476562 4.94998535 -18.36328125 5.08520508 C-21.65458129 5.67616466 -24.64199913 6 -28 6 C-28 5.34 -28 4.68 -28 4 C-27.28972656 3.93941406 -26.57945312 3.87882812 -25.84765625 3.81640625 C-24.46900391 3.69072266 -24.46900391 3.69072266 -23.0625 3.5625 C-22.14597656 3.48128906 -21.22945313 3.40007812 -20.28515625 3.31640625 C-18.03840268 3.23955024 -18.03840268 3.23955024 -17 2 C-15.96875 1.855625 -14.9375 1.71125 -13.875 1.5625 C-9.97932858 1.09378583 -9.97932858 1.09378583 -6.25 -0.125 C-3 -1 -3 -1 0 0 Z " fill="#E76769" transform="translate(338,477)"/>
<path d="M0 0 C0.99 0.495 0.99 0.495 2 1 C2 2.32 2 3.64 2 5 C2.66 5 3.32 5 4 5 C4 10.94 4 16.88 4 23 C3.34 22.67 2.68 22.34 2 22 C1.58935547 19.86694336 1.58935547 19.86694336 1.3671875 17.08984375 C1.28339844 16.10048828 1.19960938 15.11113281 1.11328125 14.09179688 C1.03464844 13.05087891 0.95601563 12.00996094 0.875 10.9375 C0.78863281 9.89271484 0.70226562 8.84792969 0.61328125 7.77148438 C0.40041023 5.18155359 0.19638621 2.5912245 0 0 Z " fill="#E7403F" transform="translate(303,407)"/>
<path d="M0 0 C0.33 0 0.66 0 1 0 C0.65226572 6.63093294 0.03910346 12.053928 -3 18 C-3.66 18 -4.32 18 -5 18 C-5 19.98 -5 21.96 -5 24 C-5.66 23.67 -6.32 23.34 -7 23 C-5.18120817 15.10479003 -2.92975651 7.55490512 0 0 Z " fill="#EA6362" transform="translate(127,191)"/>
<path d="M0 0 C0.33 0 0.66 0 1 0 C0.98839844 1.19238281 0.97679687 2.38476562 0.96484375 3.61328125 C0.95546408 5.17968594 0.94636407 6.74609231 0.9375 8.3125 C0.92912109 9.09818359 0.92074219 9.88386719 0.91210938 10.69335938 C0.90888672 11.45068359 0.90566406 12.20800781 0.90234375 12.98828125 C0.89710693 13.68477783 0.89187012 14.38127441 0.88647461 15.09887695 C0.93104009 17.22497968 0.93104009 17.22497968 2 20 C1.91232913 22.74607776 1.77043265 25.45091508 1.5625 28.1875 C1.51029297 28.93708984 1.45808594 29.68667969 1.40429688 30.45898438 C1.27486216 32.30637082 1.13813482 34.15324371 1 36 C0.67 36 0.34 36 0 36 C-0.65761794 27.9324371 -1.10389815 19.90769707 -1.125 11.8125 C-1.12951172 11.09457275 -1.13402344 10.37664551 -1.13867188 9.63696289 C-1.12911069 6.28377532 -1.04351901 3.20509412 0 0 Z " fill="#E93A3C" transform="translate(346,143)"/>
<path d="M0 0 C2.26918869 0.02144115 4.47674319 0.13839224 6.73046875 0.3984375 C6.73046875 1.0584375 6.73046875 1.7184375 6.73046875 2.3984375 C4.94336289 3.26210572 3.15062225 4.11412344 1.35546875 4.9609375 C0.35773438 5.43660156 -0.64 5.91226562 -1.66796875 6.40234375 C-2.52648437 6.73105469 -3.385 7.05976563 -4.26953125 7.3984375 C-4.92953125 7.0684375 -5.58953125 6.7384375 -6.26953125 6.3984375 C-3.49786106 0.61408232 -3.49786106 0.61408232 0 0 Z " fill="#EF5C5B" transform="translate(357.26953125,464.6015625)"/>
<path d="M0 0 C1.1796875 1.546875 1.1796875 1.546875 2 4 C1.16272284 6.58794758 0.28640033 8.81847251 -0.875 11.25 C-1.17019531 11.8996875 -1.46539062 12.549375 -1.76953125 13.21875 C-2.49903434 14.81895032 -3.24769825 16.41039065 -4 18 C-4.87840996 14.90279155 -4.99435406 13.09354597 -4 10 C-4.66 9.67 -5.32 9.34 -6 9 C-5.67 8.34 -5.34 7.68 -5 7 C-4.34 7 -3.68 7 -3 7 C-2.67 6.34 -2.34 5.68 -2 5 C-1.67 5 -1.34 5 -1 5 C-0.67 3.35 -0.34 1.7 0 0 Z " fill="#F14748" transform="translate(415,402)"/>
<path d="M0 0 C2.90833622 0.54531304 5.66272059 1.20118304 8.5 2.0625 C14.23513697 3.55142979 20.12223859 3.16128004 26 3 C26 3.66 26 4.32 26 5 C23.14557247 5.05437005 20.29219924 5.09384974 17.4375 5.125 C16.63763672 5.14175781 15.83777344 5.15851563 15.01367188 5.17578125 C9.96190781 5.21702014 5.72350971 4.87450714 1 3 C0.67 2.01 0.34 1.02 0 0 Z " fill="#DF4847" transform="translate(271,244)"/>
<path d="M0 0 C0.33 0 0.66 0 1 0 C1.05447047 1.41623216 1.09300508 2.83308191 1.125 4.25 C1.14820313 5.03890625 1.17140625 5.8278125 1.1953125 6.640625 C0.9828378 9.20731941 0.28654105 10.7916067 -1 13 C-1.66 13 -2.32 13 -3 13 C-3.33 13.99 -3.66 14.98 -4 16 C-4.66 16 -5.32 16 -6 16 C-4.25192871 10.53262809 -2.34205919 5.24175152 0 0 Z " fill="#ED5557" transform="translate(269,31)"/>
<path d="M0 0 C2.48982535 2.27745789 4.10368997 4.62335238 5.75 7.5625 C6.19859375 8.34753906 6.6471875 9.13257813 7.109375 9.94140625 C7.40328125 10.62074219 7.6971875 11.30007812 8 12 C7.67 12.66 7.34 13.32 7 14 C4.7522025 11.94766315 3.9977758 10.99332739 3 8 C2.34 7.67 1.68 7.34 1 7 C1 6.34 1 5.68 1 5 C-0.32 5.33 -1.64 5.66 -3 6 C-2.625 3.5625 -2.625 3.5625 -2 1 C-1.34 0.67 -0.68 0.34 0 0 Z " fill="#ED5F5F" transform="translate(278,8)"/>
<path d="M0 0 C2.78211944 0.37596209 4.5879284 0.67318459 6.8125 2.4375 C8 4 8 4 8 6 C10.97 6.495 10.97 6.495 14 7 C14 8.65 14 10.3 14 12 C12.68 11.34 11.36 10.68 10 10 C10 9.34 10 8.68 10 8 C9.38125 7.690625 8.7625 7.38125 8.125 7.0625 C6.75 6.375 5.375 5.6875 4 5 C4 4.34 4 3.68 4 3 C3.34 3 2.68 3 2 3 C2 2.34 2 1.68 2 1 C1.34 0.67 0.68 0.34 0 0 Z " fill="#EC6D6D" transform="translate(186,309)"/>
<path d="M0 0 C3.29362234 1.64681117 4.19651623 5.15997287 5.6875 8.375 C6.02072266 9.06078125 6.35394531 9.7465625 6.69726562 10.453125 C9.12174664 15.63476009 9.12174664 15.63476009 8 19 C7.01 18.67 6.02 18.34 5 18 C4.67 15.03 4.34 12.06 4 9 C3.34 9 2.68 9 2 9 C1.34 6.03 0.68 3.06 0 0 Z " fill="#E86262" transform="translate(379,195)"/>
<path d="M0 0 C0.99 0 1.98 0 3 0 C3.054138 2.24973447 3.09285491 4.49984383 3.125 6.75 C3.14820313 8.00296875 3.17140625 9.2559375 3.1953125 10.546875 C3 14 3 14 1 18 C1 14.37 1 10.74 1 7 C0.34 6.67 -0.32 6.34 -1 6 C-0.67 4.02 -0.34 2.04 0 0 Z " fill="#ED4746" transform="translate(128,190)"/>
<path d="M0 0 C1.21236328 0.02707031 1.21236328 0.02707031 2.44921875 0.0546875 C3.37154297 0.08949219 3.37154297 0.08949219 4.3125 0.125 C0.88951818 3.54798182 -3.75144189 4.03699736 -8.4375 4.25 C-10.85757854 4.25 -13.26918642 4.21420009 -15.6875 4.125 C-15.0275 3.465 -14.3675 2.805 -13.6875 2.125 C-11.6875 2.125 -9.6875 2.125 -7.6875 2.125 C-4.48369983 -0.01086678 -3.66810033 -0.10632175 0 0 Z " fill="#E75858" transform="translate(233.6875,486.875)"/>
<path d="M0 0 C-3.13642175 2.53326372 -6.25994799 4.47344816 -10 6 C-12.875 5.6875 -12.875 5.6875 -15 5 C-15 4.67 -15 4.34 -15 4 C-13.35 4 -11.7 4 -10 4 C-10 2.68 -10 1.36 -10 0 C-3.375 -1.125 -3.375 -1.125 0 0 Z " fill="#EE6262" transform="translate(252,481)"/>
<path d="M0 0 C2.10008785 4.20017569 3.12273419 6.68050303 3.09765625 11.4453125 C3.09443359 12.52167969 3.09121094 13.59804688 3.08789062 14.70703125 C3.07951172 15.83496094 3.07113281 16.96289062 3.0625 18.125 C3.05798828 19.26066406 3.05347656 20.39632813 3.04882812 21.56640625 C3.03701615 24.37765638 3.02054507 27.1888023 3 30 C2.67 30 2.34 30 2 30 C2 22.74 2 15.48 2 8 C1.34 8 0.68 8 0 8 C0 5.36 0 2.72 0 0 Z " fill="#E6575A" transform="translate(281,408)"/>
<path d="M0 0 C3.02419525 0.58803797 6.01758453 1.22678118 9 2 C9 2.66 9 3.32 9 4 C10.32 4 11.64 4 13 4 C14.75 5.5 14.75 5.5 16 7 C15.67 7.66 15.34 8.32 15 9 C12.69 8.01 10.38 7.02 8 6 C8 5.34 8 4.68 8 4 C7.4225 3.87625 6.845 3.7525 6.25 3.625 C3.97664233 2.99351176 2.0746471 2.11141809 0 1 C0 0.67 0 0.34 0 0 Z " fill="#E96668" transform="translate(236,345)"/>
<path d="M0 0 C3.12290635 0.48578543 5.99580359 0.9986012 9 2 C9.33 2.66 9.66 3.32 10 4 C11.97888961 4.72693904 13.97954558 5.39816251 16 6 C16 6.99 16 7.98 16 9 C10.0942118 7.44584521 5.02261107 4.40465533 0 1 C0 0.67 0 0.34 0 0 Z " fill="#E85F60" transform="translate(134,471)"/>
<path d="M0 0 C3.40755272 1.92880342 6.74147635 3.8276509 10 6 C10 6.66 10 7.32 10 8 C10.61875 8.12375 11.2375 8.2475 11.875 8.375 C14 9 14 9 16 11 C14.51793505 10.745504 13.03931385 10.47088238 11.5625 10.1875 C10.73878906 10.03667969 9.91507813 9.88585937 9.06640625 9.73046875 C8.38449219 9.48941406 7.70257813 9.24835938 7 9 C6.67 8.01 6.34 7.02 6 6 C3.99983534 4.79117904 3.99983534 4.79117904 2 4 C2 3.34 2 2.68 2 2 C1.34 2 0.68 2 0 2 C0 1.34 0 0.68 0 0 Z " fill="#EB7373" transform="translate(201,346)"/>
<path d="M0 0 C1.24593719 3.73781156 0.20084054 5.33011921 -1.23046875 8.859375 C-2.32276235 11.89783638 -2.66622334 14.79574402 -3 18 C-3.33 18 -3.66 18 -4 18 C-5.72107623 7.4690583 -5.72107623 7.4690583 -3.953125 3.8671875 C-2.5625 2.25 -2.5625 2.25 0 0 Z " fill="#EB5F60" transform="translate(257,183)"/>
<path d="M0 0 C0.98120464 3.05263664 0.98120464 4.94736336 0 8 C-0.66 8 -1.32 8 -2 8 C-2 8.66 -2 9.32 -2 10 C-2.66 10 -3.32 10 -4 10 C-4.33 11.65 -4.66 13.3 -5 15 C-6.32 15.33 -7.64 15.66 -9 16 C-8.67 15.01 -8.34 14.02 -8 13 C-7.34 13 -6.68 13 -6 13 C-5.7525 12.154375 -5.505 11.30875 -5.25 10.4375 C-3.86026373 6.61572526 -2.08879162 3.48131937 0 0 Z " fill="#EA6A6A" transform="translate(261,48)"/>
<path d="M0 0 C1.65 0.33 3.3 0.66 5 1 C5 1.66 5 2.32 5 3 C3.1015625 4.5078125 3.1015625 4.5078125 0.625 6.125 C-0.59316406 6.93324219 -0.59316406 6.93324219 -1.8359375 7.7578125 C-4 9 -4 9 -6 9 C-5.67 8.01 -5.34 7.02 -5 6 C-4.34 6 -3.68 6 -3 6 C-3 5.34 -3 4.68 -3 4 C-2.01 3.67 -1.02 3.34 0 3 C0 2.01 0 1.02 0 0 Z " fill="#EC6967" transform="translate(376,453)"/>
<path d="M0 0 C0.33 0 0.66 0 1 0 C1.36585366 4.51219512 1.36585366 4.51219512 -0.3125 6.75 C-2 8 -2 8 -5 9 C-5.33 9.66 -5.66 10.32 -6 11 C-7.32 10.67 -8.64 10.34 -10 10 C-9.34 10 -8.68 10 -8 10 C-8 9.34 -8 8.68 -8 8 C-6.52295788 6.74772516 -5.04172601 5.49833478 -3.5078125 4.31640625 C-1.73237056 2.88235909 -1.73237056 2.88235909 0 0 Z " fill="#EB615F" transform="translate(329,227)"/>
<path d="M0 0 C0.66 0.99 1.32 1.98 2 3 C1.38125 3.0825 0.7625 3.165 0.125 3.25 C-0.57625 3.4975 -1.2775 3.745 -2 4 C-2.309375 4.66 -2.61875 5.32 -2.9375 6 C-3.288125 6.66 -3.63875 7.32 -4 8 C-6.625 8.75 -6.625 8.75 -9 9 C-8.06725891 7.87105124 -7.12859878 6.74699124 -6.1875 5.625 C-5.66542969 4.99851562 -5.14335937 4.37203125 -4.60546875 3.7265625 C-3 2 -3 2 0 0 Z " fill="#EE6F6F" transform="translate(191,116)"/>
<path d="M0 0 C2.04119788 1.61594832 4.04072937 3.2856382 6 5 C6 5.66 6 6.32 6 7 C6.66 7 7.32 7 8 7 C8.33 7.99 8.66 8.98 9 10 C6 10 6 10 4 9 C3.67 8.01 3.34 7.02 3 6 C2.01 5.67 1.02 5.34 0 5 C0 3.35 0 1.7 0 0 Z " fill="#EC5A5C" transform="translate(82,293)"/>
<path d="M0 0 C3.48354375 5.22531563 4.30934332 10.8131337 4 17 C3.67 16.01 3.34 15.02 3 14 C2.34 14 1.68 14 1 14 C0.63794536 12.04310963 0.28558579 10.08442332 -0.0625 8.125 C-0.25972656 7.03445313 -0.45695312 5.94390625 -0.66015625 4.8203125 C-1 2 -1 2 0 0 Z " fill="#E66767" transform="translate(416,290)"/>
<path d="M0 0 C0.66 0.33 1.32 0.66 2 1 C1.67 1.66 1.34 2.32 1 3 C7.27 3 13.54 3 20 3 C20 3.33 20 3.66 20 4 C12.74 4 5.48 4 -2 4 C-2 3.01 -2 2.02 -2 1 C-1.34 0.67 -0.68 0.34 0 0 Z " fill="#E35357" transform="translate(276,479)"/>
<path d="M0 0 C3.26008643 3.16952847 6.22237877 6.39937989 9 10 C8.01 10.495 8.01 10.495 7 11 C4.5 10.0625 4.5 10.0625 2 8 C0.96372071 5.3277671 0.5129418 2.84449542 0 0 Z " fill="#EB5C5F" transform="translate(170,317)"/>
<path d="M0 0 C1.5 1.375 1.5 1.375 3 3 C3 3.66 3 4.32 3 5 C3.66 5 4.32 5 5 5 C5.99 6.98 6.98 8.96 8 11 C5.03 10.505 5.03 10.505 2 10 C2 8.02 2 6.04 2 4 C1.34 4 0.68 4 0 4 C0 2.68 0 1.36 0 0 Z " fill="#ED6564" transform="translate(154,297)"/>
<path d="M0 0 C5.00890086 0.61512818 10.00632136 1.2717552 15 2 C14.67 2.99 14.34 3.98 14 5 C12.03964825 4.55037804 10.08175691 4.09001752 8.125 3.625 C7.03445312 3.36976563 5.94390625 3.11453125 4.8203125 2.8515625 C2 2 2 2 0 0 Z " fill="#EC6768" transform="translate(157,483)"/>
<path d="M0 0 C3.85025879 0.60355408 6.86101159 1.76772603 10.3125 3.5625 C11.19550781 4.01753906 12.07851562 4.47257812 12.98828125 4.94140625 C13.65214844 5.29074219 14.31601563 5.64007813 15 6 C10.82518761 7.39160413 8.09766916 6.36588972 4 5 C2.61423077 3.37667033 1.27358732 1.71275535 0 0 Z " fill="#E86A69" transform="translate(230,365)"/>
<path d="M0 0 C0.68707555 2.49064888 1 4.37886292 1 7 C0.01 7 -0.98 7 -2 7 C-2.33 9.97 -2.66 12.94 -3 16 C-3.66 16 -4.32 16 -5 16 C-4.39363767 10.23955788 -2.24341721 5.27985631 0 0 Z " fill="#E76363" transform="translate(152,168)"/>
<path d="M0 0 C2.0245738 1.93254772 3.42105792 3.63158688 5 6 C5 6.99 5 7.98 5 9 C5.66 9 6.32 9 7 9 C7.33 10.32 7.66 11.64 8 13 C6.68 12.67 5.36 12.34 4 12 C4 10.68 4 9.36 4 8 C3.34 8 2.68 8 2 8 C2 6.68 2 5.36 2 4 C1.34 4 0.68 4 0 4 C0 2.68 0 1.36 0 0 Z " fill="#E86363" transform="translate(357,157)"/>
<path d="M0 0 C0.68359375 1.765625 0.68359375 1.765625 1 4 C-0.21484375 5.921875 -0.21484375 5.921875 -1.9375 7.75 C-2.50339844 8.36359375 -3.06929687 8.9771875 -3.65234375 9.609375 C-4.31943359 10.29773438 -4.31943359 10.29773438 -5 11 C-5.68359375 9.234375 -5.68359375 9.234375 -6 7 C-4.78515625 5.078125 -4.78515625 5.078125 -3.0625 3.25 C-2.49660156 2.63640625 -1.93070313 2.0228125 -1.34765625 1.390625 C-0.90292969 0.93171875 -0.45820313 0.4728125 0 0 Z " fill="#EB595C" transform="translate(181,125)"/>
<path d="M0 0 C0.33 0.66 0.66 1.32 1 2 C-0.25 4.5625 -0.25 4.5625 -2 7 C-2.99 7.33 -3.98 7.66 -5 8 C-5.33 8.66 -5.66 9.32 -6 10 C-6.99 10 -7.98 10 -9 10 C-9 9.34 -9 8.68 -9 8 C-7.28515625 6.30859375 -7.28515625 6.30859375 -5.0625 4.4375 C-3.96615234 3.50744141 -3.96615234 3.50744141 -2.84765625 2.55859375 C-2.23792969 2.04425781 -1.62820313 1.52992188 -1 1 C-0.67 0.67 -0.34 0.34 0 0 Z " fill="#EE6E71" transform="translate(287,469)"/>
<path d="M0 0 C2.475 0.495 2.475 0.495 5 1 C5 1.66 5 2.32 5 3 C6.32 2.67 7.64 2.34 9 2 C9 3.32 9 4.64 9 6 C9.66 6.33 10.32 6.66 11 7 C6.9666466 7 5.16482462 5.39120082 2 3 C2 2.34 2 1.68 2 1 C1.34 0.67 0.68 0.34 0 0 Z " fill="#EC595B" transform="translate(274,367)"/>
<path d="M0 0 C0.8353125 0.556875 0.8353125 0.556875 1.6875 1.125 C1.0275 1.125 0.3675 1.125 -0.3125 1.125 C-0.3125 1.785 -0.3125 2.445 -0.3125 3.125 C-3.3125 5.125 -3.3125 5.125 -6.3125 5.125 C-6.6425 3.805 -6.9725 2.485 -7.3125 1.125 C-2.88173077 -1.09038462 -2.88173077 -1.09038462 0 0 Z " fill="#F05455" transform="translate(258.3125,474.875)"/>
<path d="M0 0 C1.32 0 2.64 0 4 0 C3.67 1.32 3.34 2.64 3 4 C2.34 4 1.68 4 1 4 C0.34 5.32 -0.32 6.64 -1 8 C-1.33 8 -1.66 8 -2 8 C-1.125 1.125 -1.125 1.125 0 0 Z " fill="#E96161" transform="translate(270,459)"/>
<path d="M0 0 C1.440578 2.85508218 2.84334242 5.72317245 4.1875 8.625 C4.55230469 9.40101563 4.91710937 10.17703125 5.29296875 10.9765625 C5.52628906 11.64429688 5.75960938 12.31203125 6 13 C5.67 13.66 5.34 14.32 5 15 C2.37613513 11.93882432 2 11.26826873 2 7 C1.34 7 0.68 7 0 7 C0 4.69 0 2.38 0 0 Z " fill="#EA7779" transform="translate(397,235)"/>
<path d="M0 0 C0.33 0 0.66 0 1 0 C1.2358396 5.77807024 0.86783046 10.51324804 -1 16 C-1.33 16 -1.66 16 -2 16 C-2.2358396 10.22192976 -1.86783046 5.48675196 0 0 Z " fill="#E64746" transform="translate(120,215)"/>
<path d="M0 0 C0.99 0.495 0.99 0.495 2 1 C2.33333333 2.33333333 2.66666667 3.66666667 3 5 C3.66 5.33 4.32 5.66 5 6 C5 7.32 5 8.64 5 10 C3.35 9.67 1.7 9.34 0 9 C0 6.03 0 3.06 0 0 Z " fill="#F23F40" transform="translate(251,218)"/>
<path d="M0 0 C5.2688172 7.90322581 5.2688172 7.90322581 4.6875 12.4375 C4.460625 12.953125 4.23375 13.46875 4 14 C0.73262697 10.73262697 0.04327104 7.16831802 -0.125 2.625 C-0.08375 1.75875 -0.0425 0.8925 0 0 Z " fill="#E95F64" transform="translate(287,25)"/>
<path d="M0 0 C2 1 2 1 2.8515625 3.06640625 C3.10679687 3.89011719 3.36203125 4.71382813 3.625 5.5625 C3.88539063 6.38878906 4.14578125 7.21507812 4.4140625 8.06640625 C4.60742188 8.70449219 4.80078125 9.34257812 5 10 C3.35 9.67 1.7 9.34 0 9 C0 6.03 0 3.06 0 0 Z " fill="#EF5658" transform="translate(276,398)"/>
<path d="M0 0 C0.99 0.495 0.99 0.495 2 1 C2 1.66 2 2.32 2 3 C4.475 3.99 4.475 3.99 7 5 C7 5.66 7 6.32 7 7 C7.66 7 8.32 7 9 7 C9 7.66 9 8.32 9 9 C9.66 9.33 10.32 9.66 11 10 C8.61435923 9.42415568 6.33317216 8.77772405 4 8 C4 7.01 4 6.02 4 5 C3.01 4.67 2.02 4.34 1 4 C0.3125 1.9375 0.3125 1.9375 0 0 Z " fill="#E76F73" transform="translate(187,334)"/>
<path d="M0 0 C5 9.61538462 5 9.61538462 5 15 C4.34 15 3.68 15 3 15 C1.094753 9.89665983 -0.42589023 5.53657294 0 0 Z " fill="#E46161" transform="translate(404,253)"/>
<path d="M0 0 C0.33 0 0.66 0 1 0 C0.67 4.62 0.34 9.24 0 14 C-0.66 14 -1.32 14 -2 14 C-3.25127906 10.45332822 -2.72285053 8.27746562 -1.5625 4.75 C-1.27503906 3.85796875 -0.98757813 2.9659375 -0.69140625 2.046875 C-0.46324219 1.37140625 -0.23507812 0.6959375 0 0 Z " fill="#ED6465" transform="translate(341,201)"/>
<path d="M0 0 C1.32 0.33 2.64 0.66 4 1 C3.19185349 2.33597652 2.37836819 3.668725 1.5625 5 C1.11003906 5.7425 0.65757812 6.485 0.19140625 7.25 C-0.20175781 7.8275 -0.59492188 8.405 -1 9 C-1.33 9 -1.66 9 -2 9 C-2.25 3.375 -2.25 3.375 0 0 Z " fill="#EB5757" transform="translate(270,155)"/>
<path d="M0 0 C2.97 0.495 2.97 0.495 6 1 C4.35830472 3.02054804 2.69088222 5.02043058 1 7 C0.67 7 0.34 7 0 7 C0 4.69 0 2.38 0 0 Z " fill="#F05E59" transform="translate(391,439)"/>
<path d="M0 0 C0.66 0 1.32 0 2 0 C2 0.99 2 1.98 2 3 C2.66 3 3.32 3 4 3 C4 3.66 4 4.32 4 5 C4.66 5 5.32 5 6 5 C7.0625 6.8125 7.0625 6.8125 8 9 C7.67 9.99 7.34 10.98 7 12 C7 11.34 7 10.68 7 10 C6.34 10 5.68 10 5 10 C4.1641146 8.52227402 3.33135744 7.04277811 2.5 5.5625 C2.0359375 4.73878906 1.571875 3.91507812 1.09375 3.06640625 C0 1 0 1 0 0 Z " fill="#EA6B6C" transform="translate(157,272)"/>
<path d="M0 0 C0.99 0.33 1.98 0.66 3 1 C3 1.99 3 2.98 3 4 C3.66 4 4.32 4 5 4 C5.66 5.65 6.32 7.3 7 9 C6.34 9.66 5.68 10.32 5 11 C4.16151196 9.54462432 3.32936066 8.08559627 2.5 6.625 C1.80390625 5.40683594 1.80390625 5.40683594 1.09375 4.1640625 C0 2 0 2 0 0 Z " fill="#EB7573" transform="translate(151,261)"/>
<path d="M0 0 C2.67927341 4.01891012 2.15601248 6.24161923 2 11 C1.67 11 1.34 11 1 11 C1 9.35 1 7.7 1 6 C0.34 6 -0.32 6 -1 6 C-1.33 7.32 -1.66 8.64 -2 10 C-1.85950482 8.52031676 -1.71245174 7.04125484 -1.5625 5.5625 C-1.48128906 4.73878906 -1.40007812 3.91507813 -1.31640625 3.06640625 C-1 1 -1 1 0 0 Z " fill="#E47F80" transform="translate(347,127)"/>
<path d="M0 0 C0.66 0 1.32 0 2 0 C1.34 1.65 0.68 3.3 0 5 C-0.66 5 -1.32 5 -2 5 C-2 5.66 -2 6.32 -2 7 C-3.98 7.33 -5.96 7.66 -8 8 C-6.71034824 6.62437146 -5.37310707 5.29233607 -4 4 C-3.34 4 -2.68 4 -2 4 C-2 3.34 -2 2.68 -2 2 C-1.34 2 -0.68 2 0 2 C0 1.34 0 0.68 0 0 Z " fill="#EC6768" transform="translate(235,80)"/>
<path d="M0 0 C1.32 1.32 2.64 2.64 4 4 C3.67 4.99 3.34 5.98 3 7 C0.9375 7.6875 0.9375 7.6875 -1 8 C-1 5.16032769 -0.59732819 2.76264289 0 0 Z " fill="#F24A44" transform="translate(179,327)"/>
<path d="M0 0 C1.32 0 2.64 0 4 0 C4 0.99 4 1.98 4 3 C4.99 3.33 5.98 3.66 7 4 C6.67 5.32 6.34 6.64 6 8 C5.34 6.68 4.68 5.36 4 4 C3.34 4 2.68 4 2 4 C2 3.34 2 2.68 2 2 C1.34 2 0.68 2 0 2 C0 1.34 0 0.68 0 0 Z " fill="#ED7778" transform="translate(175,297)"/>
<path d="M0 0 C0.99 0.33 1.98 0.66 3 1 C3 3.97 3 6.94 3 10 C2.34 9.67 1.68 9.34 1 9 C1 7.68 1 6.36 1 5 C0.34 5 -0.32 5 -1 5 C-0.67 3.35 -0.34 1.7 0 0 Z " fill="#EF5D5C" transform="translate(122,290)"/>
<path d="M0 0 C0.33 0 0.66 0 1 0 C1.66 4.62 2.32 9.24 3 14 C1 13 1 13 -0.1875 10.9375 C-1.29043192 6.94997691 -0.68925838 4.06662445 0 0 Z " fill="#EB6D6F" transform="translate(252,210)"/>
<path d="M0 0 C2.53408774 1.26704387 2.93209972 2.43123157 4.1875 4.9375 C4.55230469 5.64777344 4.91710937 6.35804688 5.29296875 7.08984375 C5.52628906 7.72019531 5.75960938 8.35054687 6 9 C5.67 9.66 5.34 10.32 5 11 C0.07692308 5.70769231 0.07692308 5.70769231 -0.3125 2.125 C-0.209375 1.42375 -0.10625 0.7225 0 0 Z " fill="#EB6F71" transform="translate(373,183)"/>
<path d="M0 0 C0.66 0 1.32 0 2 0 C2.33 2.31 2.66 4.62 3 7 C3.66 7 4.32 7 5 7 C4.67 7.99 4.34 8.98 4 10 C0.92436109 8.46218054 0.29677426 6.08755777 -1 3 C-0.67 2.01 -0.34 1.02 0 0 Z " fill="#EE5353" transform="translate(296,386)"/>
<path d="M0 0 C0.99 0.33 1.98 0.66 3 1 C3 1.99 3 2.98 3 4 C3.66 4 4.32 4 5 4 C4.67 4.99 4.34 5.98 4 7 C1.525 6.01 1.525 6.01 -1 5 C-0.67 3.35 -0.34 1.7 0 0 Z " fill="#F23E3B" transform="translate(198,344)"/>
<path d="M0 0 C0.33 0.99 0.66 1.98 1 3 C0.34 3 -0.32 3 -1 3 C-1.226875 3.639375 -1.45375 4.27875 -1.6875 4.9375 C-3 7 -3 7 -5.625 7.75 C-6.800625 7.87375 -6.800625 7.87375 -8 8 C-8 7.34 -8 6.68 -8 6 C-2.58823529 2 -2.58823529 2 0 2 C0 1.34 0 0.68 0 0 Z " fill="#EC6161" transform="translate(123,330)"/>
<path d="M0 0 C0.66 0 1.32 0 2 0 C1.67 1.65 1.34 3.3 1 5 C-0.32 5.33 -1.64 5.66 -3 6 C-3 6.66 -3 7.32 -3 8 C-3.66 8 -4.32 8 -5 8 C-4 6 -3 4 -2 2 C-1.34 2 -0.68 2 0 2 C0 1.34 0 0.68 0 0 Z " fill="#F07071" transform="translate(173,134)"/>
<path d="M0 0 C1.30660357 4.29727397 0.6596762 7.60215865 0 12 C-0.66 12 -1.32 12 -2 12 C-2.33 12.66 -2.66 13.32 -3 14 C-2.28547412 9.23649415 -1.20465156 4.65798604 0 0 Z " fill="#E7605F" transform="translate(273,17)"/>
<path d="M0 0 C0.66 0 1.32 0 2 0 C1.34 1.65 0.68 3.3 0 5 C-0.66 5 -1.32 5 -2 5 C-2.66 6.32 -3.32 7.64 -4 9 C-4 6.69 -4 4.38 -4 2 C-2.68 2 -1.36 2 0 2 C0 1.34 0 0.68 0 0 Z " fill="#ED6D6E" transform="translate(405,426)"/>
<path d="M0 0 C0.33 0 0.66 0 1 0 C1.66 3.63 2.32 7.26 3 11 C2.01 11.66 1.02 12.32 0 13 C-1.29676812 8.38926889 -0.71109139 4.66159911 0 0 Z " fill="#ED5B56" transform="translate(117,224)"/>
<path d="M0 0 C3.40320742 1.01176437 4.75725331 1.64843582 6.8125 4.625 C7.204375 5.40875 7.59625 6.1925 8 7 C7.01 7 6.02 7 5 7 C4.67 6.01 4.34 5.02 4 4 C3.34 4 2.68 4 2 4 C1.34 2.68 0.68 1.36 0 0 Z " fill="#EC706A" transform="translate(102,440)"/>
<path d="M0 0 C0.99 0.33 1.98 0.66 3 1 C3.33 4.3 3.66 7.6 4 11 C1.54176828 7.31265242 0.98757384 4.30300029 0 0 Z " fill="#E95F65" transform="translate(86,405)"/>
<path d="M0 0 C2.64 0.66 5.28 1.32 8 2 C8.33 3.32 8.66 4.64 9 6 C5.06326356 4.68775452 2.77280706 3.08089673 0 0 Z " fill="#EA6D70" transform="translate(211,329)"/>
<path d="M0 0 C4 4.625 4 4.625 4 8 C4.66 8 5.32 8 6 8 C5.67 8.66 5.34 9.32 5 10 C2 9 2 9 0.8125 6.6875 C0 4 0 4 0 0 Z " fill="#EA6F6F" transform="translate(144,281)"/>
<path d="M0 0 C0.99 0.33 1.98 0.66 3 1 C3 2.65 3 4.3 3 6 C3.66 6.33 4.32 6.66 5 7 C4.01 7 3.02 7 2 7 C2 6.34 2 5.68 2 5 C1.34 5 0.68 5 0 5 C-0.5625 3.0625 -0.5625 3.0625 -1 1 C-0.67 0.67 -0.34 0.34 0 0 Z " fill="#EE696A" transform="translate(166,283)"/>
<path d="M0 0 C-0.33 0.99 -0.66 1.98 -1 3 C-5.65537393 3.83796731 -9.37078475 4.0161692 -14 3 C-14 2.67 -14 2.34 -14 2 C-12.95199219 1.90912109 -12.95199219 1.90912109 -11.8828125 1.81640625 C-10.97273438 1.73261719 -10.06265625 1.64882812 -9.125 1.5625 C-8.22007812 1.48128906 -7.31515625 1.40007812 -6.3828125 1.31640625 C-3.9906624 0.99876009 -2.3900132 0 0 0 Z " fill="#F34A4A" transform="translate(312,244)"/>
<path d="M0 0 C0.33 0.66 0.66 1.32 1 2 C0.22265625 3.9453125 0.22265625 3.9453125 -0.9375 6.125 C-1.31777344 6.84945312 -1.69804687 7.57390625 -2.08984375 8.3203125 C-2.39019531 8.87460938 -2.69054687 9.42890625 -3 10 C-3.66 9.67 -4.32 9.34 -5 9 C-4.34 7.02 -3.68 5.04 -3 3 C-2.34 3 -1.68 3 -1 3 C-0.67 2.01 -0.34 1.02 0 0 Z " fill="#F25557" transform="translate(251,64)"/>
<path d="M0 0 C0.66 0.66 1.32 1.32 2 2 C1.625 5.125 1.625 5.125 1 8 C0.01 7.67 -0.98 7.34 -2 7 C-1.34 4.69 -0.68 2.38 0 0 Z " fill="#F43C3B" transform="translate(285,22)"/>
<path d="M0 0 C3.96 1.98 3.96 1.98 8 4 C8 4.33 8 4.66 8 5 C6.02 5.33 4.04 5.66 2 6 C2 4.68 2 3.36 2 2 C1.34 2 0.68 2 0 2 C0 1.34 0 0.68 0 0 Z " fill="#EB5F5C" transform="translate(217,357)"/>
<path d="M0 0 C0.99 0.495 0.99 0.495 2 1 C2 1.66 2 2.32 2 3 C3.98 3.66 5.96 4.32 8 5 C8 5.66 8 6.32 8 7 C5.03 6.505 5.03 6.505 2 6 C1.34 4.02 0.68 2.04 0 0 Z " fill="#E86E6E" transform="translate(263,237)"/>
<path d="M0 0 C0.33 0.66 0.66 1.32 1 2 C-1 5 -1 5 -4.125 5.6875 C-5.07375 5.790625 -6.0225 5.89375 -7 6 C-2.25 1.125 -2.25 1.125 0 0 Z " fill="#EE6666" transform="translate(216,96)"/>
<path d="M0 0 C0.66 0 1.32 0 2 0 C1.01 2.97 0.02 5.94 -1 9 C-2.07349791 4.70600835 -1.79682816 3.80504787 0 0 Z " fill="#E86263" transform="translate(412,411)"/>
<path d="M0 0 C0.721875 0.144375 1.44375 0.28875 2.1875 0.4375 C3.5796875 0.7159375 3.5796875 0.7159375 5 1 C6.66666667 1.33333333 8.33333333 1.66666667 10 2 C10 2.33 10 2.66 10 3 C7.03 3 4.06 3 1 3 C0.67 2.01 0.34 1.02 0 0 Z " fill="#E86D6E" transform="translate(271,244)"/>
</svg>
