<?xml version="1.0" encoding="UTF-8"?>
<svg version="1.1" xmlns="http://www.w3.org/2000/svg" width="500" height="500">
<path d="M0 0 C5.06666943 1.68888981 6.60858111 6.43910364 9 11 C13.28343127 19.76919317 16.72285525 28.49475708 19 38 C19.94194907 41.31762783 20.89367565 44.63225431 21.8515625 47.9453125 C29.58526008 79.73940257 21.77061864 110.77822245 7 139 C6.34 139 5.68 139 5 139 C4.88156738 139.57943359 4.76313477 140.15886719 4.64111328 140.75585938 C3.96405882 143.12580782 3.04714787 144.82117808 1.7421875 146.90625 C1.28473145 147.64399658 0.82727539 148.38174316 0.35595703 149.1418457 C-0.3771167 150.30913208 -0.3771167 150.30913208 -1.125 151.5 C-2.13080787 153.12853612 -3.13601601 154.75744279 -4.140625 156.38671875 C-5.79464524 159.05738546 -7.45135357 161.72634491 -9.109375 164.39453125 C-18.38578265 179.7252315 -23.90279367 196.6728135 -20.8828125 214.6015625 C-19.79083991 218.8051738 -18.19638857 222.39524863 -16.0234375 226.14453125 C-15 228 -15 228 -15 230 C-14.01 230.33 -13.02 230.66 -12 231 C-12 231.66 -12 232.32 -12 233 C-11.34 233 -10.68 233 -10 233 C-10 233.66 -10 234.32 -10 235 C-9.29875 235.268125 -8.5975 235.53625 -7.875 235.8125 C-5 237 -5 237 -2.1875 238.5 C7.66835046 243.13804728 17.8135697 243.15669425 28.15234375 240.0625 C32.42879439 238.46689702 36.43754915 236.43698058 40.46875 234.3046875 C43 233 43 233 46 232 C46 231.34 46 230.68 46 230 C47.44568692 228.85689871 48.89171984 227.71423119 50.33984375 226.57421875 C52.79272006 224.24831486 54.29255345 221.51242861 55.921875 218.57421875 C56.27765625 218.05472656 56.6334375 217.53523437 57 217 C57.66 217 58.32 217 59 217 C59.1546875 215.9171875 59.1546875 215.9171875 59.3125 214.8125 C60 212 60 212 61.4140625 209.734375 C63.1862464 206.67888551 64.10757132 203.83580896 65.0625 200.4375 C65.54396484 198.76494141 65.54396484 198.76494141 66.03515625 197.05859375 C68.44868186 187.47255819 69.29659209 178.05321501 69.34375 168.19140625 C69.3656842 166.43678322 69.3656842 166.43678322 69.38806152 164.64671326 C69.44979668 159.69434993 69.49007968 154.74187326 69.53173828 149.78930664 C69.56544655 146.15237385 69.6105253 142.51570458 69.65625 138.87890625 C69.6615271 137.76117325 69.6668042 136.64344025 69.67224121 135.49183655 C69.68565552 134.4498259 69.69906982 133.40781525 69.71289062 132.33422852 C69.72018188 131.42222183 69.72747314 130.51021515 69.73498535 129.5705719 C70.02585811 126.74918315 70.83368076 124.57313293 72 122 C73.44039524 124.66147104 74.29311432 126.96387427 74.8125 129.9375 C76.81183309 139.36071334 80.57287696 147.95433735 85.86328125 155.9765625 C87 158 87 158 87 161 C87.66 161 88.32 161 89 161 C89.43699219 161.80050781 89.43699219 161.80050781 89.8828125 162.6171875 C92.7290406 167.79052034 95.71507294 172.84004019 98.86328125 177.8359375 C100 180 100 180 100 183 C100.66 183 101.32 183 102 183 C106.65818634 192.6756477 111.08969124 202.40709472 115.20458984 212.3269043 C116.92613618 216.47232995 118.70106287 220.56813576 120.625 224.625 C123.0809127 229.9184875 124.97758284 235.38266317 126.85791016 240.90087891 C128.38395906 245.36397052 130.13007832 249.66606694 132 254 C138.51116156 270.90865884 143.44710789 288.24125764 147 306 C147.17080078 306.84667236 147.34160156 307.69334473 147.51757812 308.56567383 C148.82188757 315.33632476 149.58386057 322.06680345 150.125 328.9375 C150.21136719 329.93201172 150.29773438 330.92652344 150.38671875 331.95117188 C152.92233102 363.0023602 148.03566919 394.94291112 132 422 C131.32156049 423.32738165 130.65073291 424.65881809 130 426 C129.34 426 128.68 426 128 426 C127.814375 426.66 127.62875 427.32 127.4375 428 C125.39191226 432.26905268 122.42815357 435.74163706 119 439 C118.34 439 117.68 439 117 439 C117 439.66 117 440.32 117 441 C116.34 441 115.68 441 115 441 C115 441.66 115 442.32 115 443 C114.34 443 113.68 443 113 443 C113 443.66 113 444.32 113 445 C108.52941176 449 108.52941176 449 106 449 C106 449.66 106 450.32 106 451 C103.98797625 452.50137334 101.99664642 453.85607425 99.875 455.1875 C99.24263428 455.58678711 98.61026855 455.98607422 97.95874023 456.39746094 C87.98998623 462.58794478 77.7683838 467.36459231 66.5703125 470.859375 C64.03605805 471.66900553 61.62565231 472.52847418 59.16015625 473.50390625 C45.87584301 478.52618022 31.49554282 479.36533207 17.4375 479.375 C15.55575073 479.37729614 15.55575073 479.37729614 13.63598633 479.37963867 C3.89853015 479.2606866 3.89853015 479.2606866 -1 477 C-0.34 476.01 0.32 475.02 1 474 C1.66 474 2.32 474 3 474 C3 473.34 3 472.68 3 472 C4.64453125 470.4140625 4.64453125 470.4140625 6.8125 468.625 C9.06250857 466.76433718 10.90350285 465.13127297 12.63671875 462.7734375 C13.08660156 462.18820312 13.53648437 461.60296875 14 461 C14.66 461 15.32 461 16 461 C16.2475 460.29875 16.495 459.5975 16.75 458.875 C18 456 18 456 19.875 453.375 C29.44508021 438.17546084 30.61548999 417.04340807 27.34765625 399.73046875 C23.31003727 385.39952069 13.13641532 373.26309128 1 365 C1 364.34 1 363.68 1 363 C-0.98 362.34 -2.96 361.68 -5 361 C-5 360.34 -5 359.68 -5 359 C-5.804375 358.79375 -6.60875 358.5875 -7.4375 358.375 C-10.51239466 357.18819855 -12.53125087 356.04591891 -15.1875 354.1875 C-20.15648286 350.73634638 -25.44155142 348.34805492 -31 346 C-31 345.34 -31 344.68 -31 344 C-31.55042969 343.89300781 -32.10085937 343.78601563 -32.66796875 343.67578125 C-35.4753151 342.86226212 -37.76125156 341.61287926 -40.3125 340.1875 C-41.27414063 339.65253906 -42.23578125 339.11757813 -43.2265625 338.56640625 C-46.49134487 336.72249395 -49.75341775 334.87580308 -53 333 C-53 332.34 -53 331.68 -53 331 C-53.56203125 330.89558594 -54.1240625 330.79117187 -54.703125 330.68359375 C-57.42380471 329.87386765 -59.39257807 328.63796662 -61.75 327.0625 C-62.94882813 326.27552734 -62.94882813 326.27552734 -64.171875 325.47265625 C-64.77515625 324.98667969 -65.3784375 324.50070312 -66 324 C-66 323.34 -66 322.68 -66 322 C-66.763125 321.71125 -67.52625 321.4225 -68.3125 321.125 C-71 320 -71 320 -74 318 C-74 317.34 -74 316.68 -74 316 C-75.65 315.34 -77.3 314.68 -79 314 C-79 313.34 -79 312.68 -79 312 C-79.5775 311.731875 -80.155 311.46375 -80.75 311.1875 C-83.05550043 309.97070811 -85.02056192 308.69666121 -87 307 C-87 306.34 -87 305.68 -87 305 C-87.66 305 -88.32 305 -89 305 C-89 304.34 -89 303.68 -89 303 C-89.66 303 -90.32 303 -91 303 C-91 302.34 -91 301.68 -91 301 C-91.639375 300.731875 -92.27875 300.46375 -92.9375 300.1875 C-95 299 -95 299 -96 296 C-96.66 296 -97.32 296 -98 296 C-99.83119178 293.86959387 -101.5514554 291.73257495 -103.25 289.5 C-103.74218018 288.8608667 -104.23436035 288.2217334 -104.74145508 287.56323242 C-105.71978255 286.29077782 -106.69550441 285.01631514 -107.66845703 283.73974609 C-108.78500209 282.28090853 -109.91969429 280.83598465 -111.05859375 279.39453125 C-111.86490234 278.36392578 -111.86490234 278.36392578 -112.6875 277.3125 C-113.14511719 276.73113281 -113.60273438 276.14976562 -114.07421875 275.55078125 C-115 274 -115 274 -115 271 C-115.66 271 -116.32 271 -117 271 C-119.02518905 267.01225661 -121.0185889 263.00966406 -123 259 C-123.45246094 258.1028125 -123.90492188 257.205625 -124.37109375 256.28125 C-136.28095169 231.64528217 -137.05279347 202.52115015 -128.33984375 176.8359375 C-127.89392023 175.5570505 -127.44733764 174.27839305 -127 173 C-126.63003906 171.89914063 -126.26007813 170.79828125 -125.87890625 169.6640625 C-122.61723807 160.52236276 -117.90964697 152.33249454 -113 144 C-112.34 144 -111.68 144 -111 144 C-110.855625 143.38125 -110.71125 142.7625 -110.5625 142.125 C-110 140 -110 140 -109 138 C-108.34 138 -107.68 138 -107 138 C-106.9175 137.443125 -106.835 136.88625 -106.75 136.3125 C-105.76104459 133.26322081 -104.15242534 131.34810037 -102 129 C-101.34 129 -100.68 129 -100 129 C-99.71125 128.401875 -99.4225 127.80375 -99.125 127.1875 C-98 125 -98 125 -96 122 C-95.34 122 -94.68 122 -94 122 C-93.5970874 121.1035376 -93.5970874 121.1035376 -93.18603516 120.18896484 C-91.99223104 117.98566149 -90.85216859 116.66725497 -89.0234375 114.9765625 C-88.43852539 114.43281982 -87.85361328 113.88907715 -87.25097656 113.32885742 C-86.6319043 112.76658447 -86.01283203 112.20431152 -85.375 111.625 C-84.74561523 111.04790283 -84.11623047 110.47080566 -83.46777344 109.8762207 C-71.49638308 99 -71.49638308 99 -68 99 C-68 98.34 -68 97.68 -68 97 C-65.9055032 95.36570249 -63.82217909 93.85832766 -61.625 92.375 C-61.02171875 91.95476562 -60.4184375 91.53453125 -59.796875 91.1015625 C-55.26537135 88 -55.26537135 88 -53 88 C-53 87.34 -53 86.68 -53 86 C-51.35 85.34 -49.7 84.68 -48 84 C-48 83.34 -48 82.68 -48 82 C-44.53846154 79 -44.53846154 79 -42 79 C-42 78.34 -42 77.68 -42 77 C-41.34 77 -40.68 77 -40 77 C-40 76.34 -40 75.68 -40 75 C-35.52941176 71 -35.52941176 71 -33 71 C-33 70.34 -33 69.68 -33 69 C-32.34 69 -31.68 69 -31 69 C-30.71125 68.401875 -30.4225 67.80375 -30.125 67.1875 C-29 65 -29 65 -27 62 C-26.34 62 -25.68 62 -25 62 C-24.5359375 61.071875 -24.5359375 61.071875 -24.0625 60.125 C-23.375 58.75 -22.6875 57.375 -22 56 C-21.34 56 -20.68 56 -20 56 C-19.72929687 55.28457031 -19.45859375 54.56914063 -19.1796875 53.83203125 C-17.99538542 50.98892195 -16.62641455 48.37526543 -15.125 45.6875 C-14.59390625 44.72070312 -14.0628125 43.75390625 -13.515625 42.7578125 C-12.63093348 41.14803876 -11.74575679 39.53853115 -10.859375 37.9296875 C-5.36664762 27.51094271 -2.13415147 15.80942556 -1.24609375 4.1015625 C-1 2 -1 2 0 0 Z " fill="#FBFBFB" transform="translate(275,5)"/>
<path d="M0 0 C0.99 0 1.98 0 3 0 C2.07515879 4.79224584 1.1356188 9.56642624 -0.0703125 14.296875 C-4.96915846 34.36903769 -5.8841211 57.29299136 1 77 C1.37801758 78.11205811 1.37801758 78.11205811 1.76367188 79.24658203 C5.20324758 89.17557306 9.40430782 98.09776244 15 107 C15.65274739 108.18371356 16.29963552 109.37070058 16.9375 110.5625 C20.39603231 116.65610455 24.782931 122.32873978 29.25 127.7109375 C31 130 31 130 31 132 C31.66 132 32.32 132 33 132 C34.36933879 133.55593001 35.66944657 135.17297341 36.9375 136.8125 C42.49282643 143.76341086 48.56132777 151.04088518 56 156 C56 156.66 56 157.32 56 158 C57.65 158.66 59.3 159.32 61 160 C61 160.66 61 161.32 61 162 C61.66 162 62.32 162 63 162 C63 162.66 63 163.32 63 164 C63.71542969 164.2578125 64.43085938 164.515625 65.16796875 164.78125 C68.17160111 166.07384765 70.63505372 167.6277709 73.3125 169.5 C74.63701172 170.41265625 74.63701172 170.41265625 75.98828125 171.34375 C76.65214844 171.8903125 77.31601563 172.436875 78 173 C78 173.66 78 174.32 78 175 C78.85851562 175.16822266 78.85851562 175.16822266 79.734375 175.33984375 C82.26191352 176.07631618 84.03522722 177.1414832 86.25 178.5625 C90.60245405 181.24289692 95.03976829 183.56869862 99.625 185.8125 C105.38106864 188.64106703 111.03493715 191.60534504 116.625 194.75 C117.27549316 195.11456299 117.92598633 195.47912598 118.59619141 195.85473633 C122.5143024 198.07832282 126.36297971 200.33658206 130 203 C130 203.66 130 204.32 130 205 C130.56976563 205.23976563 131.13953125 205.47953125 131.7265625 205.7265625 C140.31369411 210.53653656 145.34934323 220.23842375 149 229 C149.37382812 229.87140625 149.74765625 230.7428125 150.1328125 231.640625 C154.26897061 247.66357986 151.12496636 264.11478594 143.1875 278.25 C139.87451103 283.43031003 136.22699305 288.52548033 132 293 C131.34 293 130.68 293 130 293 C130 293.66 130 294.32 130 295 C128.35 295.66 126.7 296.32 125 297 C125 297.66 125 298.32 125 299 C113.04911437 307.3368721 101.06913221 310.62743957 87 313 C86.21753906 313.18691406 85.43507812 313.37382812 84.62890625 313.56640625 C55.36525579 318.39295187 24.29330555 307.62727258 0 292 C-0.58249512 291.63938477 -1.16499023 291.27876953 -1.76513672 290.90722656 C-3.21207542 289.9917213 -4.61141748 289.00180839 -6 288 C-6 287.34 -6 286.68 -6 286 C-6.57234375 285.7421875 -7.1446875 285.484375 -7.734375 285.21875 C-10.21128995 283.88634058 -12.1341166 282.34943882 -14.25 280.5 C-14.95640625 279.8915625 -15.6628125 279.283125 -16.390625 278.65625 C-18 277 -18 277 -18 275 C-18.639375 274.731875 -19.27875 274.46375 -19.9375 274.1875 C-22 273 -22 273 -23 270 C-23.66 270 -24.32 270 -25 270 C-25.66 268.35 -26.32 266.7 -27 265 C-27.66 265 -28.32 265 -29 265 C-29 264.01 -29 263.02 -29 262 C-29.66 262 -30.32 262 -31 262 C-32.5859375 259.875 -32.5859375 259.875 -34.375 257 C-34.96023437 256.071875 -35.54546875 255.14375 -36.1484375 254.1875 C-40.03388842 247.49862247 -42.98761527 240.7505247 -45.5 233.4375 C-45.95282349 232.12966553 -45.95282349 232.12966553 -46.41479492 230.79541016 C-48.97610727 223.28543606 -51.20676246 215.73386804 -53 208 C-53.16776443 207.34643021 -53.33552887 206.69286041 -53.50837708 206.01948547 C-55.18074565 198.84564277 -55.28145674 191.7659856 -55.27439499 184.43746376 C-55.27341432 182.18503786 -55.28655209 179.93306955 -55.30337524 177.68070984 C-55.3491748 171.28367627 -55.37420831 164.88669433 -55.38085938 158.48950195 C-55.38593228 154.5549567 -55.41046575 150.62089427 -55.44618607 146.6865139 C-55.45584841 145.20570999 -55.45839202 143.72483851 -55.45301437 142.24401283 C-55.42141338 133.11290581 -56.42601873 124.95104797 -59.04629517 116.19206238 C-59.86123443 113.46445014 -60.49683845 110.79878212 -61 108 C-54.92413452 109.89870796 -49.18984501 114.22461765 -45 119 C-45 119.66 -45 120.32 -45 121 C-44.34 121 -43.68 121 -43 121 C-38.84678428 128.69198308 -35.61224339 135.69734322 -33.73828125 144.296875 C-32.45201254 149.00638795 -30.30007285 153.61179035 -26.01953125 156.1953125 C-21.11368613 158.1500593 -16.74792319 156.80873265 -12 155 C-12 154.34 -12 153.68 -12 153 C-11.34 153 -10.68 153 -10 153 C-9.690625 152.05125 -9.38125 151.1025 -9.0625 150.125 C-8 147 -8 147 -7 145 C-6.19997336 134.1275068 -6.58083832 123.12805039 -12.50390625 113.57421875 C-17.6667982 104.69080936 -18.71550749 93.0606898 -19 83 C-19.02835938 82.10023438 -19.05671875 81.20046875 -19.0859375 80.2734375 C-19.30427707 65.47001494 -17.56935321 51.10165959 -14.0625 36.75 C-13.90483154 36.10039307 -13.74716309 35.45078613 -13.5847168 34.78149414 C-12.38423319 30.04394657 -10.76320977 25.55344662 -9 21 C-8.49711017 19.63256973 -7.9971131 18.26407216 -7.5 16.89453125 C-7 15.53385417 -6.5 14.17317708 -6 12.8125 C-5.7525 12.12736328 -5.505 11.44222656 -5.25 10.73632812 C-3.83696454 6.91303686 -2.447061 3.28186567 0 0 Z " fill="#FAFAFA" transform="translate(133,179)"/>
<path d="M0 0 C0.99 0 1.98 0 3 0 C1.83445193 6.0509304 0.54656904 12.03466226 -1 18 C-1.33 17.01 -1.66 16.02 -2 15 C-2.99 15.33 -3.98 15.66 -5 16 C-5.73323796 18.01508358 -5.73323796 18.01508358 -6 20 C-6.66 20 -7.32 20 -8 20 C-7.3316356 15.62221316 -5.77089558 11.77628147 -4 7.75 C-3.72671875 7.11320313 -3.4534375 6.47640625 -3.171875 5.8203125 C-1.14074248 1.14074248 -1.14074248 1.14074248 0 0 Z " fill="#BEB9B9" transform="translate(133,179)"/>
<path d="M0 0 C2.32590854 3.63423209 2.16265833 6.77088331 2 11 C1.01 11.495 1.01 11.495 0 12 C-0.33 27.18 -0.66 42.36 -1 58 C-1.33 58 -1.66 58 -2 58 C-2.05072207 50.54356797 -2.08574293 43.08718046 -2.10986328 35.63061523 C-2.11991901 33.09413999 -2.13356535 30.55767632 -2.15087891 28.02124023 C-2.17514563 24.37480814 -2.1864875 20.72852937 -2.1953125 17.08203125 C-2.20563507 15.94852737 -2.21595764 14.8150235 -2.22659302 13.64717102 C-2.22674408 12.58644882 -2.22689514 11.52572662 -2.22705078 10.43286133 C-2.231492 9.50242508 -2.23593323 8.57198883 -2.24050903 7.61335754 C-1.97774771 4.75820784 -1.18517899 2.5973739 0 0 Z " fill="#CAC7C5" transform="translate(347,127)"/>
<path d="M0 0 C0 3 0 3 -1.5625 4.9375 C-2.036875 5.618125 -2.51125 6.29875 -3 7 C-2.67 8.32 -2.34 9.64 -2 11 C6.25 11.33 14.5 11.66 23 12 C23 12.33 23 12.66 23 13 C18.96154588 13.04962653 14.92321113 13.08582632 10.88452148 13.10986328 C9.51209417 13.11988926 8.13968805 13.13351356 6.76733398 13.15087891 C4.78899473 13.17527627 2.81049633 13.18544484 0.83203125 13.1953125 C-0.35672607 13.20578613 -1.5454834 13.21625977 -2.77026367 13.22705078 C-5.94736386 13.00370033 -8.14343455 12.36116639 -11 11 C-10.34 10.01 -9.68 9.02 -9 8 C-8.34 8 -7.68 8 -7 8 C-7 7.34 -7 6.68 -7 6 C-5.46875 4.4921875 -5.46875 4.4921875 -3.5 2.875 C-2.8503125 2.33617187 -2.200625 1.79734375 -1.53125 1.2421875 C-0.77328125 0.62730469 -0.77328125 0.62730469 0 0 Z " fill="#9D9A9A" transform="translate(285,471)"/>
<path d="M0 0 C2.60868369 2.60868369 2.25728913 3.74532364 2.265625 7.375 C2.26820313 8.44234375 2.27078125 9.5096875 2.2734375 10.609375 C2.26570313 11.72828125 2.25796875 12.8471875 2.25 14 C2.25773437 15.11890625 2.26546875 16.2378125 2.2734375 17.390625 C2.27085937 18.45796875 2.26828125 19.5253125 2.265625 20.625 C2.26336914 21.60726563 2.26111328 22.58953125 2.25878906 23.6015625 C2 26 2 26 0 28 C-0.38218767 26.34385343 -0.71395102 24.67542976 -1 23 C-0.67 22.67 -0.34 22.34 0 22 C0.08700342 20.36527118 0.10701063 18.72685945 0.09765625 17.08984375 C0.09282227 15.60581055 0.09282227 15.60581055 0.08789062 14.09179688 C0.07951172 13.05087891 0.07113281 12.00996094 0.0625 10.9375 C0.05798828 9.89271484 0.05347656 8.84792969 0.04882812 7.77148438 C0.03699913 5.1809334 0.02051689 2.59049441 0 0 Z " fill="#A6A2A1" transform="translate(282,412)"/>
<path d="M0 0 C2.32590854 3.63423209 2.16265833 6.77088331 2 11 C0.02 11.99 0.02 11.99 -2 13 C-2.16682272 8.07872966 -2.24828052 4.49656104 0 0 Z " fill="#A49C9C" transform="translate(347,127)"/>
<path d="M0 0 C0.99 0 1.98 0 3 0 C2.34 3.3 1.68 6.6 1 10 C0.67 9.01 0.34 8.02 0 7 C-0.99 7 -1.98 7 -3 7 C-1.125 1.125 -1.125 1.125 0 0 Z " fill="#A09999" transform="translate(133,179)"/>
<path d="M0 0 C3.37503669 1.1858237 5.64722731 2.27573689 8 5 C7.01 5.495 7.01 5.495 6 6 C6 5.34 6 4.68 6 4 C5.01 4 4.02 4 3 4 C3.33 6.31 3.66 8.62 4 11 C1.6870518 8.6870518 1.50419025 7.52095125 0.875 4.375 C0.70742187 3.55773437 0.53984375 2.74046875 0.3671875 1.8984375 C0.24601562 1.27195312 0.12484375 0.64546875 0 0 Z " fill="#9E9797" transform="translate(72,287)"/>
<path d="M0 0 C0.99 0.33 1.98 0.66 3 1 C4.1875 3.5625 4.1875 3.5625 5 6 C3.02 6.33 1.04 6.66 -1 7 C-0.67 4.69 -0.34 2.38 0 0 Z " fill="#A6A2A4" transform="translate(275,5)"/>
<path d="M0 0 C0.33 0.66 0.66 1.32 1 2 C0.67 2.66 0.34 3.32 0 4 C-0.66 4 -1.32 4 -2 4 C-2.103125 4.598125 -2.20625 5.19625 -2.3125 5.8125 C-3.09824033 8.31258286 -3.96918853 9.37535082 -6 11 C-6.66 11 -7.32 11 -8 11 C-8 11.66 -8 12.32 -8 13 C-8.66 12.67 -9.32 12.34 -10 12 C-9.67 11.34 -9.34 10.68 -9 10 C-8.34 10 -7.68 10 -7 10 C-6.71125 9.401875 -6.4225 8.80375 -6.125 8.1875 C-5 6 -5 6 -3 3 C-2.34 3 -1.68 3 -1 3 C-0.67 2.01 -0.34 1.02 0 0 Z " fill="#B1ADAE" transform="translate(182,124)"/>
<path d="M0 0 C0.33 0.99 0.66 1.98 1 3 C0.67 3.66 0.34 4.32 0 5 C-0.99 5.33 -1.98 5.66 -3 6 C-3.73323796 8.01508358 -3.73323796 8.01508358 -4 10 C-4.66 10 -5.32 10 -6 10 C-5.47731534 7.23723823 -4.89130413 4.6739124 -4 2 C-1.9375 0.8125 -1.9375 0.8125 0 0 Z " fill="#C9C4C3" transform="translate(131,189)"/>
<path d="M0 0 C0.68707555 2.49064888 1 4.37886292 1 7 C-2.33333333 10 -2.33333333 10 -5 10 C-5 9.34 -5 8.68 -5 8 C-4.34 8 -3.68 8 -3 8 C-2.690625 7.05125 -2.38125 6.1025 -2.0625 5.125 C-1 2 -1 2 0 0 Z " fill="#A7A6A6" transform="translate(126,324)"/>
</svg>
